<?xml version="1.0" standalone="no"?>
<!DOCTYPE svg PUBLIC "-//W3C//DTD SVG 1.1//EN" "http://www.w3.org/Graphics/SVG/1.1/DTD/svg11.dtd" >
<svg xmlns="http://www.w3.org/2000/svg" xmlns:xlink="http://www.w3.org/1999/xlink" version="1.1">
<metadata>
Created by FontForge 20201107 at Wed Jan  8 11:55:40 2025
 By 
Copyright (c) 2018-2019 by TypeType. Designers Ivan Gladkikh, Pavel Emelyanov. Technical designers Marina Khodak, Vika Usmanova, Nadyr Rakhimov, Antonina Zhulkova. All rights reserved. |DCNT
</metadata>
<defs>
<font id="TTCommons-Light" horiz-adv-x="983" >
  <font-face 
    font-family="TT Commons Light"
    font-weight="300"
    font-stretch="normal"
    units-per-em="2048"
    panose-1="2 0 5 6 3 0 0 2 0 3"
    ascent="1616"
    descent="-432"
    x-height="901"
    cap-height="1290"
    bbox="-778 -471 2945 1905"
    underline-thickness="102"
    underline-position="-204"
    unicode-range="U+000D-FB06"
  />
<missing-glyph horiz-adv-x="0" 
 />
    <glyph glyph-name="ff" unicode="ff" horiz-adv-x="1064" 
d="M205 0v809h-144v92h144v92q0 121 66.5 194t168.5 73q34 0 60 -11l22 -10v-82l-16 4q-30 6 -45 6q-74 0 -119 -43t-45 -131v-92h399v133q0 121 67 193.5t169 72.5q36 0 59 -10l23 -10v-82l-17 4q-30 6 -45 6q-74 0 -119 -43t-45 -131v-133h226v-92h-226v-809h-92v809h-399
v-809h-92z" />
    <glyph glyph-name="uniFB01" unicode="fi" horiz-adv-x="952" 
d="M205 0v809h-144v92h144v133q0 121 66.5 193.5t168.5 72.5q37 0 60 -10l22 -10v-82l-16 4q-30 6 -45 6q-74 0 -119 -43t-45 -131v-133h491v-901h-92v809h-399v-809h-92zM676 1188q0 31 20.5 51.5t51.5 20.5t51 -20.5t20 -51.5t-20 -51.5t-51 -20.5t-51.5 20.5t-20.5 51.5z
" />
    <glyph glyph-name="uniFB02" unicode="fl" horiz-adv-x="931" 
d="M205 0v809h-144v92h144v62q0 161 88.5 249t249.5 88q41 0 96 -10q33 -7 57 -10h92v-1280h-92v1188q-16 2 -43 10q-45 10 -110 10q-106 0 -176 -63.5t-70 -181.5v-62h225v-92h-225v-809h-92z" />
    <glyph glyph-name="ffi" unicode="ffi" horiz-adv-x="1443" 
d="M205 0v809h-144v92h144v92q0 121 66.5 194t168.5 73q34 0 60 -11l22 -10v-82l-16 4q-30 6 -45 6q-74 0 -119 -43t-45 -131v-92h399v133q0 121 67 193.5t169 72.5q36 0 59 -10l23 -10v-82l-17 4q-30 6 -45 6q-74 0 -119 -43t-45 -131v-133h492v-901h-92v809h-400v-809h-92
v809h-399v-809h-92zM1167 1188q0 31 20.5 51.5t51.5 20.5t51.5 -20.5t20.5 -51.5t-20.5 -51.5t-51.5 -20.5t-51.5 20.5t-20.5 51.5z" />
    <glyph glyph-name="ffl" unicode="ffl" horiz-adv-x="1423" 
d="M205 0v809h-144v92h144v92q0 121 66.5 194t168.5 73q34 0 60 -11l22 -10v-82l-16 4q-30 6 -45 6q-74 0 -119 -43t-45 -131v-92h399v62q0 161 88.5 249t249.5 88q41 0 96 -10q32 -7 58 -10h92v-1280h-92v1188q-16 2 -43 10q-45 10 -111 10q-106 0 -176 -63.5t-70 -181.5
v-62h226v-92h-226v-809h-92v809h-399v-809h-92z" />
    <glyph glyph-name="f_f_j" unicode="ffj" horiz-adv-x="1443" 
d="M205 0v809h-144v92h144v92q0 121 66.5 194t168.5 73q34 0 60 -11l22 -10v-82l-16 4q-30 6 -45 6q-74 0 -119 -43t-45 -131v-92h399v133q0 121 67 193.5t169 72.5q36 0 59 -10l23 -10v-82l-17 4q-30 6 -45 6q-74 0 -119 -43t-45 -131v-133h492v-973q0 -121 -67 -193.5
t-169 -72.5q-32 0 -59 10q-9 2 -22 11v81l16 -6q28 -4 45 -4q79 0 121.5 44.5t42.5 129.5v881h-400v-809h-92v809h-399v-809h-92zM1167 1188q0 31 20.5 51.5t51.5 20.5t51.5 -20.5t20.5 -51.5t-20.5 -51.5t-51.5 -20.5t-51.5 20.5t-20.5 51.5z" />
    <glyph glyph-name="f_j" unicode="fj" horiz-adv-x="952" 
d="M471 -317v81l16 -6q28 -4 45 -4q79 0 121.5 44.5t42.5 129.5v881h-399v-809h-92v809h-144v92h144v92q0 121 66.5 194t168.5 73q34 0 60 -11l22 -10v-82l-16 4q-30 6 -45 6q-74 0 -119 -43t-45 -131v-92h491v-973q0 -121 -66.5 -193.5t-168.5 -72.5q-32 0 -59 10
q-10 3 -23 11zM676 1188q0 31 20.5 51.5t51.5 20.5t51 -20.5t20 -51.5t-20 -51.5t-51 -20.5t-51.5 20.5t-20.5 51.5z" />
    <glyph glyph-name=".notdef" horiz-adv-x="0" 
 />
    <glyph glyph-name=".null" horiz-adv-x="0" 
 />
    <glyph glyph-name="nonmarkingreturn" horiz-adv-x="682" 
 />
    <glyph glyph-name="NULL" horiz-adv-x="0" 
 />
    <glyph glyph-name="NULL" horiz-adv-x="0" 
 />
    <glyph glyph-name="CR" unicode="&#xd;" horiz-adv-x="0" 
 />
    <glyph glyph-name="space" unicode=" " horiz-adv-x="430" 
 />
    <glyph glyph-name="exclam" unicode="!" horiz-adv-x="491" 
d="M205 307l-21 983h123l-20 -983h-82zM174 61q0 31 20.5 51.5t51.5 20.5t51 -20.5t20 -51.5t-20 -51t-51 -20t-51.5 20t-20.5 51z" />
    <glyph glyph-name="quotedbl" unicode="&#x22;" horiz-adv-x="583" 
d="M123 911v379h92v-379h-92zM369 911v379h92v-379h-92z" />
    <glyph glyph-name="numbersign" unicode="#" horiz-adv-x="1228" 
d="M215 0l82 389h-246l21 92h245l72 328h-256l21 92h256l82 389h92l-82 -389h338l82 389h92l-82 -389h246l-21 -92h-246l-71 -328h256l-21 -92h-256l-82 -389h-92l82 389h-338l-82 -389h-92zM410 481h338l71 328h-338z" />
    <glyph glyph-name="dollar" unicode="$" horiz-adv-x="1003" 
d="M461 -195v185q-169 17 -266 115.5t-103 252.5h103q18 -127 99.5 -201.5t217.5 -74.5q145 0 226 73t81 193q0 60 -24 105t-65 73.5t-94 50.5t-111.5 39.5t-117 36t-111.5 45t-94 61t-65 89t-24 125.5q0 124 95.5 217t252.5 110v185h92v-185q145 -17 242.5 -118t105.5 -240
h-102q-8 117 -86.5 191.5t-200.5 74.5q-134 0 -215.5 -69t-81.5 -166q0 -71 39 -120.5t101.5 -77t137.5 -49.5t150.5 -48.5t138 -63.5t101.5 -104.5t39 -161.5q0 -150 -96.5 -245.5t-272.5 -112.5v-185h-92z" />
    <glyph glyph-name="percent" unicode="%" horiz-adv-x="1218" 
d="M164 0l788 1290h103l-789 -1290h-102zM901 82q70 0 117 48.5t47 125.5t-47 125.5t-117 48.5t-117 -48.5t-47 -125.5t47 -125.5t117 -48.5zM645 256q0 107 74.5 181.5t181.5 74.5t181.5 -74.5t74.5 -181.5t-74.5 -181.5t-181.5 -74.5t-181.5 74.5t-74.5 181.5zM317 860
q70 0 117 48.5t47 125.5t-47 125.5t-117 48.5t-116.5 -48.5t-46.5 -125.5t46.5 -125.5t116.5 -48.5zM61 1034q0 107 74.5 181.5t181.5 74.5t181.5 -74.5t74.5 -181.5t-74.5 -181.5t-181.5 -74.5t-181.5 74.5t-74.5 181.5z" />
    <glyph glyph-name="ampersand" unicode="&#x26;" horiz-adv-x="1085" 
d="M1004 0l-216 215q-45 -66 -100 -113q-130 -112 -278 -112q-138 0 -228 86t-90 211q0 129 123 270q50 62 123 119l-72 72q-39 34 -67 75q-66 94 -66 191q0 123 82 204.5t205 81.5t205 -81.5t82 -204.5q0 -86 -72 -183q-36 -43 -72 -73l-96 -82l311 -318l96 148
q7 12 27.5 41.5t30.5 46.5h112l-204 -297l297 -297h-133zM348 799l62 -62l92 82q31 24 55 55q57 64 57 140q0 86 -54 140t-140 54t-140.5 -54t-54.5 -140q0 -72 62 -150q29 -37 61 -65zM727 276l-328 338q-64 -49 -108 -98q-107 -115 -107 -229q0 -88 62.5 -146.5
t163.5 -58.5q115 0 227 96q52 45 90 98z" />
    <glyph glyph-name="quotesingle" unicode="'" horiz-adv-x="337" 
d="M123 911v379h92v-379h-92z" />
    <glyph glyph-name="parenleft" unicode="(" horiz-adv-x="491" 
d="M451 -338l-62 -51q-81 121 -139 248q-137 297 -137 602t137 602q58 127 139 248l62 -51q-69 -109 -123 -238q-123 -287 -123 -561t123 -561q54 -129 123 -238z" />
    <glyph glyph-name="parenright" unicode=")" horiz-adv-x="491" 
d="M102 -389l-61 51q69 109 123 238q123 287 123 561t-123 561q-54 129 -123 238l61 51q78 -116 138 -248q139 -301 139 -602t-139 -602q-60 -132 -138 -248z" />
    <glyph glyph-name="asterisk" unicode="*" horiz-adv-x="655" 
d="M133 799l143 184l-215 61l31 72l205 -72l-10 246h82l-11 -246l205 72l31 -72l-215 -61l143 -184l-71 -51l-123 204l-123 -204z" />
    <glyph glyph-name="plus" unicode="+" horiz-adv-x="890" 
d="M399 133v348h-338v92h338v349h93v-349h337v-92h-337v-348h-93z" />
    <glyph glyph-name="comma" unicode="," horiz-adv-x="286" 
d="M82 -184l-21 20q22 22 37 43q38 57 45 111q-31 0 -51 20t-20 51t20 51.5t51 20.5t51.5 -22.5t20.5 -59.5q0 -88 -68 -172q-24 -34 -65 -63z" />
    <glyph glyph-name="hyphen" unicode="-" horiz-adv-x="696" 
d="M72 481v92h553v-92h-553z" />
    <glyph glyph-name="period" unicode="." horiz-adv-x="286" 
d="M72 61q0 31 20 51.5t51 20.5t51.5 -20.5t20.5 -51.5t-20.5 -51t-51.5 -20t-51 20t-20 51z" />
    <glyph glyph-name="slash" unicode="/" horiz-adv-x="624" 
d="M0 -369l532 1659h93l-533 -1659h-92z" />
    <glyph glyph-name="zero" unicode="0" horiz-adv-x="1187" 
d="M594 82q74 0 143 37t124.5 105.5t88.5 177.5t33 243t-33 243t-88.5 177.5t-124.5 105.5t-143 37t-143 -37t-124.5 -105.5t-88.5 -177.5t-33 -243t33 -243t88.5 -177.5t124.5 -105.5t143 -37zM594 -10q-97 0 -185 44t-157 125t-109.5 207t-40.5 279t40.5 279t109.5 207
t157 125t185 44t185 -44t156.5 -125t109 -207t40.5 -279t-40.5 -279t-109 -207t-156.5 -125t-185 -44z" />
    <glyph glyph-name="one" unicode="1" horiz-adv-x="624" 
d="M348 0v1157l-235 -164l-52 82l318 215h72v-1290h-103z" />
    <glyph glyph-name="two" unicode="2" horiz-adv-x="952" 
d="M92 0v82l492 532q43 44 86 103q88 129 88 225q0 116 -77.5 191t-199.5 75q-123 0 -206 -78.5t-91 -195.5h-102q8 155 120.5 260.5t278.5 105.5t272.5 -101.5t106.5 -256.5q0 -122 -98 -266q-41 -58 -96 -113l-441 -471h635v-92h-768z" />
    <glyph glyph-name="three" unicode="3" 
d="M72 317h102q27 -99 110.5 -167t207.5 -68q134 0 220.5 78.5t86.5 187.5t-86.5 187.5t-220.5 78.5h-82v93h71q127 0 207 71t80 174q0 109 -79.5 182.5t-207.5 73.5q-113 0 -190.5 -69.5t-85.5 -165.5h-103q8 134 115 230.5t264 96.5q174 0 281.5 -99t107.5 -249
q0 -131 -108 -223q-41 -36 -107 -63q69 -24 123 -68q123 -96 123 -250q0 -150 -114 -254t-295 -104q-170 0 -282 94t-138 233z" />
    <glyph glyph-name="four" unicode="4" horiz-adv-x="993" 
d="M72 307v82l583 901h123v-891h154v-92h-154v-307h-102v307h-604zM184 399h492v758z" />
    <glyph glyph-name="five" unicode="5" horiz-adv-x="1003" 
d="M92 317h103q27 -99 108 -167t199 -68q131 0 224 97t93 241t-93 241t-224 97q-112 0 -207 -99q-46 -49 -70 -96h-102l82 727h635v-92h-553l-51 -491q19 28 69 71q97 72 207 72q169 0 289.5 -124t120.5 -306q0 -184 -121 -307t-299 -123q-162 0 -273 95t-137 232z" />
    <glyph glyph-name="six" unicode="6" horiz-adv-x="1024" 
d="M205 748l368 542h113l-338 -481q16 9 45 20q65 21 119 21q178 0 299 -123t121 -307t-121 -307t-299 -123t-299 123t-121 307q0 124 55 229q25 54 58 99zM512 82q131 0 224 97t93 241t-93 241t-224 97t-224 -97t-93 -241t93 -241t224 -97z" />
    <glyph glyph-name="seven" unicode="7" horiz-adv-x="901" 
d="M174 0l553 1198h-645v92h758v-82l-553 -1208h-113z" />
    <glyph glyph-name="eight" unicode="8" 
d="M82 358q0 166 127 265q52 41 129 63q-54 22 -102 64q-103 95 -103 223q0 133 104 230t255 97t254.5 -97t103.5 -230q0 -129 -102 -223q-47 -41 -103 -64q75 -22 127 -63q129 -100 129 -265q0 -157 -114 -262.5t-295 -105.5t-295.5 105.5t-114.5 262.5zM236 973
q0 -94 75 -165t181 -71t181 71t75 165t-75 164.5t-181 70.5t-181 -70.5t-75 -164.5zM799 358q0 118 -85.5 197.5t-221.5 79.5t-222 -79.5t-86 -197.5q0 -117 86 -196.5t222 -79.5t221.5 79t85.5 197z" />
    <glyph glyph-name="nine" unicode="9" horiz-adv-x="1024" 
d="M338 0l336 479q-3 -3 -20.5 -11t-58 -18t-83.5 -10q-178 0 -299 123t-121 307t121 307t299 123t299 -123t121 -307q0 -119 -58 -229q-20 -44 -55 -98l-368 -543h-113zM512 532q131 0 224 97t93 241t-93 241t-224 97t-224 -97t-93 -241t93 -241t224 -97z" />
    <glyph glyph-name="colon" unicode=":" horiz-adv-x="286" 
d="M72 61q0 31 20 51.5t51 20.5t51.5 -20.5t20.5 -51.5t-20.5 -51t-51.5 -20t-51 20t-20 51zM72 840q0 31 20 51t51 20t51.5 -20t20.5 -51t-20.5 -51.5t-51.5 -20.5t-51 20.5t-20 51.5z" />
    <glyph glyph-name="semicolon" unicode=";" horiz-adv-x="286" 
d="M72 840q0 31 20 51t51 20t51.5 -20t20.5 -51t-20.5 -51.5t-51.5 -20.5t-51 20.5t-20 51.5zM82 -184l-21 20q22 22 37 43q38 57 45 111q-31 0 -51 20t-20 51t20 51.5t51 20.5t51.5 -22.5t20.5 -59.5q0 -88 -68 -172q-24 -34 -65 -63z" />
    <glyph glyph-name="less" unicode="&#x3c;" horiz-adv-x="890" 
d="M92 420v61l707 389v-102l-594 -317l594 -318v-102z" />
    <glyph glyph-name="equal" unicode="=" horiz-adv-x="901" 
d="M61 666v92h779v-92h-779zM61 297v92h779v-92h-779z" />
    <glyph glyph-name="greater" unicode="&#x3e;" horiz-adv-x="890" 
d="M92 31v102l594 318l-594 317v102l707 -389v-61z" />
    <glyph glyph-name="question" unicode="?" horiz-adv-x="870" 
d="M471 328h-102v20q0 75 17.5 135.5t45.5 100.5t62 74.5t67.5 65.5t61.5 64.5t45.5 80t17.5 104.5q0 101 -69 168t-177 67q-110 0 -183 -79t-73 -207v-31h-102v31q0 166 101.5 272t256.5 106q152 0 250 -93.5t98 -233.5q0 -77 -23.5 -137.5t-58.5 -97.5t-76.5 -77.5
t-76.5 -77.5t-58.5 -97.5t-23.5 -137.5v-20zM348 61q0 31 20.5 51.5t51.5 20.5t51.5 -20.5t20.5 -51.5t-20.5 -51t-51.5 -20t-51.5 20t-20.5 51z" />
    <glyph glyph-name="at" unicode="@" horiz-adv-x="1515" 
d="M737 215q95 0 155 66t60 180t-60 180t-155 66t-155 -66t-60 -180t60 -180t155 -66zM1075 -31l41 -82q-65 -38 -98 -51q-119 -51 -250 -51q-187 0 -342 89.5t-244.5 244.5t-89.5 342t89.5 342t244.5 244.5t342 89.5q142 0 268.5 -53.5t215 -143t140.5 -209.5t52 -250
q0 -170 -74.5 -264t-181.5 -94q-99 0 -160 72q-32 35 -45 71h-10q-28 -42 -64 -71q-79 -72 -192 -72q-126 0 -211.5 93.5t-85.5 244.5t85.5 244.5t211.5 93.5q102 0 182 -68q30 -23 53 -65h11l20 122h61v-409q0 -75 39 -119.5t95 -44.5q70 0 122 70t52 207q0 106 -47 207
t-125 177t-186.5 122t-225.5 46q-157 0 -291.5 -78.5t-213.5 -213t-79 -291.5t79 -291.5t213.5 -213.5t291.5 -79q115 0 223 45q50 23 84 47z" />
    <glyph glyph-name="A" unicode="A" horiz-adv-x="1085" 
d="M0 0l502 1290h82l501 -1290h-112l-133 348h-594l-133 -348h-113zM276 440h533l-266 686z" />
    <glyph glyph-name="B" unicode="B" horiz-adv-x="1146" 
d="M174 0v1290h451q166 0 267 -93t101 -234q0 -131 -92 -215q-43 -39 -92 -62q72 -27 123 -70q123 -96 123 -247q0 -157 -114.5 -263t-295.5 -106h-471zM276 92h369q128 0 217.5 83.5t89.5 193.5q0 103 -90 184.5t-217 81.5h-369v-543zM276 727h349q121 0 193.5 67t72.5 169
t-72.5 168.5t-193.5 66.5h-349v-471z" />
    <glyph glyph-name="C" unicode="C" horiz-adv-x="1290" 
d="M1106 430h102q-64 -201 -201 -320.5t-331 -119.5q-114 0 -220 48.5t-186.5 133t-129 208.5t-48.5 265t48.5 265t129 208.5t186.5 133t220 48.5q193 0 329.5 -120.5t192.5 -319.5h-102q-49 160 -156.5 254t-263.5 94q-96 0 -183.5 -41.5t-153.5 -113.5t-105 -178.5
t-39 -229.5t39 -229.5t105 -178.5t153.5 -113.5t183.5 -41.5q155 0 264 93.5t166 254.5z" />
    <glyph glyph-name="D" unicode="D" horiz-adv-x="1198" 
d="M276 92h205q110 0 206.5 40.5t166.5 112.5t110 175.5t40 224.5t-40 224.5t-110 175.5t-166.5 112.5t-206.5 40.5h-205v-1106zM174 0v1290h307q173 0 315.5 -81.5t226 -229.5t83.5 -334t-83.5 -334t-226 -229.5t-315.5 -81.5h-307z" />
    <glyph glyph-name="E" unicode="E" horiz-adv-x="1075" 
d="M174 0v1290h778v-92h-676v-481h625v-92h-625v-533h697v-92h-799z" />
    <glyph glyph-name="F" unicode="F" horiz-adv-x="1003" 
d="M174 0v1290h758v-92h-656v-502h543v-92h-543v-604h-102z" />
    <glyph glyph-name="G" unicode="G" horiz-adv-x="1361" 
d="M1137 0l-11 266q-41 -77 -106 -139q-141 -137 -344 -137q-114 0 -220 48.5t-186.5 133t-129 208.5t-48.5 265t48.5 265t129 208.5t186.5 133t220 48.5q97 0 183 -32t150 -87t110 -126.5t69 -153.5h-103q-39 131 -148 219t-261 88q-96 0 -183.5 -41.5t-153.5 -113.5
t-105 -178.5t-39 -229.5t39 -229.5t105 -178.5t153.5 -113.5t183.5 -41.5q116 0 217.5 60.5t162 164.5t60.5 225h-420v93h523v-625h-82z" />
    <glyph glyph-name="H" unicode="H" horiz-adv-x="1249" 
d="M174 0v1290h102v-583h697v583h102v-1290h-102v614h-697v-614h-102z" />
    <glyph glyph-name="I" unicode="I" horiz-adv-x="450" 
d="M174 0v1290h102v-1290h-102z" />
    <glyph glyph-name="J" unicode="J" horiz-adv-x="962" 
d="M41 338h102q8 -110 87 -183t200 -73q124 0 205.5 85t81.5 222v901h102v-901q0 -185 -105 -292t-284 -107q-174 0 -281.5 99t-107.5 249z" />
    <glyph glyph-name="K" unicode="K" horiz-adv-x="1003" 
d="M174 0v1290h102v-635l553 635h134l-564 -635l605 -655h-134l-594 655v-655h-102z" />
    <glyph glyph-name="L" unicode="L" horiz-adv-x="952" 
d="M174 0v1290h102v-1198h646v-92h-748z" />
    <glyph glyph-name="M" unicode="M" horiz-adv-x="1536" 
d="M174 0v1290h92l502 -1116l502 1116h92v-1290h-102v1024l-461 -1024h-62l-461 1024v-1024h-102z" />
    <glyph glyph-name="N" unicode="N" horiz-adv-x="1249" 
d="M174 0v1290h92l707 -1095v1095h102v-1290h-92l-707 1096v-1096h-102z" />
    <glyph glyph-name="O" unicode="O" horiz-adv-x="1351" 
d="M676 -10q-114 0 -220 48.5t-186.5 133t-129 208.5t-48.5 265t48.5 265t129 208.5t186.5 133t220 48.5t220 -48.5t186.5 -133t129 -208.5t48.5 -265t-48.5 -265t-129 -208.5t-186.5 -133t-220 -48.5zM676 82q96 0 183.5 41.5t153.5 113.5t105 178.5t39 229.5t-39 229.5
t-105 178.5t-153.5 113.5t-183.5 41.5t-183.5 -41.5t-153.5 -113.5t-105 -178.5t-39 -229.5t39 -229.5t105 -178.5t153.5 -113.5t183.5 -41.5z" />
    <glyph glyph-name="P" unicode="P" horiz-adv-x="1064" 
d="M174 0v1290h410q167 0 283 -113.5t116 -275.5t-116 -275.5t-283 -113.5h-308v-512h-102zM276 604h308q123 0 210 87t87 210t-87 210t-210 87h-308v-594z" />
    <glyph glyph-name="Q" unicode="Q" horiz-adv-x="1351" 
d="M1178 -51l-164 164q-44 -37 -92 -62q-116 -61 -246 -61q-114 0 -220 48.5t-186.5 133t-129 208.5t-48.5 265t48.5 265t129 208.5t186.5 133t220 48.5t220 -48.5t186.5 -133t129 -208.5t48.5 -265q0 -192 -93 -350q-39 -68 -92 -121l164 -164zM768 348l61 62l175 -174
q40 46 75 108q78 144 78 301q0 123 -39 229.5t-105 178.5t-153.5 113.5t-183.5 41.5t-183.5 -41.5t-153.5 -113.5t-105 -178.5t-39 -229.5t39 -229.5t105 -178.5t153.5 -113.5t183.5 -41.5q46 0 90 9.5t74.5 23t54.5 27t35 22.5l12 10z" />
    <glyph glyph-name="R" unicode="R" horiz-adv-x="1116" 
d="M174 0v1290h451q167 0 278 -106.5t111 -261.5q0 -192 -154 -295q-66 -46 -153 -64l327 -563h-123l-307 553h-328v-553h-102zM276 645h349q122 0 204 80.5t82 196.5t-82 196t-204 80h-349v-553z" />
    <glyph glyph-name="S" unicode="S" horiz-adv-x="1003" 
d="M92 358h103q18 -127 99.5 -201.5t217.5 -74.5q145 0 226 73t81 193q0 60 -24 105t-65 73.5t-94 50.5t-111.5 39.5t-117 36t-111.5 45t-94 61t-65 89t-24 125.5q0 135 110 231t289 96q159 0 270 -105t119 -253h-102q-8 117 -86.5 191.5t-200.5 74.5q-134 0 -215.5 -69
t-81.5 -166q0 -71 39 -120.5t101.5 -77t137.5 -49.5t150.5 -48.5t138 -63.5t101.5 -104.5t39 -161.5q0 -157 -111 -257.5t-299 -100.5t-300 102t-120 266z" />
    <glyph glyph-name="T" unicode="T" 
d="M440 0v1198h-399v92h901v-92h-399v-1198h-103z" />
    <glyph glyph-name="U" unicode="U" horiz-adv-x="1228" 
d="M154 481v809h102v-809q0 -189 97 -294t261 -105t261.5 105t97.5 294v809h102v-809q0 -227 -125 -359t-336 -132q-210 0 -335 132t-125 359z" />
    <glyph glyph-name="V" unicode="V" horiz-adv-x="1146" 
d="M522 0l-481 1290h113l419 -1157l420 1157h113l-481 -1290h-103z" />
    <glyph glyph-name="W" unicode="W" horiz-adv-x="1617" 
d="M430 0l-379 1290h103l317 -1095l297 1095h82l297 -1095l317 1095h103l-379 -1290h-82l-297 1096l-297 -1096h-82z" />
    <glyph glyph-name="X" unicode="X" horiz-adv-x="1064" 
d="M41 0l430 655l-410 635h123l348 -553l349 553h123l-410 -635l430 -655h-123l-369 573l-368 -573h-123z" />
    <glyph glyph-name="Y" unicode="Y" horiz-adv-x="1024" 
d="M461 0v512l-430 778h112l369 -676l369 676h112l-430 -778v-512h-102z" />
    <glyph glyph-name="Z" unicode="Z" horiz-adv-x="1003" 
d="M82 0v72l696 1126h-665v92h798v-71l-696 -1127h707v-92h-840z" />
    <glyph glyph-name="bracketleft" unicode="[" horiz-adv-x="563" 
d="M174 -369v1659h338v-92h-246v-1474h246v-93h-338z" />
    <glyph glyph-name="backslash" unicode="\" horiz-adv-x="624" 
d="M532 -369l-532 1659h92l533 -1659h-93z" />
    <glyph glyph-name="bracketright" unicode="]" horiz-adv-x="563" 
d="M51 -369v93h246v1474h-246v92h338v-1659h-338z" />
    <glyph glyph-name="asciicircum" unicode="^" horiz-adv-x="778" 
d="M82 717l276 573h62l276 -573h-102l-205 440l-205 -440h-102z" />
    <glyph glyph-name="underscore" unicode="_" horiz-adv-x="552" 
d="M-41 -317v84h635v-84h-635z" />
    <glyph glyph-name="grave" unicode="`" horiz-adv-x="368" 
d="M236 1044l-175 246h123l123 -246h-71z" />
    <glyph glyph-name="a" unicode="a" horiz-adv-x="931" 
d="M707 369v82h-113q-410 0 -410 -205q0 -66 62.5 -115t173.5 -49q130 0 208.5 78t78.5 209zM737 0l-30 133h-11q-29 -44 -67 -72q-86 -71 -219 -71q-149 0 -233.5 72t-84.5 184q0 134 120.5 215.5t381.5 81.5h113v51q0 101 -64 163t-172 62q-191 0 -246 -164h-92
q18 107 108.5 181.5t229.5 74.5q147 0 237.5 -88.5t90.5 -228.5v-594h-62z" />
    <glyph glyph-name="b" unicode="b" horiz-adv-x="1054" 
d="M143 0v1290h93v-542h10q27 41 76 81q102 82 231 82q178 0 299 -131t121 -329t-121 -329.5t-299 -131.5q-129 0 -231 82q-48 39 -76 82h-10l-31 -154h-62zM553 82q133 0 230.5 106t97.5 263t-97.5 262.5t-230.5 105.5t-230.5 -105.5t-97.5 -262.5t97.5 -263t230.5 -106z
" />
    <glyph glyph-name="c" unicode="c" horiz-adv-x="962" 
d="M788 307h103q-40 -145 -140 -231t-249 -86q-178 0 -299 131.5t-121 329.5t121 329t299 131q149 0 249 -86t140 -231h-103q-33 98 -107.5 161.5t-178.5 63.5q-133 0 -230.5 -105.5t-97.5 -262.5t97.5 -263t230.5 -106q104 0 178.5 63.5t107.5 161.5z" />
    <glyph glyph-name="d" unicode="d" horiz-adv-x="1054" 
d="M850 0l-31 154h-10q-35 -48 -78 -82q-102 -82 -229 -82q-178 0 -299 131.5t-121 329.5t121 329t299 131q127 0 229 -82q45 -36 78 -81h10v542h92v-1290h-61zM502 82q133 0 230 106t97 263t-97 262.5t-230 105.5t-230.5 -105.5t-97.5 -262.5t97.5 -263t230.5 -106z" />
    <glyph glyph-name="e" unicode="e" horiz-adv-x="993" 
d="M768 225h113q-41 -97 -137 -166t-232 -69q-185 0 -307.5 131t-122.5 330q0 198 121 329t299 131q169 0 289 -123.5t120 -306.5q0 -9 -6 -51l-4 -20h-727q17 -149 108.5 -238.5t229.5 -89.5q151 0 256 143zM174 502h645q-17 140 -105.5 228.5t-211.5 88.5
q-122 0 -212.5 -88.5t-115.5 -228.5z" />
    <glyph glyph-name="f" unicode="f" horiz-adv-x="573" 
d="M205 0v809h-144v92h144v123q0 121 66.5 193.5t168.5 72.5q37 0 60 -10l22 -10v-82l-16 4q-30 6 -45 6q-74 0 -119 -43t-45 -131v-123h225v-92h-225v-809h-92z" />
    <glyph glyph-name="g" unicode="g" horiz-adv-x="1034" 
d="M123 -72h102q73 -184 287 -184q123 0 205 82t82 205v164h-11q-36 -48 -75 -82q-98 -82 -221 -82q-168 0 -289 128.5t-121 311.5t121 311.5t289 128.5q123 0 221 -82q41 -36 75 -81h11l30 153h62v-870q0 -161 -109 -270t-270 -109q-158 0 -258 76.5t-131 199.5zM492 123
q126 0 221.5 101.5t95.5 246.5t-95.5 246.5t-221.5 101.5t-222 -101.5t-96 -246.5t96 -246.5t222 -101.5z" />
    <glyph glyph-name="h" unicode="h" horiz-adv-x="1024" 
d="M143 0v1290h93v-522h10q20 34 65 72q95 71 221 71q155 0 257 -106.5t102 -272.5v-532h-92v532q0 122 -80.5 204.5t-196.5 82.5q-123 0 -204.5 -82t-81.5 -205v-532h-93z" />
    <glyph glyph-name="i" unicode="i" horiz-adv-x="378" 
d="M143 0v901h93v-901h-93zM123 1188q0 31 20.5 51.5t51.5 20.5t51 -20.5t20 -51.5t-20 -51.5t-51 -20.5t-51.5 20.5t-20.5 51.5z" />
    <glyph glyph-name="j" unicode="j" horiz-adv-x="378" 
d="M-82 -317v81l16 -6q28 -4 46 -4q79 0 121 44t42 130v973h93v-973q0 -121 -67 -193.5t-169 -72.5q-32 0 -59 10q-10 3 -23 11zM123 1188q0 31 20.5 51.5t51.5 20.5t51 -20.5t20 -51.5t-20 -51.5t-51 -20.5t-51.5 20.5t-20.5 51.5z" />
    <glyph glyph-name="k" unicode="k" horiz-adv-x="808" 
d="M143 0v1290h93v-819l409 430h123l-410 -430l451 -471h-123l-450 471v-471h-93z" />
    <glyph glyph-name="l" unicode="l" horiz-adv-x="378" 
d="M143 0v1290h93v-1290h-93z" />
    <glyph glyph-name="m" unicode="m" horiz-adv-x="1474" 
d="M143 0v901h62l31 -133h10q18 35 55 72q79 71 180 71q131 0 215 -92q39 -43 62 -92q24 52 61 92q84 92 215 92q134 0 220.5 -97t86.5 -261v-553h-92v553q0 120 -65 193t-160 73q-102 0 -169 -72.5t-67 -193.5v-553h-92v553q0 120 -65 193t-160 73q-102 0 -168.5 -72.5
t-66.5 -193.5v-553h-93z" />
    <glyph glyph-name="n" unicode="n" horiz-adv-x="1024" 
d="M143 0v901h62l31 -133h10q20 34 65 72q95 71 221 71q155 0 257 -106.5t102 -272.5v-532h-92v532q0 122 -80.5 204.5t-196.5 82.5q-123 0 -204.5 -82t-81.5 -205v-532h-93z" />
    <glyph glyph-name="o" unicode="o" horiz-adv-x="1003" 
d="M82 451q0 198 121 329t299 131t299 -131t121 -329t-121 -329.5t-299 -131.5t-299 131.5t-121 329.5zM829 451q0 157 -97 262.5t-230 105.5t-230.5 -105.5t-97.5 -262.5t97.5 -263t230.5 -106t230 106t97 263z" />
    <glyph glyph-name="p" unicode="p" horiz-adv-x="1054" 
d="M143 -328v1229h62l31 -153h10q27 41 76 81q102 82 231 82q178 0 299 -131t121 -329t-121 -329.5t-299 -131.5q-129 0 -231 82q-48 39 -76 82h-10v-482h-93zM553 82q133 0 230.5 106t97.5 263t-97.5 262.5t-230.5 105.5t-230.5 -105.5t-97.5 -262.5t97.5 -263t230.5 -106z
" />
    <glyph glyph-name="q" unicode="q" horiz-adv-x="1054" 
d="M819 -328v482h-10q-35 -48 -78 -82q-102 -82 -229 -82q-178 0 -299 131.5t-121 329.5t121 329t299 131q127 0 229 -82q45 -36 78 -81h10l31 153h61v-1229h-92zM502 82q133 0 230 106t97 263t-97 262.5t-230 105.5t-230.5 -105.5t-97.5 -262.5t97.5 -263t230.5 -106z" />
    <glyph glyph-name="r" unicode="r" horiz-adv-x="616" 
d="M143 0v901h62l31 -133h10q20 34 65 72q95 71 221 71h41v-92h-51q-131 0 -208.5 -79t-77.5 -218v-522h-93z" />
    <glyph glyph-name="s" unicode="s" horiz-adv-x="808" 
d="M92 266h92q37 -184 236 -184q96 0 155.5 51t59.5 123q0 50 -29 83.5t-75 50t-101.5 29t-111 27.5t-101.5 38.5t-75 69t-29 112.5q0 103 81 174t216 71q126 0 212.5 -76t94.5 -180h-92q-18 74 -72.5 119t-142.5 45q-96 0 -150.5 -44t-54.5 -109q0 -48 29 -79t75 -46.5
t101.5 -27t111 -27t101.5 -40t75 -72.5t29 -118q0 -109 -86.5 -187.5t-220.5 -78.5q-142 0 -231 78.5t-97 197.5z" />
    <glyph glyph-name="t" unicode="t" horiz-adv-x="634" 
d="M215 256v553h-174v92h82q102 0 102 103v163h82v-266h225v-92h-225v-553q0 -88 45 -131t119 -43q17 0 45 4l16 6v-82q-11 -7 -22 -10q-27 -10 -59 -10q-102 0 -169 72.5t-67 193.5z" />
    <glyph glyph-name="u" unicode="u" horiz-adv-x="1034" 
d="M143 369v532h93v-532q0 -122 80 -204.5t196 -82.5q123 0 205 82t82 205v532h92v-901h-62l-30 133h-11q-29 -44 -67 -72q-86 -71 -219 -71q-155 0 -257 106.5t-102 272.5z" />
    <glyph glyph-name="v" unicode="v" horiz-adv-x="880" 
d="M399 0l-368 901h102l307 -768l308 768h102l-369 -901h-82z" />
    <glyph glyph-name="w" unicode="w" horiz-adv-x="1228" 
d="M317 0l-297 901h93l235 -717l236 717h61l236 -717l235 717h92l-297 -901h-61l-236 717l-235 -717h-62z" />
    <glyph glyph-name="x" unicode="x" horiz-adv-x="819" 
d="M31 0l317 461l-297 440h113l246 -369l245 369h113l-297 -440l317 -461h-112l-266 389l-267 -389h-112z" />
    <glyph glyph-name="y" unicode="y" horiz-adv-x="880" 
d="M133 -328v82h41q60 0 95.5 32t68.5 112l51 122l-358 881h102l307 -768l308 768h102l-410 -1003q-48 -125 -104 -180.5t-141 -55.5q-15 0 -43 4z" />
    <glyph glyph-name="z" unicode="z" horiz-adv-x="757" 
d="M61 0v72l502 737h-502v92h625v-72l-502 -737h512v-92h-635z" />
    <glyph glyph-name="braceleft" unicode="{" horiz-adv-x="624" 
d="M256 -123v399q0 144 -143 144v82q143 0 143 143v399q0 117 64.5 181.5t181.5 64.5h71v-92h-71q-69 0 -111.5 -42.5t-42.5 -111.5v-399q0 -94 -67 -149q-30 -24 -66 -35q36 -11 66 -35q67 -55 67 -150v-399q0 -69 42.5 -111t111.5 -42h71v-93h-71q-117 0 -181.5 64.5
t-64.5 181.5z" />
    <glyph glyph-name="bar" unicode="|" horiz-adv-x="583" 
d="M246 -328v1618h92v-1618h-92z" />
    <glyph glyph-name="braceright" unicode="}" horiz-adv-x="624" 
d="M51 -369v93h72q69 0 111 42t42 111v399q0 96 66 150q31 24 68 35q-37 11 -68 35q-66 54 -66 149v399q0 69 -42 111.5t-111 42.5h-72v92h72q117 0 181.5 -64.5t64.5 -181.5v-399q0 -143 143 -143v-82q-143 0 -143 -144v-399q0 -117 -64.5 -181.5t-181.5 -64.5h-72z" />
    <glyph glyph-name="asciitilde" unicode="~" horiz-adv-x="901" 
d="M102 430h-82q0 120 60.5 188t155.5 68q55 0 118.5 -29t110.5 -63t100 -63t90 -29q63 0 103.5 44t40.5 120h82q0 -120 -60 -188t-155 -68q-55 0 -118.5 29t-110.5 63t-100.5 63t-90.5 29q-63 0 -103.5 -44t-40.5 -120z" />
    <glyph glyph-name="nbspace" unicode="&#xa0;" horiz-adv-x="430" 
 />
    <glyph glyph-name="exclamdown" unicode="&#xa1;" horiz-adv-x="491" 
d="M184 -328l11 922h92l20 -922h-123zM174 840q0 31 20.5 51t51.5 20t51 -20t20 -51t-20 -51.5t-51 -20.5t-51.5 20.5t-20.5 51.5z" />
    <glyph glyph-name="cent" unicode="&#xa2;" horiz-adv-x="962" 
d="M451 -195v185q-160 26 -264.5 150t-104.5 311t104.5 310.5t264.5 149.5v205h92v-205q130 -17 220 -98t128 -219h-103q-33 98 -107.5 161.5t-178.5 63.5q-133 0 -230.5 -105.5t-97.5 -262.5t97.5 -263t230.5 -106q104 0 178.5 63.5t107.5 161.5h103
q-38 -139 -127.5 -219.5t-220.5 -97.5v-185h-92z" />
    <glyph glyph-name="sterling" unicode="&#xa3;" horiz-adv-x="1054" 
d="M102 0v92q66 18 100 59t34 115v277h-123v92h123v297q0 154 106.5 261t261.5 107q154 0 257.5 -99.5t111.5 -248.5h-103q-8 108 -84 182t-182 74q-107 0 -186.5 -81t-79.5 -195v-297h369v-92h-369v-277q0 -70 -47 -133q-25 -28 -45 -41h717v-92h-861z" />
    <glyph glyph-name="currency" unicode="&#xa4;" horiz-adv-x="1105" 
d="M225 0v246h-174v92h174v194h-174v93h174v665h400q166 0 282.5 -112t116.5 -267t-116.5 -267t-282.5 -112h-297v-194h430v-92h-430v-246h-103zM328 625h297q122 0 209.5 85t87.5 201t-87.5 201.5t-209.5 85.5h-297v-573z" />
    <glyph glyph-name="yen" unicode="&#xa5;" horiz-adv-x="1024" 
d="M164 246v92h297v164h-297v92h256l-389 696h112l369 -676l369 676h112l-389 -696h256v-92h-297v-164h297v-92h-297v-246h-102v246h-297z" />
    <glyph glyph-name="brokenbar" unicode="&#xa6;" horiz-adv-x="583" 
d="M246 -328v635h92v-635h-92zM246 655v635h92v-635h-92z" />
    <glyph glyph-name="section" unicode="&#xa7;" horiz-adv-x="962" 
d="M164 41h92q17 -93 75 -144t150 -51q109 0 167.5 48.5t58.5 115.5q0 50 -34 86.5t-88 60t-119.5 45t-131.5 47t-120 58t-88 87.5t-34 128q0 130 133 226q62 46 133 71q-46 13 -92 47q-92 69 -92 178t85.5 182.5t221.5 73.5q127 0 208 -78.5t89 -197.5h-92q-17 86 -72 135
t-133 49q-103 0 -159 -48.5t-56 -115.5q0 -50 33.5 -86.5t86.5 -60t117.5 -45t129 -47t117.5 -58t86.5 -87.5t33.5 -128q0 -125 -129 -225q-60 -45 -129 -71q46 -13 93 -48q94 -70 94 -178q0 -111 -86.5 -183.5t-231.5 -72.5q-143 0 -226 79.5t-91 207.5zM522 276
q75 29 127 64q129 88 129 192q0 80 -76.5 140t-250.5 106q-79 -28 -134 -63q-133 -84 -133 -193q0 -81 80 -142t258 -104z" />
    <glyph glyph-name="dieresis" unicode="&#xa8;" horiz-adv-x="573" 
d="M369 1188q0 31 20 51.5t51 20.5t51.5 -20.5t20.5 -51.5t-20.5 -51.5t-51.5 -20.5t-51 20.5t-20 51.5zM61 1188q0 31 20.5 51.5t51.5 20.5t51.5 -20.5t20.5 -51.5t-20.5 -51.5t-51.5 -20.5t-51.5 20.5t-20.5 51.5z" />
    <glyph glyph-name="copyright" unicode="&#xa9;" horiz-adv-x="1454" 
d="M922 532h92q-25 -97 -100.5 -161t-186.5 -64q-125 0 -216 97t-91 241t91 241t216 97q111 0 186.5 -64t100.5 -161h-92q-50 133 -195 133q-88 0 -151.5 -71t-63.5 -175t63.5 -175t151.5 -71q145 0 195 133zM727 82q151 0 275 71.5t196 201t72 290.5t-72 290.5t-196 201
t-275 71.5t-275 -71.5t-196 -201t-72 -290.5t72 -290.5t196 -201t275 -71.5zM727 -10q-173 0 -318.5 86t-231 237t-85.5 332t85.5 332t231 237t318.5 86t318.5 -86t231 -237t85.5 -332t-85.5 -332t-231 -237t-318.5 -86z" />
    <glyph glyph-name="ordfeminine" unicode="&#xaa;" horiz-adv-x="573" 
d="M420 1004v10q-106 0 -167.5 -13t-80 -32t-18.5 -47q0 -35 27.5 -58.5t84.5 -23.5q62 0 108 48t46 116zM440 778l-20 72q-14 -20 -39 -41q-48 -41 -125 -41q-81 0 -132.5 43t-51.5 100q0 56 26 90t104 56.5t218 27.5v21q0 54 -34.5 88.5t-88.5 34.5q-52 0 -83.5 -25.5
t-39.5 -66.5h-82q6 71 60.5 117t144.5 46q92 0 148.5 -54t56.5 -140v-328h-62z" />
    <glyph glyph-name="guillemotleft" unicode="&#xab;" horiz-adv-x="798" 
d="M297 143l-225 318l225 317h102l-225 -317l225 -318h-102zM625 143l-226 318l226 317h102l-225 -317l225 -318h-102z" />
    <glyph glyph-name="logicalnot" unicode="&#xac;" horiz-adv-x="890" 
d="M41 666v92h809v-369h-92v277h-717z" />
    <glyph glyph-name="uni00AD" unicode="&#xad;" horiz-adv-x="696" 
d="M72 481v92h553v-92h-553z" />
    <glyph glyph-name="registered" unicode="&#xae;" horiz-adv-x="1454" 
d="M522 317v656h236q97 0 156 -57t59 -138q0 -95 -82 -149q-46 -26 -82 -35l184 -277h-102l-174 267h-113v-267h-82zM604 666h154q54 0 88.5 32t34.5 80t-35 80.5t-88 32.5h-154v-225zM727 82q151 0 275 71.5t196 201t72 290.5t-72 290.5t-196 201t-275 71.5t-275 -71.5
t-196 -201t-72 -290.5t72 -290.5t196 -201t275 -71.5zM727 -10q-173 0 -318.5 86t-231 237t-85.5 332t85.5 332t231 237t318.5 86t318.5 -86t231 -237t85.5 -332t-85.5 -332t-231 -237t-318.5 -86z" />
    <glyph glyph-name="overscore" unicode="&#xaf;" horiz-adv-x="604" 
d="M61 1116v92h482v-92h-482z" />
    <glyph glyph-name="degree" unicode="&#xb0;" horiz-adv-x="634" 
d="M154 1055q0 -69 47 -116.5t116 -47.5t116.5 47.5t47.5 116.5t-47.5 116.5t-116.5 47.5t-116 -47.5t-47 -116.5zM317 1300q100 0 173 -72.5t73 -172.5t-73 -173t-173 -73t-172.5 73t-72.5 173t72.5 172.5t172.5 72.5z" />
    <glyph glyph-name="plusminus" unicode="&#xb1;" horiz-adv-x="890" 
d="M61 82v92h338v389h-338v92h338v349h93v-349h337v-92h-337v-389h337v-92h-768z" />
    <glyph glyph-name="twosuperior" unicode="&#xb2;" horiz-adv-x="522" 
d="M61 881v61l236 246q26 30 35 43q37 51 37 80q0 47 -28 74.5t-75 27.5q-97 0 -112 -113h-82q8 87 58.5 136t135.5 49t135 -47.5t50 -126.5q0 -54 -41 -109q-12 -16 -41 -45l-195 -205h277v-71h-390z" />
    <glyph glyph-name="threesuperior" unicode="&#xb3;" horiz-adv-x="542" 
d="M61 1055h82q0 -48 35 -80.5t88 -32.5t88 32.5t35 80.5q0 40 -35.5 71t-87.5 31h-51v72h51q46 0 74.5 26.5t28.5 65.5t-28.5 65.5t-74.5 26.5q-48 0 -75 -29.5t-27 -83.5h-82q0 86 49 135.5t135 49.5q84 0 134.5 -46.5t50.5 -117.5q0 -58 -48 -96q-30 -21 -45 -27
q31 -9 56 -31q57 -42 57 -123q0 -71 -57.5 -122.5t-147.5 -51.5q-91 0 -148 53t-57 132z" />
    <glyph glyph-name="acute" unicode="&#xb4;" horiz-adv-x="368" 
d="M61 1044l123 246h123l-174 -246h-72z" />
    <glyph glyph-name="mu" unicode="&#xb5;" horiz-adv-x="1034" 
d="M143 -328v1229h93v-532q0 -122 80 -204.5t196 -82.5q123 0 205 82t82 205v532h92v-901h-62l-30 133h-11q-29 -44 -67 -72q-86 -71 -219 -71q-108 0 -193 65q-34 24 -63 68h-10v-451h-93z" />
    <glyph glyph-name="paragraph" unicode="&#xb6;" horiz-adv-x="952" 
d="M389 -184v901q-130 0 -213.5 81.5t-83.5 205.5t83.5 205t213.5 81h399v-1474h-92v1382h-215v-1382h-92z" />
    <glyph glyph-name="middot" unicode="&#xb7;" horiz-adv-x="430" 
d="M143 645q0 31 20.5 51.5t51.5 20.5t51.5 -20.5t20.5 -51.5t-20.5 -51.5t-51.5 -20.5t-51.5 20.5t-20.5 51.5z" />
    <glyph glyph-name="cedilla" unicode="&#xb8;" horiz-adv-x="378" 
d="M61 -338v72l21 -6q28 -4 51 -4q52 0 77.5 19.5t25.5 51.5q0 25 -24 43.5t-69 18.5q-9 0 -37 -7l-14 -4l62 154h71l-41 -82q61 -7 97 -41t36 -82q0 -64 -45 -103.5t-129 -39.5q-31 0 -59 4z" />
    <glyph glyph-name="onesuperior" unicode="&#xb9;" horiz-adv-x="409" 
d="M195 881v491l-103 -72l-41 72l164 103h61v-594h-81z" />
    <glyph glyph-name="ordmasculine" unicode="&#xba;" horiz-adv-x="634" 
d="M492 1034q0 84 -52 139.5t-123 55.5t-122.5 -55.5t-51.5 -139.5t51.5 -139t122.5 -55t123 55t52 139zM61 1034q0 115 74 190.5t182 75.5t182 -75.5t74 -190.5t-74 -190.5t-182 -75.5t-182 75.5t-74 190.5z" />
    <glyph glyph-name="guillemotright" unicode="&#xbb;" horiz-adv-x="798" 
d="M399 143l226 318l-226 317h103l225 -317l-225 -318h-103zM72 143l225 318l-225 317h102l225 -317l-225 -318h-102z" />
    <glyph glyph-name="onequarter" unicode="&#xbc;" horiz-adv-x="1075" 
d="M61 0l789 1290h102l-788 -1290h-103zM195 696v492l-103 -72l-41 72l164 102h61v-594h-81zM584 123v61l256 410h92v-399h82v-72h-82v-123h-82v123h-266zM666 195h184v286z" />
    <glyph glyph-name="onehalf" unicode="&#xbd;" horiz-adv-x="1146" 
d="M61 0l789 1290h102l-788 -1290h-103zM195 696v492l-103 -72l-41 72l164 102h61v-594h-81zM666 0v61l235 246q26 30 35 43q37 51 37 80q0 47 -28 74.5t-75 27.5q-97 0 -112 -112h-82q8 87 58 135.5t136 48.5q85 0 135 -47.5t50 -126.5q0 -53 -41 -108q-15 -20 -41 -46
l-195 -204h277v-72h-389z" />
    <glyph glyph-name="threequarters" unicode="&#xbe;" horiz-adv-x="1187" 
d="M195 0l788 1290h102l-788 -1290h-102zM82 870h82q0 -48 34.5 -80t88.5 -32t88.5 32t34.5 80q0 40 -35.5 71.5t-87.5 31.5h-51v71h51q46 0 74 27t28 66t-28 65.5t-74 26.5q-48 0 -75.5 -30t-27.5 -83h-82q0 86 49.5 135t135.5 49q84 0 134 -46t50 -117q0 -60 -47 -97
q-27 -19 -45 -26q30 -9 55 -31q58 -43 58 -123q0 -71 -57.5 -122.5t-147.5 -51.5q-91 0 -148 52.5t-57 131.5zM696 123v61l256 410h92v-399h82v-72h-82v-123h-81v123h-267zM778 195h185v286z" />
    <glyph glyph-name="questiondown" unicode="&#xbf;" horiz-adv-x="870" 
d="M686 41v31h102v-31q0 -166 -101.5 -272.5t-256.5 -106.5q-150 0 -249 90.5t-99 216.5q0 58 17.5 105t45.5 79.5t61.5 62t67.5 61t62 67t45.5 89.5t17.5 120v20h103v-20q0 -75 -17.5 -135.5t-45.5 -99.5t-62 -72t-68 -60.5t-62 -56.5t-45.5 -69.5t-17.5 -90.5
q0 -88 71 -151.5t175 -63.5q109 0 182.5 79.5t73.5 207.5zM389 840q0 31 20.5 51t51.5 20t51 -20t20 -51t-20 -51.5t-51 -20.5t-51.5 20.5t-20.5 51.5z" />
    <glyph glyph-name="Agrave" unicode="&#xc0;" horiz-adv-x="1085" 
d="M0 0l502 1290h82l501 -1290h-112l-133 348h-594l-133 -348h-113zM276 440h533l-266 686zM502 1434l-174 245h123l122 -245h-71z" />
    <glyph glyph-name="Aacute" unicode="&#xc1;" horiz-adv-x="1085" 
d="M0 0l502 1290h82l501 -1290h-112l-133 348h-594l-133 -348h-113zM276 440h533l-266 686zM512 1434l123 245h123l-174 -245h-72z" />
    <glyph glyph-name="Acircumflex" unicode="&#xc2;" horiz-adv-x="1085" 
d="M0 0l502 1290h82l501 -1290h-112l-133 348h-594l-133 -348h-113zM276 440h533l-266 686zM307 1434l195 235h82l194 -235h-102l-133 163l-133 -163h-103z" />
    <glyph glyph-name="Atilde" unicode="&#xc3;" horiz-adv-x="1085" 
d="M0 0l502 1290h82l501 -1290h-112l-133 348h-594l-133 -348h-113zM276 440h533l-266 686zM348 1434h-72q0 96 44.5 150t109.5 54q35 0 70.5 -21t59.5 -45.5t53 -45.5t53 -21q33 0 57.5 31t24.5 82h71q0 -96 -44 -150.5t-109 -54.5q-35 0 -70.5 21t-59.5 45.5t-53 45.5
t-53 21q-33 0 -57.5 -30.5t-24.5 -81.5z" />
    <glyph glyph-name="Adieresis" unicode="&#xc4;" horiz-adv-x="1085" 
d="M0 0l502 1290h82l501 -1290h-112l-133 348h-594l-133 -348h-113zM276 440h533l-266 686zM625 1546q0 31 20 51.5t51 20.5t51.5 -20.5t20.5 -51.5t-20.5 -51t-51.5 -20t-51 20t-20 51zM317 1546q0 31 20.5 51.5t51.5 20.5t51.5 -20.5t20.5 -51.5t-20.5 -51t-51.5 -20
t-51.5 20t-20.5 51z" />
    <glyph glyph-name="Aring" unicode="&#xc5;" horiz-adv-x="1085" 
d="M0 0l502 1290h82l501 -1290h-112l-133 348h-594l-133 -348h-113zM276 440h533l-266 686zM379 1556q0 69 47.5 116.5t116.5 47.5t116.5 -47.5t47.5 -116.5t-47.5 -116t-116.5 -47t-116.5 47t-47.5 116zM451 1556q0 -38 27 -65t65 -27t65 27t27 65t-27 65.5t-65 27.5
t-65 -27.5t-27 -65.5z" />
    <glyph glyph-name="AE" unicode="&#xc6;" horiz-adv-x="1597" 
d="M-51 0l727 1290h799v-92h-615v-481h563v-92h-563v-533h635v-92h-737v348h-502l-195 -348h-112zM307 440h451v758h-21z" />
    <glyph glyph-name="Ccedilla" unicode="&#xc7;" horiz-adv-x="1290" 
d="M543 -338v72l20 -6q28 -4 51 -4q52 0 77.5 19.5t25.5 51.5q0 25 -24 43.5t-68 18.5q-9 0 -37 -7l-15 -4l58 146q-108 12 -205 63t-172 133t-118.5 200.5t-43.5 256.5q0 141 48.5 265t129 208.5t186.5 133t220 48.5q193 0 329.5 -120.5t192.5 -319.5h-102
q-49 160 -156.5 254t-263.5 94q-96 0 -183.5 -41.5t-153.5 -113.5t-105 -178.5t-39 -229.5t39 -229.5t105 -178.5t153.5 -113.5t183.5 -41.5q155 0 264 93.5t166 254.5h102q-62 -195 -191.5 -311.5t-316.5 -126.5l-34 -74q61 -7 97 -41t36 -82q0 -64 -45 -103.5t-129 -39.5
q-32 0 -60 4z" />
    <glyph glyph-name="Egrave" unicode="&#xc8;" horiz-adv-x="1075" 
d="M174 0v1290h778v-92h-676v-481h625v-92h-625v-533h697v-92h-799zM553 1434l-174 245h123l123 -245h-72z" />
    <glyph glyph-name="Eacute" unicode="&#xc9;" horiz-adv-x="1075" 
d="M174 0v1290h778v-92h-676v-481h625v-92h-625v-533h697v-92h-799zM522 1434l123 245h123l-174 -245h-72z" />
    <glyph glyph-name="Ecircumflex" unicode="&#xca;" horiz-adv-x="1075" 
d="M174 0v1290h778v-92h-676v-481h625v-92h-625v-533h697v-92h-799zM338 1434l194 235h82l195 -235h-102l-134 163l-133 -163h-102z" />
    <glyph glyph-name="Edieresis" unicode="&#xcb;" horiz-adv-x="1075" 
d="M174 0v1290h778v-92h-676v-481h625v-92h-625v-533h697v-92h-799zM655 1546q0 31 20.5 51.5t51.5 20.5t51.5 -20.5t20.5 -51.5t-20.5 -51t-51.5 -20t-51.5 20t-20.5 51zM348 1546q0 31 20.5 51.5t51.5 20.5t51.5 -20.5t20.5 -51.5t-20.5 -51t-51.5 -20t-51.5 20t-20.5 51z
" />
    <glyph glyph-name="Igrave" unicode="&#xcc;" horiz-adv-x="450" 
d="M174 0v1290h102v-1290h-102zM195 1434l-175 245h123l123 -245h-71z" />
    <glyph glyph-name="Iacute" unicode="&#xcd;" horiz-adv-x="450" 
d="M174 0v1290h102v-1290h-102zM195 1434l122 245h123l-174 -245h-71z" />
    <glyph glyph-name="Icircumflex" unicode="&#xce;" horiz-adv-x="450" 
d="M174 0v1290h102v-1290h-102zM-10 1434l194 235h82l195 -235h-103l-133 163l-133 -163h-102z" />
    <glyph glyph-name="Idieresis" unicode="&#xcf;" horiz-adv-x="450" 
d="M174 0v1290h102v-1290h-102zM307 1546q0 31 20.5 51.5t51.5 20.5t51.5 -20.5t20.5 -51.5t-20.5 -51t-51.5 -20t-51.5 20t-20.5 51zM0 1546q0 31 20.5 51.5t51.5 20.5t51 -20.5t20 -51.5t-20 -51t-51 -20t-51.5 20t-20.5 51z" />
    <glyph glyph-name="Eth" unicode="&#xd0;" horiz-adv-x="1208" 
d="M184 0v594h-143v92h143v604h308q129 0 244 -48t198.5 -132t132.5 -205t49 -260t-49 -260t-132.5 -205t-198.5 -132t-244 -48h-308zM287 92h205q147 0 266 69t187.5 196t68.5 288t-68.5 288t-187.5 196t-266 69h-205v-512h307v-92h-307v-502z" />
    <glyph glyph-name="Ntilde" unicode="&#xd1;" horiz-adv-x="1249" 
d="M174 0v1290h92l707 -1095v1095h102v-1290h-92l-707 1096v-1096h-102zM440 1434h-71q0 96 44 150t109 54q35 0 70.5 -21t59.5 -45.5t53 -45.5t53 -21q33 0 57.5 31t24.5 82h71q0 -96 -44 -150.5t-109 -54.5q-35 0 -70.5 21t-59.5 45.5t-53 45.5t-53 21q-33 0 -57.5 -30.5
t-24.5 -81.5z" />
    <glyph glyph-name="Ograve" unicode="&#xd2;" horiz-adv-x="1351" 
d="M676 -10q-114 0 -220 48.5t-186.5 133t-129 208.5t-48.5 265t48.5 265t129 208.5t186.5 133t220 48.5t220 -48.5t186.5 -133t129 -208.5t48.5 -265t-48.5 -265t-129 -208.5t-186.5 -133t-220 -48.5zM676 82q96 0 183.5 41.5t153.5 113.5t105 178.5t39 229.5t-39 229.5
t-105 178.5t-153.5 113.5t-183.5 41.5t-183.5 -41.5t-153.5 -113.5t-105 -178.5t-39 -229.5t39 -229.5t105 -178.5t153.5 -113.5t183.5 -41.5zM645 1434l-174 245h123l123 -245h-72z" />
    <glyph glyph-name="Oacute" unicode="&#xd3;" horiz-adv-x="1351" 
d="M676 -10q-114 0 -220 48.5t-186.5 133t-129 208.5t-48.5 265t48.5 265t129 208.5t186.5 133t220 48.5t220 -48.5t186.5 -133t129 -208.5t48.5 -265t-48.5 -265t-129 -208.5t-186.5 -133t-220 -48.5zM676 82q96 0 183.5 41.5t153.5 113.5t105 178.5t39 229.5t-39 229.5
t-105 178.5t-153.5 113.5t-183.5 41.5t-183.5 -41.5t-153.5 -113.5t-105 -178.5t-39 -229.5t39 -229.5t105 -178.5t153.5 -113.5t183.5 -41.5zM655 1434l123 245h123l-174 -245h-72z" />
    <glyph glyph-name="Ocircumflex" unicode="&#xd4;" horiz-adv-x="1351" 
d="M676 -10q-114 0 -220 48.5t-186.5 133t-129 208.5t-48.5 265t48.5 265t129 208.5t186.5 133t220 48.5t220 -48.5t186.5 -133t129 -208.5t48.5 -265t-48.5 -265t-129 -208.5t-186.5 -133t-220 -48.5zM676 82q96 0 183.5 41.5t153.5 113.5t105 178.5t39 229.5t-39 229.5
t-105 178.5t-153.5 113.5t-183.5 41.5t-183.5 -41.5t-153.5 -113.5t-105 -178.5t-39 -229.5t39 -229.5t105 -178.5t153.5 -113.5t183.5 -41.5zM440 1434l195 235h82l194 -235h-102l-133 163l-133 -163h-103z" />
    <glyph glyph-name="Otilde" unicode="&#xd5;" horiz-adv-x="1351" 
d="M676 -10q-114 0 -220 48.5t-186.5 133t-129 208.5t-48.5 265t48.5 265t129 208.5t186.5 133t220 48.5t220 -48.5t186.5 -133t129 -208.5t48.5 -265t-48.5 -265t-129 -208.5t-186.5 -133t-220 -48.5zM676 82q96 0 183.5 41.5t153.5 113.5t105 178.5t39 229.5t-39 229.5
t-105 178.5t-153.5 113.5t-183.5 41.5t-183.5 -41.5t-153.5 -113.5t-105 -178.5t-39 -229.5t39 -229.5t105 -178.5t153.5 -113.5t183.5 -41.5zM481 1434h-71q0 96 44 150t109 54q35 0 70.5 -21t59.5 -45.5t53 -45.5t53 -21q33 0 57.5 31t24.5 82h71q0 -96 -44 -150.5
t-109 -54.5q-35 0 -70.5 21t-59.5 45.5t-53 45.5t-53 21q-33 0 -57.5 -30.5t-24.5 -81.5z" />
    <glyph glyph-name="Odieresis" unicode="&#xd6;" horiz-adv-x="1351" 
d="M676 -10q-114 0 -220 48.5t-186.5 133t-129 208.5t-48.5 265t48.5 265t129 208.5t186.5 133t220 48.5t220 -48.5t186.5 -133t129 -208.5t48.5 -265t-48.5 -265t-129 -208.5t-186.5 -133t-220 -48.5zM676 82q96 0 183.5 41.5t153.5 113.5t105 178.5t39 229.5t-39 229.5
t-105 178.5t-153.5 113.5t-183.5 41.5t-183.5 -41.5t-153.5 -113.5t-105 -178.5t-39 -229.5t39 -229.5t105 -178.5t153.5 -113.5t183.5 -41.5zM758 1546q0 31 20 51.5t51 20.5t51.5 -20.5t20.5 -51.5t-20.5 -51t-51.5 -20t-51 20t-20 51zM451 1546q0 31 20 51.5t51 20.5
t51.5 -20.5t20.5 -51.5t-20.5 -51t-51.5 -20t-51 20t-20 51z" />
    <glyph glyph-name="multiply" unicode="&#xd7;" horiz-adv-x="880" 
d="M123 266l256 256l-256 256l72 62l245 -256l246 256l72 -62l-256 -256l256 -256l-72 -61l-246 256l-245 -256z" />
    <glyph glyph-name="Oslash" unicode="&#xd8;" horiz-adv-x="1351" 
d="M61 113l144 143q-113 163 -113 389q0 141 48.5 265t129 208.5t186.5 133t220 48.5q239 0 420 -194l133 133l61 -61l-143 -144q113 -163 113 -389q0 -141 -48.5 -265t-129 -208.5t-186.5 -133t-220 -48.5q-116 0 -224.5 50.5t-195.5 143.5l-133 -133zM1075 963l-747 -707
q139 -174 348 -174q96 0 183.5 41.5t153.5 113.5t105 178.5t39 229.5q0 170 -82 318zM276 328l748 706q-60 83 -153 128.5t-195 45.5q-96 0 -183.5 -41.5t-153.5 -113.5t-105 -178.5t-39 -229.5q0 -187 81 -317z" />
    <glyph glyph-name="Ugrave" unicode="&#xd9;" horiz-adv-x="1228" 
d="M154 481v809h102v-809q0 -189 97 -294t261 -105t261.5 105t97.5 294v809h102v-809q0 -227 -125 -359t-336 -132q-210 0 -335 132t-125 359zM604 1434l-174 245h123l123 -245h-72z" />
    <glyph glyph-name="Uacute" unicode="&#xda;" horiz-adv-x="1228" 
d="M154 481v809h102v-809q0 -189 97 -294t261 -105t261.5 105t97.5 294v809h102v-809q0 -227 -125 -359t-336 -132q-210 0 -335 132t-125 359zM573 1434l123 245h123l-174 -245h-72z" />
    <glyph glyph-name="Ucircumflex" unicode="&#xdb;" horiz-adv-x="1228" 
d="M154 481v809h102v-809q0 -189 97 -294t261 -105t261.5 105t97.5 294v809h102v-809q0 -227 -125 -359t-336 -132q-210 0 -335 132t-125 359zM379 1434l194 235h82l195 -235h-102l-134 163l-133 -163h-102z" />
    <glyph glyph-name="Udieresis" unicode="&#xdc;" horiz-adv-x="1228" 
d="M154 481v809h102v-809q0 -189 97 -294t261 -105t261.5 105t97.5 294v809h102v-809q0 -227 -125 -359t-336 -132q-210 0 -335 132t-125 359zM696 1546q0 31 20.5 51.5t51.5 20.5t51.5 -20.5t20.5 -51.5t-20.5 -51t-51.5 -20t-51.5 20t-20.5 51zM389 1546q0 31 20.5 51.5
t51.5 20.5t51 -20.5t20 -51.5t-20 -51t-51 -20t-51.5 20t-20.5 51z" />
    <glyph glyph-name="Yacute" unicode="&#xdd;" horiz-adv-x="1024" 
d="M461 0v512l-430 778h112l369 -676l369 676h112l-430 -778v-512h-102zM481 1434l123 245h123l-174 -245h-72z" />
    <glyph glyph-name="Thorn" unicode="&#xde;" horiz-adv-x="1157" 
d="M174 0v1290h102v-235h400q166 0 282.5 -112t116.5 -267t-116.5 -267t-282.5 -112h-400v-297h-102zM276 389h400q122 0 209.5 85.5t87.5 201.5t-87.5 201.5t-209.5 85.5h-400v-574z" />
    <glyph glyph-name="germandbls" unicode="&#xdf;" horiz-adv-x="1024" 
d="M143 0v932q0 159 102.5 263.5t256.5 104.5q148 0 248 -100t100 -248q0 -115 -88 -211q-34 -37 -86 -65q76 -22 133 -64q133 -99 133 -264q0 -148 -100 -248t-248 -100h-113v92h113q107 0 181.5 74.5t74.5 181.5t-74.5 181.5t-181.5 74.5h-92v92q106 0 181 77.5t75 178.5
t-75 178.5t-181 77.5q-116 0 -191 -77t-75 -199v-932h-93z" />
    <glyph glyph-name="agrave" unicode="&#xe0;" horiz-adv-x="931" 
d="M707 369v82h-113q-410 0 -410 -205q0 -66 62.5 -115t173.5 -49q130 0 208.5 78t78.5 209zM737 0l-30 133h-11q-29 -44 -67 -72q-86 -71 -219 -71q-149 0 -233.5 72t-84.5 184q0 134 120.5 215.5t381.5 81.5h113v51q0 101 -64 163t-172 62q-191 0 -246 -164h-92
q18 107 108.5 181.5t229.5 74.5q147 0 237.5 -88.5t90.5 -228.5v-594h-62zM451 1065l-175 246h123l123 -246h-71z" />
    <glyph glyph-name="aacute" unicode="&#xe1;" horiz-adv-x="931" 
d="M707 369v82h-113q-410 0 -410 -205q0 -66 62.5 -115t173.5 -49q130 0 208.5 78t78.5 209zM737 0l-30 133h-11q-29 -44 -67 -72q-86 -71 -219 -71q-149 0 -233.5 72t-84.5 184q0 134 120.5 215.5t381.5 81.5h113v51q0 101 -64 163t-172 62q-191 0 -246 -164h-92
q18 107 108.5 181.5t229.5 74.5q147 0 237.5 -88.5t90.5 -228.5v-594h-62zM440 1065l123 246h123l-174 -246h-72z" />
    <glyph glyph-name="acircumflex" unicode="&#xe2;" horiz-adv-x="931" 
d="M707 369v82h-113q-410 0 -410 -205q0 -66 62.5 -115t173.5 -49q130 0 208.5 78t78.5 209zM737 0l-30 133h-11q-29 -44 -67 -72q-86 -71 -219 -71q-149 0 -233.5 72t-84.5 184q0 134 120.5 215.5t381.5 81.5h113v51q0 101 -64 163t-172 62q-191 0 -246 -164h-92
q18 107 108.5 181.5t229.5 74.5q147 0 237.5 -88.5t90.5 -228.5v-594h-62zM248 1065l194 235h82l195 -235h-103l-133 164l-133 -164h-102z" />
    <glyph glyph-name="atilde" unicode="&#xe3;" horiz-adv-x="931" 
d="M707 369v82h-113q-410 0 -410 -205q0 -66 62.5 -115t173.5 -49q130 0 208.5 78t78.5 209zM737 0l-30 133h-11q-29 -44 -67 -72q-86 -71 -219 -71q-149 0 -233.5 72t-84.5 184q0 134 120.5 215.5t381.5 81.5h113v51q0 101 -64 163t-172 62q-191 0 -246 -164h-92
q18 107 108.5 181.5t229.5 74.5q147 0 237.5 -88.5t90.5 -228.5v-594h-62zM287 1065h-72q0 96 44.5 150.5t109.5 54.5q35 0 70.5 -21t59.5 -45.5t52.5 -45.5t52.5 -21q33 0 57.5 30.5t24.5 81.5h72q0 -96 -44.5 -150.5t-109.5 -54.5q-35 0 -70.5 21t-59.5 46t-52.5 46
t-52.5 21q-33 0 -57.5 -31t-24.5 -82z" />
    <glyph glyph-name="adieresis" unicode="&#xe4;" horiz-adv-x="931" 
d="M707 369v82h-113q-410 0 -410 -205q0 -66 62.5 -115t173.5 -49q130 0 208.5 78t78.5 209zM737 0l-30 133h-11q-29 -44 -67 -72q-86 -71 -219 -71q-149 0 -233.5 72t-84.5 184q0 134 120.5 215.5t381.5 81.5h113v51q0 101 -64 163t-172 62q-191 0 -246 -164h-92
q18 107 108.5 181.5t229.5 74.5q147 0 237.5 -88.5t90.5 -228.5v-594h-62zM573 1178q0 31 20.5 51t51.5 20t51.5 -20t20.5 -51t-20.5 -51.5t-51.5 -20.5t-51.5 20.5t-20.5 51.5zM266 1178q0 31 20.5 51t51.5 20t51.5 -20t20.5 -51t-20.5 -51.5t-51.5 -20.5t-51.5 20.5
t-20.5 51.5z" />
    <glyph glyph-name="aring" unicode="&#xe5;" horiz-adv-x="931" 
d="M707 369v82h-113q-410 0 -410 -205q0 -66 62.5 -115t173.5 -49q130 0 208.5 78t78.5 209zM737 0l-30 133h-11q-29 -44 -67 -72q-86 -71 -219 -71q-149 0 -233.5 72t-84.5 184q0 134 120.5 215.5t381.5 81.5h113v51q0 101 -64 163t-172 62q-191 0 -246 -164h-92
q18 107 108.5 181.5t229.5 74.5q147 0 237.5 -88.5t90.5 -228.5v-594h-62zM328 1188q0 69 47.5 116.5t116.5 47.5t116 -47.5t47 -116.5t-47 -116.5t-116 -47.5t-116.5 47.5t-47.5 116.5zM399 1188q0 -38 27.5 -65t65.5 -27t65 27t27 65t-27 65t-65 27t-65.5 -27t-27.5 -65z
" />
    <glyph glyph-name="ae" unicode="&#xe6;" horiz-adv-x="1546" 
d="M225 655h-92q18 107 108.5 181.5t229.5 74.5q141 0 227 -98q40 -47 60 -96q28 49 78 96q110 98 239 98q170 0 279.5 -113t109.5 -296q0 -9 -6 -51l-4 -21h-666q17 -167 97 -257.5t200 -90.5q155 0 236 143h113q-40 -102 -130 -168.5t-219 -66.5q-158 0 -264 106
q-45 45 -73 109q-27 -61 -78 -109q-106 -106 -271 -106q-147 0 -227 70t-80 176q0 286 502 286h102v72q0 100 -62.5 162.5t-162.5 62.5q-191 0 -246 -164zM788 522h584q-17 140 -95.5 218.5t-201.5 78.5q-109 0 -186.5 -79t-100.5 -218zM696 369v61h-102
q-115 0 -197.5 -15.5t-127.5 -43.5t-65 -61t-20 -74q0 -66 55.5 -110t159.5 -44q138 0 217.5 77.5t79.5 209.5z" />
    <glyph glyph-name="ccedilla" unicode="&#xe7;" horiz-adv-x="962" 
d="M399 -338v72l21 -6q28 -4 51 -4q52 0 77 19t25 52q0 25 -24 43.5t-68 18.5q-9 0 -37 -7l-14 -4l57 144q-176 8 -290.5 135.5t-114.5 325.5t121 329t299 131q149 0 249 -86t140 -231h-103q-33 98 -107.5 161.5t-178.5 63.5q-133 0 -230.5 -105.5t-97.5 -262.5t97.5 -263
t230.5 -106q104 0 178.5 63.5t107.5 161.5h103q-38 -139 -125 -220t-209 -95l-35 -74q61 -7 97 -41t36 -82q0 -64 -45 -103.5t-129 -39.5q-31 0 -59 4z" />
    <glyph glyph-name="egrave" unicode="&#xe8;" horiz-adv-x="993" 
d="M768 225h113q-41 -97 -137 -166t-232 -69q-185 0 -307.5 131t-122.5 330q0 198 121 329t299 131q169 0 289 -123.5t120 -306.5q0 -9 -6 -51l-4 -20h-727q17 -149 108.5 -238.5t229.5 -89.5q151 0 256 143zM174 502h645q-17 140 -105.5 228.5t-211.5 88.5
q-122 0 -212.5 -88.5t-115.5 -228.5zM471 1065l-174 246h123l123 -246h-72z" />
    <glyph glyph-name="eacute" unicode="&#xe9;" horiz-adv-x="993" 
d="M768 225h113q-41 -97 -137 -166t-232 -69q-185 0 -307.5 131t-122.5 330q0 198 121 329t299 131q169 0 289 -123.5t120 -306.5q0 -9 -6 -51l-4 -20h-727q17 -149 108.5 -238.5t229.5 -89.5q151 0 256 143zM174 502h645q-17 140 -105.5 228.5t-211.5 88.5
q-122 0 -212.5 -88.5t-115.5 -228.5zM471 1065l123 246h123l-174 -246h-72z" />
    <glyph glyph-name="ecircumflex" unicode="&#xea;" horiz-adv-x="993" 
d="M768 225h113q-41 -97 -137 -166t-232 -69q-185 0 -307.5 131t-122.5 330q0 198 121 329t299 131q169 0 289 -123.5t120 -306.5q0 -9 -6 -51l-4 -20h-727q17 -149 108.5 -238.5t229.5 -89.5q151 0 256 143zM174 502h645q-17 140 -105.5 228.5t-211.5 88.5
q-122 0 -212.5 -88.5t-115.5 -228.5zM266 1065l195 235h82l194 -235h-102l-133 164l-133 -164h-103z" />
    <glyph glyph-name="edieresis" unicode="&#xeb;" horiz-adv-x="993" 
d="M768 225h113q-41 -97 -137 -166t-232 -69q-185 0 -307.5 131t-122.5 330q0 198 121 329t299 131q169 0 289 -123.5t120 -306.5q0 -9 -6 -51l-4 -20h-727q17 -149 108.5 -238.5t229.5 -89.5q151 0 256 143zM174 502h645q-17 140 -105.5 228.5t-211.5 88.5
q-122 0 -212.5 -88.5t-115.5 -228.5zM584 1178q0 31 20 51t51 20t51.5 -20t20.5 -51t-20.5 -51.5t-51.5 -20.5t-51 20.5t-20 51.5zM276 1178q0 31 20.5 51t51.5 20t51.5 -20t20.5 -51t-20.5 -51.5t-51.5 -20.5t-51.5 20.5t-20.5 51.5z" />
    <glyph glyph-name="igrave" unicode="&#xec;" horiz-adv-x="378" 
d="M143 0v901h93v-901h-93zM154 1065l-174 246h122l123 -246h-71z" />
    <glyph glyph-name="iacute" unicode="&#xed;" horiz-adv-x="378" 
d="M143 0v901h93v-901h-93zM164 1065l123 246h123l-174 -246h-72z" />
    <glyph glyph-name="icircumflex" unicode="&#xee;" horiz-adv-x="378" 
d="M143 0v901h93v-901h-93zM-41 1065l195 235h82l194 -235h-102l-133 164l-134 -164h-102z" />
    <glyph glyph-name="idieresis" unicode="&#xef;" horiz-adv-x="378" 
d="M143 0v901h93v-901h-93zM276 1178q0 31 20.5 51t51.5 20t51.5 -20t20.5 -51t-20.5 -51.5t-51.5 -20.5t-51.5 20.5t-20.5 51.5zM-31 1178q0 31 20.5 51t51.5 20t51.5 -20t20.5 -51t-20.5 -51.5t-51.5 -20.5t-51.5 20.5t-20.5 51.5z" />
    <glyph glyph-name="eth" unicode="&#xf0;" horiz-adv-x="1013" 
d="M410 1004l-52 71l174 123q-57 40 -167 90l-89 33l31 72q23 -7 103 -39q123 -52 194 -105q32 23 92 68.5t72 54.5l51 -72q-21 -14 -68 -49t-75 -53q72 -69 123 -168q123 -225 123 -528q0 -246 -115 -379t-305 -133q-178 0 -299 125t-121 315q0 189 120 314.5t290 125.5
q147 0 247 -88q44 -38 70 -86h10q-29 198 -123 340q-45 67 -92 111zM502 82q140 0 233.5 98t93.5 250t-93.5 250t-233.5 98t-234 -98t-94 -250t94 -250t234 -98z" />
    <glyph glyph-name="ntilde" unicode="&#xf1;" horiz-adv-x="1024" 
d="M143 0v901h62l31 -133h10q20 34 65 72q95 71 221 71q155 0 257 -106.5t102 -272.5v-532h-92v532q0 122 -80.5 204.5t-196.5 82.5q-123 0 -204.5 -82t-81.5 -205v-532h-93zM324 1065h-72q0 96 44.5 150.5t109.5 54.5q35 0 70.5 -21t59.5 -45.5t52.5 -45.5t52.5 -21
q33 0 57.5 30.5t24.5 81.5h72q0 -96 -44.5 -150.5t-109.5 -54.5q-35 0 -70.5 21t-59.5 46t-52.5 46t-52.5 21q-33 0 -57.5 -31t-24.5 -82z" />
    <glyph glyph-name="ograve" unicode="&#xf2;" horiz-adv-x="1003" 
d="M82 451q0 198 121 329t299 131t299 -131t121 -329t-121 -329.5t-299 -131.5t-299 131.5t-121 329.5zM829 451q0 157 -97 262.5t-230 105.5t-230.5 -105.5t-97.5 -262.5t97.5 -263t230.5 -106t230 106t97 263zM471 1065l-174 246h123l123 -246h-72z" />
    <glyph glyph-name="oacute" unicode="&#xf3;" horiz-adv-x="1003" 
d="M82 451q0 198 121 329t299 131t299 -131t121 -329t-121 -329.5t-299 -131.5t-299 131.5t-121 329.5zM829 451q0 157 -97 262.5t-230 105.5t-230.5 -105.5t-97.5 -262.5t97.5 -263t230.5 -106t230 106t97 263zM481 1065l123 246h123l-174 -246h-72z" />
    <glyph glyph-name="ocircumflex" unicode="&#xf4;" horiz-adv-x="1003" 
d="M82 451q0 198 121 329t299 131t299 -131t121 -329t-121 -329.5t-299 -131.5t-299 131.5t-121 329.5zM829 451q0 157 -97 262.5t-230 105.5t-230.5 -105.5t-97.5 -262.5t97.5 -263t230.5 -106t230 106t97 263zM266 1065l195 235h82l194 -235h-102l-133 164l-133 -164h-103
z" />
    <glyph glyph-name="otilde" unicode="&#xf5;" horiz-adv-x="1003" 
d="M82 451q0 198 121 329t299 131t299 -131t121 -329t-121 -329.5t-299 -131.5t-299 131.5t-121 329.5zM829 451q0 157 -97 262.5t-230 105.5t-230.5 -105.5t-97.5 -262.5t97.5 -263t230.5 -106t230 106t97 263zM317 1065h-71q0 96 44 150.5t109 54.5q35 0 70.5 -21
t59.5 -45.5t53 -45.5t53 -21q33 0 57.5 30.5t24.5 81.5h71q0 -96 -44 -150.5t-109 -54.5q-35 0 -70.5 21t-59.5 46t-53 46t-53 21q-33 0 -57.5 -31t-24.5 -82z" />
    <glyph glyph-name="odieresis" unicode="&#xf6;" horiz-adv-x="1003" 
d="M82 451q0 198 121 329t299 131t299 -131t121 -329t-121 -329.5t-299 -131.5t-299 131.5t-121 329.5zM829 451q0 157 -97 262.5t-230 105.5t-230.5 -105.5t-97.5 -262.5t97.5 -263t230.5 -106t230 106t97 263zM584 1178q0 31 20 51t51 20t51.5 -20t20.5 -51t-20.5 -51.5
t-51.5 -20.5t-51 20.5t-20 51.5zM276 1178q0 31 20.5 51t51.5 20t51.5 -20t20.5 -51t-20.5 -51.5t-51.5 -20.5t-51.5 20.5t-20.5 51.5z" />
    <glyph glyph-name="divide" unicode="&#xf7;" horiz-adv-x="890" 
d="M72 481v92h747v-92h-747zM369 870q0 31 20 51.5t51 20.5t51.5 -20.5t20.5 -51.5t-20.5 -51t-51.5 -20t-51 20t-20 51zM369 184q0 31 20 51.5t51 20.5t51.5 -20.5t20.5 -51.5t-20.5 -51t-51.5 -20t-51 20t-20 51z" />
    <glyph glyph-name="oslash" unicode="&#xf8;" horiz-adv-x="1003" 
d="M51 72l113 102q-82 116 -82 277q0 198 121 329t299 131q163 0 286 -123l103 103l61 -62l-112 -102q82 -116 82 -276q0 -198 -121 -329.5t-299 -131.5q-164 0 -287 123l-102 -103zM778 655l-502 -481q20 -23 60 -47q76 -45 166 -45q133 0 230 106t97 263q0 75 -26 147
q-8 26 -25 57zM225 246l502 481q-23 23 -59 45q-80 47 -166 47q-133 0 -230.5 -105.5t-97.5 -262.5q0 -87 25 -150q8 -29 26 -55z" />
    <glyph glyph-name="ugrave" unicode="&#xf9;" horiz-adv-x="1034" 
d="M143 369v532h93v-532q0 -122 80 -204.5t196 -82.5q123 0 205 82t82 205v532h92v-901h-62l-30 133h-11q-29 -44 -67 -72q-86 -71 -219 -71q-155 0 -257 106.5t-102 272.5zM502 1065l-174 246h123l122 -246h-71z" />
    <glyph glyph-name="uacute" unicode="&#xfa;" horiz-adv-x="1034" 
d="M143 369v532h93v-532q0 -122 80 -204.5t196 -82.5q123 0 205 82t82 205v532h92v-901h-62l-30 133h-11q-29 -44 -67 -72q-86 -71 -219 -71q-155 0 -257 106.5t-102 272.5zM481 1065l123 246h123l-174 -246h-72z" />
    <glyph glyph-name="ucircumflex" unicode="&#xfb;" horiz-adv-x="1034" 
d="M143 369v532h93v-532q0 -122 80 -204.5t196 -82.5q123 0 205 82t82 205v532h92v-901h-62l-30 133h-11q-29 -44 -67 -72q-86 -71 -219 -71q-155 0 -257 106.5t-102 272.5zM287 1065l194 235h82l195 -235h-103l-133 164l-133 -164h-102z" />
    <glyph glyph-name="udieresis" unicode="&#xfc;" horiz-adv-x="1034" 
d="M143 369v532h93v-532q0 -122 80 -204.5t196 -82.5q123 0 205 82t82 205v532h92v-901h-62l-30 133h-11q-29 -44 -67 -72q-86 -71 -219 -71q-155 0 -257 106.5t-102 272.5zM604 1178q0 31 20.5 51t51.5 20t51.5 -20t20.5 -51t-20.5 -51.5t-51.5 -20.5t-51.5 20.5
t-20.5 51.5zM297 1178q0 31 20.5 51t51.5 20t51 -20t20 -51t-20 -51.5t-51 -20.5t-51.5 20.5t-20.5 51.5z" />
    <glyph glyph-name="yacute" unicode="&#xfd;" horiz-adv-x="880" 
d="M133 -328v82h41q60 0 95.5 32t68.5 112l51 122l-358 881h102l307 -768l308 768h102l-410 -1003q-48 -125 -104 -180.5t-141 -55.5q-15 0 -43 4zM410 1065l122 246h123l-174 -246h-71z" />
    <glyph glyph-name="thorn" unicode="&#xfe;" horiz-adv-x="1054" 
d="M143 -328v1618h93v-542h10q27 41 76 81q102 82 231 82q178 0 299 -131t121 -329t-121 -329.5t-299 -131.5q-129 0 -231 82q-48 39 -76 82h-10v-482h-93zM553 82q133 0 230.5 106t97.5 263t-97.5 262.5t-230.5 105.5t-230.5 -105.5t-97.5 -262.5t97.5 -263t230.5 -106z
" />
    <glyph glyph-name="ydieresis" unicode="&#xff;" horiz-adv-x="880" 
d="M133 -328v82h41q60 0 95.5 32t68.5 112l51 122l-358 881h102l307 -768l308 768h102l-410 -1003q-48 -125 -104 -180.5t-141 -55.5q-15 0 -43 4zM522 1178q0 31 20.5 51t51.5 20t51.5 -20t20.5 -51t-20.5 -51.5t-51.5 -20.5t-51.5 20.5t-20.5 51.5zM215 1178q0 31 20.5 51
t51.5 20t51 -20t20 -51t-20 -51.5t-51 -20.5t-51.5 20.5t-20.5 51.5z" />
    <glyph glyph-name="Amacron" unicode="&#x100;" horiz-adv-x="1085" 
d="M0 0l502 1290h82l501 -1290h-112l-133 348h-594l-133 -348h-113zM276 440h533l-266 686zM307 1434v92h481v-92h-481z" />
    <glyph glyph-name="amacron" unicode="&#x101;" horiz-adv-x="931" 
d="M707 369v82h-113q-410 0 -410 -205q0 -66 62.5 -115t173.5 -49q130 0 208.5 78t78.5 209zM737 0l-30 133h-11q-29 -44 -67 -72q-86 -71 -219 -71q-149 0 -233.5 72t-84.5 184q0 134 120.5 215.5t381.5 81.5h113v51q0 101 -64 163t-172 62q-191 0 -246 -164h-92
q18 107 108.5 181.5t229.5 74.5q147 0 237.5 -88.5t90.5 -228.5v-594h-62zM246 1075v92h481v-92h-481z" />
    <glyph glyph-name="Abreve" unicode="&#x102;" horiz-adv-x="1085" 
d="M0 0l502 1290h82l501 -1290h-112l-133 348h-594l-133 -348h-113zM276 440h533l-266 686zM317 1638h82q8 -57 46.5 -95t97.5 -38t97 38t46 95h82q-8 -93 -70.5 -154t-154.5 -61t-155 61t-71 154z" />
    <glyph glyph-name="abreve" unicode="&#x103;" horiz-adv-x="931" 
d="M707 369v82h-113q-410 0 -410 -205q0 -66 62.5 -115t173.5 -49q130 0 208.5 78t78.5 209zM737 0l-30 133h-11q-29 -44 -67 -72q-86 -71 -219 -71q-149 0 -233.5 72t-84.5 184q0 134 120.5 215.5t381.5 81.5h113v51q0 101 -64 163t-172 62q-191 0 -246 -164h-92
q18 107 108.5 181.5t229.5 74.5q147 0 237.5 -88.5t90.5 -228.5v-594h-62zM256 1270h82q8 -57 46 -95t97 -38t97.5 38t46.5 95h82q-8 -93 -71 -154t-155 -61t-154.5 61t-70.5 154z" />
    <glyph glyph-name="Aogonek" unicode="&#x104;" horiz-adv-x="1085" 
d="M0 0l502 1290h82l501 -1290h-41q-20 -22 -40 -53q-41 -59 -41 -121q0 -39 28 -65.5t74 -26.5q23 0 51 4l21 6v-72l-21 -6q-28 -4 -51 -4q-84 0 -134 46.5t-50 117.5q0 56 45 121q28 36 47 53l-133 348h-594l-133 -348h-113zM276 440h533l-266 686z" />
    <glyph glyph-name="aogonek" unicode="&#x105;" horiz-adv-x="931" 
d="M891 -256v-72l-21 -6q-28 -4 -51 -4q-84 0 -134 46.5t-50 117.5q0 61 51 127q14 20 51 57l-30 123h-11q-29 -44 -67 -72q-86 -71 -219 -71q-149 0 -233.5 72t-84.5 184q0 134 120.5 215.5t381.5 81.5h113v51q0 101 -64 163t-172 62q-191 0 -246 -164h-92
q18 107 108.5 181.5t229.5 74.5q147 0 237.5 -88.5t90.5 -228.5v-594q-24 -27 -41 -53q-41 -59 -41 -121q0 -39 28 -65.5t74 -26.5q23 0 51 4zM707 369v82h-113q-410 0 -410 -205q0 -66 62.5 -115t173.5 -49q130 0 208.5 78t78.5 209z" />
    <glyph glyph-name="Cacute" unicode="&#x106;" horiz-adv-x="1290" 
d="M1106 430h102q-64 -201 -201 -320.5t-331 -119.5q-114 0 -220 48.5t-186.5 133t-129 208.5t-48.5 265t48.5 265t129 208.5t186.5 133t220 48.5q193 0 329.5 -120.5t192.5 -319.5h-102q-49 160 -156.5 254t-263.5 94q-96 0 -183.5 -41.5t-153.5 -113.5t-105 -178.5
t-39 -229.5t39 -229.5t105 -178.5t153.5 -113.5t183.5 -41.5q155 0 264 93.5t166 254.5zM635 1434l123 245h123l-174 -245h-72z" />
    <glyph glyph-name="cacute" unicode="&#x107;" horiz-adv-x="962" 
d="M788 307h103q-40 -145 -140 -231t-249 -86q-178 0 -299 131.5t-121 329.5t121 329t299 131q149 0 249 -86t140 -231h-103q-33 98 -107.5 161.5t-178.5 63.5q-133 0 -230.5 -105.5t-97.5 -262.5t97.5 -263t230.5 -106q104 0 178.5 63.5t107.5 161.5zM461 1065l123 246h123
l-175 -246h-71z" />
    <glyph glyph-name="Ccircumflex" unicode="&#x108;" horiz-adv-x="1290" 
d="M1106 430h102q-64 -201 -201 -320.5t-331 -119.5q-114 0 -220 48.5t-186.5 133t-129 208.5t-48.5 265t48.5 265t129 208.5t186.5 133t220 48.5q193 0 329.5 -120.5t192.5 -319.5h-102q-49 160 -156.5 254t-263.5 94q-96 0 -183.5 -41.5t-153.5 -113.5t-105 -178.5
t-39 -229.5t39 -229.5t105 -178.5t153.5 -113.5t183.5 -41.5q155 0 264 93.5t166 254.5zM451 1434l194 235h82l195 -235h-103l-133 163l-133 -163h-102z" />
    <glyph glyph-name="ccircumflex" unicode="&#x109;" horiz-adv-x="962" 
d="M788 307h103q-40 -145 -140 -231t-249 -86q-178 0 -299 131.5t-121 329.5t121 329t299 131q149 0 249 -86t140 -231h-103q-33 98 -107.5 161.5t-178.5 63.5q-133 0 -230.5 -105.5t-97.5 -262.5t97.5 -263t230.5 -106q104 0 178.5 63.5t107.5 161.5zM266 1065l195 235h82
l194 -235h-102l-133 164l-133 -164h-103z" />
    <glyph glyph-name="Cdotaccent" unicode="&#x10a;" horiz-adv-x="1290" 
d="M1106 430h102q-64 -201 -201 -320.5t-331 -119.5q-114 0 -220 48.5t-186.5 133t-129 208.5t-48.5 265t48.5 265t129 208.5t186.5 133t220 48.5q193 0 329.5 -120.5t192.5 -319.5h-102q-49 160 -156.5 254t-263.5 94q-96 0 -183.5 -41.5t-153.5 -113.5t-105 -178.5
t-39 -229.5t39 -229.5t105 -178.5t153.5 -113.5t183.5 -41.5q155 0 264 93.5t166 254.5zM614 1546q0 31 20.5 51.5t51.5 20.5t51.5 -20.5t20.5 -51.5t-20.5 -51t-51.5 -20t-51.5 20t-20.5 51z" />
    <glyph glyph-name="cdotaccent" unicode="&#x10b;" horiz-adv-x="962" 
d="M788 307h103q-40 -145 -140 -231t-249 -86q-178 0 -299 131.5t-121 329.5t121 329t299 131q149 0 249 -86t140 -231h-103q-33 98 -107.5 161.5t-178.5 63.5q-133 0 -230.5 -105.5t-97.5 -262.5t97.5 -263t230.5 -106q104 0 178.5 63.5t107.5 161.5zM430 1178
q0 31 20.5 51t51.5 20t51 -20t20 -51t-20 -51.5t-51 -20.5t-51.5 20.5t-20.5 51.5z" />
    <glyph glyph-name="Ccaron" unicode="&#x10c;" horiz-adv-x="1290" 
d="M1106 430h102q-64 -201 -201 -320.5t-331 -119.5q-114 0 -220 48.5t-186.5 133t-129 208.5t-48.5 265t48.5 265t129 208.5t186.5 133t220 48.5q193 0 329.5 -120.5t192.5 -319.5h-102q-49 160 -156.5 254t-263.5 94q-96 0 -183.5 -41.5t-153.5 -113.5t-105 -178.5
t-39 -229.5t39 -229.5t105 -178.5t153.5 -113.5t183.5 -41.5q155 0 264 93.5t166 254.5zM625 1434l-195 235h102l134 -164l133 164h102l-194 -235h-82z" />
    <glyph glyph-name="ccaron" unicode="&#x10d;" horiz-adv-x="962" 
d="M788 307h103q-40 -145 -140 -231t-249 -86q-178 0 -299 131.5t-121 329.5t121 329t299 131q149 0 249 -86t140 -231h-103q-33 98 -107.5 161.5t-178.5 63.5q-133 0 -230.5 -105.5t-97.5 -262.5t97.5 -263t230.5 -106q104 0 178.5 63.5t107.5 161.5zM461 1065l-195 235
h103l133 -163l133 163h102l-194 -235h-82z" />
    <glyph glyph-name="Dcaron" unicode="&#x10e;" horiz-adv-x="1198" 
d="M276 92h205q110 0 206.5 40.5t166.5 112.5t110 175.5t40 224.5t-40 224.5t-110 175.5t-166.5 112.5t-206.5 40.5h-205v-1106zM174 0v1290h307q173 0 315.5 -81.5t226 -229.5t83.5 -334t-83.5 -334t-226 -229.5t-315.5 -81.5h-307zM543 1434l-195 235h103l133 -164
l133 164h102l-194 -235h-82z" />
    <glyph glyph-name="dcaron" unicode="&#x10f;" horiz-adv-x="1146" 
d="M1044 1044l72 246h123l-123 -246h-72zM850 0l-31 154h-10q-35 -48 -78 -82q-102 -82 -229 -82q-178 0 -299 131.5t-121 329.5t121 329t299 131q127 0 229 -82q45 -36 78 -81h10v542h92v-1290h-61zM502 82q133 0 230 106t97 263t-97 262.5t-230 105.5t-230.5 -105.5
t-97.5 -262.5t97.5 -263t230.5 -106z" />
    <glyph glyph-name="Dcroat" unicode="&#x110;" horiz-adv-x="1208" 
d="M184 0v594h-143v92h143v604h308q129 0 244 -48t198.5 -132t132.5 -205t49 -260t-49 -260t-132.5 -205t-198.5 -132t-244 -48h-308zM287 92h205q147 0 266 69t187.5 196t68.5 288t-68.5 288t-187.5 196t-266 69h-205v-512h307v-92h-307v-502z" />
    <glyph glyph-name="dslash" unicode="&#x111;" horiz-adv-x="1095" 
d="M850 0l-31 154h-10q-35 -48 -78 -82q-102 -82 -229 -82q-177 0 -298.5 121.5t-121.5 298.5t121.5 298t298.5 121q128 0 229 -81q43 -34 78 -82h10v338h-297v92h297v194h92v-194h164v-92h-164v-1004h-61zM174 410q0 -138 95 -233t233 -95t232.5 95t94.5 233t-94.5 232.5
t-232.5 94.5t-233 -94.5t-95 -232.5z" />
    <glyph glyph-name="Emacron" unicode="&#x112;" horiz-adv-x="1075" 
d="M174 0v1290h778v-92h-676v-481h625v-92h-625v-533h697v-92h-799zM328 1434v92h481v-92h-481z" />
    <glyph glyph-name="emacron" unicode="&#x113;" horiz-adv-x="993" 
d="M768 225h113q-41 -97 -137 -166t-232 -69q-185 0 -307.5 131t-122.5 330q0 198 121 329t299 131q169 0 289 -123.5t120 -306.5q0 -9 -6 -51l-4 -20h-727q17 -149 108.5 -238.5t229.5 -89.5q151 0 256 143zM174 502h645q-17 140 -105.5 228.5t-211.5 88.5
q-122 0 -212.5 -88.5t-115.5 -228.5zM266 1075v92h482v-92h-482z" />
    <glyph glyph-name="Ebreve" unicode="&#x114;" horiz-adv-x="1075" 
d="M174 0v1290h778v-92h-676v-481h625v-92h-625v-533h697v-92h-799zM348 1649h82q8 -57 46 -95t97 -38t97.5 38t46.5 95h82q-8 -93 -71 -154t-155 -61t-154.5 61t-70.5 154z" />
    <glyph glyph-name="ebreve" unicode="&#x115;" horiz-adv-x="993" 
d="M768 225h113q-41 -97 -137 -166t-232 -69q-185 0 -307.5 131t-122.5 330q0 198 121 329t299 131q169 0 289 -123.5t120 -306.5q0 -9 -6 -51l-4 -20h-727q17 -149 108.5 -238.5t229.5 -89.5q151 0 256 143zM174 502h645q-17 140 -105.5 228.5t-211.5 88.5
q-122 0 -212.5 -88.5t-115.5 -228.5zM274 1280h82q8 -57 46.5 -95t97.5 -38t97 38t46 95h82q-8 -93 -70.5 -154t-154.5 -61t-155 61t-71 154z" />
    <glyph glyph-name="Edotaccent" unicode="&#x116;" horiz-adv-x="1075" 
d="M174 0v1290h778v-92h-676v-481h625v-92h-625v-533h697v-92h-799zM502 1546q0 31 20 51.5t51 20.5t51.5 -20.5t20.5 -51.5t-20.5 -51t-51.5 -20t-51 20t-20 51z" />
    <glyph glyph-name="edotaccent" unicode="&#x117;" horiz-adv-x="993" 
d="M768 225h113q-41 -97 -137 -166t-232 -69q-185 0 -307.5 131t-122.5 330q0 198 121 329t299 131q169 0 289 -123.5t120 -306.5q0 -9 -6 -51l-4 -20h-727q17 -149 108.5 -238.5t229.5 -89.5q151 0 256 143zM174 502h645q-17 140 -105.5 228.5t-211.5 88.5
q-122 0 -212.5 -88.5t-115.5 -228.5zM430 1178q0 31 20.5 51t51.5 20t51 -20t20 -51t-20 -51.5t-51 -20.5t-51.5 20.5t-20.5 51.5z" />
    <glyph glyph-name="Eogonek" unicode="&#x118;" horiz-adv-x="1075" 
d="M174 0v1290h778v-92h-676v-481h625v-92h-625v-533h697v-92q-24 -27 -41 -53q-41 -59 -41 -121q0 -39 28 -65.5t74 -26.5q23 0 51 4l21 6v-72l-21 -6q-28 -4 -51 -4q-84 0 -134 46.5t-50 117.5q0 56 45 121q28 36 47 53h-727z" />
    <glyph glyph-name="eogonek" unicode="&#x119;" horiz-adv-x="993" 
d="M666 -256v-72l-21 -6q-28 -4 -51 -4q-84 0 -134 46.5t-50 117.5q0 58 41 113q12 17 41 51q-179 8 -294.5 135t-115.5 326q0 198 121 329t299 131q169 0 289 -123.5t120 -306.5q0 -9 -6 -51l-4 -20h-727q17 -149 108.5 -238.5t229.5 -89.5q151 0 256 143h113
q-34 -83 -120.5 -151t-197.5 -84q-8 -9 -20 -25t-31.5 -59.5t-19.5 -79.5q0 -39 28 -65.5t74 -26.5q23 0 51 4zM174 502h645q-17 140 -105.5 228.5t-211.5 88.5q-122 0 -212.5 -88.5t-115.5 -228.5z" />
    <glyph glyph-name="Ecaron" unicode="&#x11a;" horiz-adv-x="1075" 
d="M174 0v1290h778v-92h-676v-481h625v-92h-625v-533h697v-92h-799zM532 1434l-194 235h102l133 -164l134 164h102l-195 -235h-82z" />
    <glyph glyph-name="ecaron" unicode="&#x11b;" horiz-adv-x="993" 
d="M768 225h113q-41 -97 -137 -166t-232 -69q-185 0 -307.5 131t-122.5 330q0 198 121 329t299 131q169 0 289 -123.5t120 -306.5q0 -9 -6 -51l-4 -20h-727q17 -149 108.5 -238.5t229.5 -89.5q151 0 256 143zM174 502h645q-17 140 -105.5 228.5t-211.5 88.5
q-122 0 -212.5 -88.5t-115.5 -228.5zM461 1065l-195 235h103l133 -163l133 163h102l-194 -235h-82z" />
    <glyph glyph-name="Gcircumflex" unicode="&#x11c;" horiz-adv-x="1361" 
d="M1137 0l-11 266q-41 -77 -106 -139q-141 -137 -344 -137q-114 0 -220 48.5t-186.5 133t-129 208.5t-48.5 265t48.5 265t129 208.5t186.5 133t220 48.5q97 0 183 -32t150 -87t110 -126.5t69 -153.5h-103q-39 131 -148 219t-261 88q-96 0 -183.5 -41.5t-153.5 -113.5
t-105 -178.5t-39 -229.5t39 -229.5t105 -178.5t153.5 -113.5t183.5 -41.5q116 0 217.5 60.5t162 164.5t60.5 225h-420v93h523v-625h-82zM451 1434l194 235h82l195 -235h-103l-133 163l-133 -163h-102z" />
    <glyph glyph-name="gcircumflex" unicode="&#x11d;" horiz-adv-x="1034" 
d="M123 -72h102q73 -184 287 -184q123 0 205 82t82 205v164h-11q-36 -48 -75 -82q-98 -82 -221 -82q-168 0 -289 128.5t-121 311.5t121 311.5t289 128.5q123 0 221 -82q41 -36 75 -81h11l30 153h62v-870q0 -161 -109 -270t-270 -109q-158 0 -258 76.5t-131 199.5zM492 123
q126 0 221.5 101.5t95.5 246.5t-95.5 246.5t-221.5 101.5t-222 -101.5t-96 -246.5t96 -246.5t222 -101.5zM287 1065l194 235h82l195 -235h-103l-133 164l-133 -164h-102z" />
    <glyph glyph-name="Gbreve" unicode="&#x11e;" horiz-adv-x="1361" 
d="M1137 0l-11 266q-41 -77 -106 -139q-141 -137 -344 -137q-114 0 -220 48.5t-186.5 133t-129 208.5t-48.5 265t48.5 265t129 208.5t186.5 133t220 48.5q97 0 183 -32t150 -87t110 -126.5t69 -153.5h-103q-39 131 -148 219t-261 88q-96 0 -183.5 -41.5t-153.5 -113.5
t-105 -178.5t-39 -229.5t39 -229.5t105 -178.5t153.5 -113.5t183.5 -41.5q116 0 217.5 60.5t162 164.5t60.5 225h-420v93h523v-625h-82zM451 1638h81q8 -57 46.5 -95t97.5 -38t97 38t46 95h82q-8 -93 -70.5 -154t-154.5 -61t-154.5 61t-70.5 154z" />
    <glyph glyph-name="gbreve" unicode="&#x11f;" horiz-adv-x="1034" 
d="M123 -72h102q73 -184 287 -184q123 0 205 82t82 205v164h-11q-36 -48 -75 -82q-98 -82 -221 -82q-168 0 -289 128.5t-121 311.5t121 311.5t289 128.5q123 0 221 -82q41 -36 75 -81h11l30 153h62v-870q0 -161 -109 -270t-270 -109q-158 0 -258 76.5t-131 199.5zM492 123
q126 0 221.5 101.5t95.5 246.5t-95.5 246.5t-221.5 101.5t-222 -101.5t-96 -246.5t96 -246.5t222 -101.5zM297 1270h82q8 -57 46 -95t97 -38t97.5 38t46.5 95h82q-8 -93 -71 -154t-155 -61t-154.5 61t-70.5 154z" />
    <glyph glyph-name="Gdotaccent" unicode="&#x120;" horiz-adv-x="1361" 
d="M1137 0l-11 266q-41 -77 -106 -139q-141 -137 -344 -137q-114 0 -220 48.5t-186.5 133t-129 208.5t-48.5 265t48.5 265t129 208.5t186.5 133t220 48.5q97 0 183 -32t150 -87t110 -126.5t69 -153.5h-103q-39 131 -148 219t-261 88q-96 0 -183.5 -41.5t-153.5 -113.5
t-105 -178.5t-39 -229.5t39 -229.5t105 -178.5t153.5 -113.5t183.5 -41.5q116 0 217.5 60.5t162 164.5t60.5 225h-420v93h523v-625h-82zM614 1546q0 31 20.5 51.5t51.5 20.5t51.5 -20.5t20.5 -51.5t-20.5 -51t-51.5 -20t-51.5 20t-20.5 51z" />
    <glyph glyph-name="gdotaccent" unicode="&#x121;" horiz-adv-x="1034" 
d="M123 -72h102q73 -184 287 -184q123 0 205 82t82 205v164h-11q-36 -48 -75 -82q-98 -82 -221 -82q-168 0 -289 128.5t-121 311.5t121 311.5t289 128.5q123 0 221 -82q41 -36 75 -81h11l30 153h62v-870q0 -161 -109 -270t-270 -109q-158 0 -258 76.5t-131 199.5zM492 123
q126 0 221.5 101.5t95.5 246.5t-95.5 246.5t-221.5 101.5t-222 -101.5t-96 -246.5t96 -246.5t222 -101.5zM451 1178q0 31 20 51t51 20t51.5 -20t20.5 -51t-20.5 -51.5t-51.5 -20.5t-51 20.5t-20 51.5z" />
    <glyph glyph-name="Gcommaaccent" unicode="&#x122;" horiz-adv-x="1361" 
d="M1137 0l-11 266q-41 -77 -106 -139q-141 -137 -344 -137q-114 0 -220 48.5t-186.5 133t-129 208.5t-48.5 265t48.5 265t129 208.5t186.5 133t220 48.5q97 0 183 -32t150 -87t110 -126.5t69 -153.5h-103q-39 131 -148 219t-261 88q-96 0 -183.5 -41.5t-153.5 -113.5
t-105 -178.5t-39 -229.5t39 -229.5t105 -178.5t153.5 -113.5t183.5 -41.5q116 0 217.5 60.5t162 164.5t60.5 225h-420v93h523v-625h-82zM625 -461l-21 21q20 17 37 41q38 52 45 102q-31 0 -51.5 20.5t-20.5 51.5t20.5 51t51.5 20t51.5 -22.5t20.5 -59.5q0 -81 -68 -161
q-31 -39 -65 -64z" />
    <glyph glyph-name="gcommaaccent" unicode="&#x123;" horiz-adv-x="1034" 
d="M584 1372l20 -20q-20 -17 -37 -41q-38 -58 -45 -103q31 0 51.5 -20t20.5 -51t-20.5 -51.5t-51.5 -20.5t-51 22t-20 60q0 85 65 162q29 37 68 63zM123 -72h102q73 -184 287 -184q123 0 205 82t82 205v164h-11q-36 -48 -75 -82q-98 -82 -221 -82q-168 0 -289 128.5
t-121 311.5t121 311.5t289 128.5q123 0 221 -82q41 -36 75 -81h11l30 153h62v-870q0 -161 -109 -270t-270 -109q-158 0 -258 76.5t-131 199.5zM492 123q126 0 221.5 101.5t95.5 246.5t-95.5 246.5t-221.5 101.5t-222 -101.5t-96 -246.5t96 -246.5t222 -101.5z" />
    <glyph glyph-name="Hcircumflex" unicode="&#x124;" horiz-adv-x="1249" 
d="M174 0v1290h102v-583h697v583h102v-1290h-102v614h-697v-614h-102zM389 1434l195 235h82l194 -235h-102l-133 163l-133 -163h-103z" />
    <glyph glyph-name="hcircumflex" unicode="&#x125;" horiz-adv-x="1024" 
d="M143 0v1290h93v-522h10q20 34 65 72q95 71 221 71q155 0 257 -106.5t102 -272.5v-532h-92v532q0 122 -80.5 204.5t-196.5 82.5q-123 0 -204.5 -82t-81.5 -205v-532h-93zM276 1434l195 235h82l195 -235h-103l-133 163l-133 -163h-103z" />
    <glyph glyph-name="Hbar" unicode="&#x126;" horiz-adv-x="1351" 
d="M236 0v963h-195v92h195v235h102v-235h696v235h103v-235h184v-92h-184v-963h-103v614h-696v-614h-102zM338 707h696v256h-696v-256z" />
    <glyph glyph-name="hbar" unicode="&#x127;" horiz-adv-x="1064" 
d="M184 0v1004h-164v92h164v194h92v-194h297v-92h-297v-318h11q20 34 65 72q95 71 221 71q155 0 257 -106t102 -272v-451h-92v451q0 122 -80.5 204t-196.5 82q-123 0 -205 -81.5t-82 -204.5v-451h-92z" />
    <glyph glyph-name="uni0128" unicode="&#x128;" horiz-adv-x="450" 
d="M174 0v1290h102v-1290h-102zM31 1434h-72q0 96 44.5 150t109.5 54q35 0 70.5 -21t59.5 -45.5t52.5 -45.5t52.5 -21q33 0 57.5 31t24.5 82h72q0 -96 -44.5 -150.5t-109.5 -54.5q-35 0 -70.5 21t-59.5 45.5t-52.5 45.5t-52.5 21q-33 0 -57.5 -30.5t-24.5 -81.5z" />
    <glyph glyph-name="uni0129" unicode="&#x129;" horiz-adv-x="378" 
d="M143 0v901h93v-901h-93zM-10 1065h-72q0 96 44.5 150.5t109.5 54.5q35 0 70.5 -21t59.5 -45.5t52.5 -45.5t52.5 -21q33 0 57.5 30.5t24.5 81.5h72q0 -96 -44.5 -150.5t-109.5 -54.5q-35 0 -70.5 21t-59.5 46t-52.5 46t-52.5 21q-33 0 -57.5 -31t-24.5 -82z" />
    <glyph glyph-name="Imacron" unicode="&#x12a;" horiz-adv-x="450" 
d="M174 0v1290h102v-1290h-102zM-10 1434v92h481v-92h-481z" />
    <glyph glyph-name="imacron" unicode="&#x12b;" horiz-adv-x="378" 
d="M143 0v901h93v-901h-93zM-41 1075v92h481v-92h-481z" />
    <glyph glyph-name="Ibreve" unicode="&#x12c;" horiz-adv-x="450" 
d="M174 0v1290h102v-1290h-102zM0 1649h82q8 -57 46 -95t97 -38t97.5 38t46.5 95h82q-8 -93 -71 -154t-155 -61t-154.5 61t-70.5 154z" />
    <glyph glyph-name="ibreve" unicode="&#x12d;" horiz-adv-x="378" 
d="M143 0v901h93v-901h-93zM-41 1280h82q8 -57 46 -95t97 -38t97.5 38t46.5 95h82q-8 -93 -71 -154t-155 -61t-154.5 61t-70.5 154z" />
    <glyph glyph-name="Iogonek" unicode="&#x12e;" horiz-adv-x="450" 
d="M338 -256v-72l-21 -6q-28 -4 -51 -4q-84 0 -134 46.5t-50 117.5q0 56 45 121q28 36 47 53v1290h102v-1290h-30q-24 -27 -41 -53q-41 -59 -41 -121q0 -39 28 -65.5t74 -26.5q23 0 51 4z" />
    <glyph glyph-name="iogonek" unicode="&#x12f;" horiz-adv-x="378" 
d="M307 -256v-72l-20 -6q-28 -4 -51 -4q-84 0 -134.5 46.5t-50.5 117.5q0 56 45 121q28 36 47 53v901h93v-901h-21q-24 -27 -41 -53q-41 -59 -41 -121q0 -39 28.5 -65.5t74.5 -26.5q23 0 51 4zM123 1188q0 31 20.5 51.5t51.5 20.5t51 -20.5t20 -51.5t-20 -51.5t-51 -20.5
t-51.5 20.5t-20.5 51.5z" />
    <glyph glyph-name="Idot" unicode="&#x130;" horiz-adv-x="450" 
d="M174 0v1290h102v-1290h-102zM154 1546q0 31 20 51.5t51 20.5t51.5 -20.5t20.5 -51.5t-20.5 -51t-51.5 -20t-51 20t-20 51z" />
    <glyph glyph-name="dotlessi" unicode="&#x131;" horiz-adv-x="378" 
d="M143 0v901h93v-901h-93z" />
    <glyph glyph-name="uni0132" unicode="&#x132;" horiz-adv-x="1361" 
d="M174 0v1290h102v-1290h-102zM440 338h103q8 -110 86.5 -183t199.5 -73q124 0 205.5 85t81.5 222v901h103v-901q0 -185 -105.5 -292t-284.5 -107q-174 0 -281.5 99t-107.5 249z" />
    <glyph glyph-name="uni0133" unicode="&#x133;" horiz-adv-x="870" 
d="M143 0v901h93v-901h-93zM123 1188q0 31 20.5 51.5t51.5 20.5t51 -20.5t20 -51.5t-20 -51.5t-51 -20.5t-51.5 20.5t-20.5 51.5zM389 -317v81l17 -6q28 -4 45 -4q79 0 121 44t42 130v973h93v-973q0 -121 -67 -193.5t-169 -72.5q-32 0 -59 10q-10 3 -23 11zM594 1188
q0 31 20.5 51.5t51.5 20.5t51 -20.5t20 -51.5t-20 -51.5t-51 -20.5t-51.5 20.5t-20.5 51.5z" />
    <glyph glyph-name="Jcircumflex" unicode="&#x134;" horiz-adv-x="962" 
d="M41 338h102q8 -110 87 -183t200 -73q124 0 205.5 85t81.5 222v901h102v-901q0 -185 -105 -292t-284 -107q-174 0 -281.5 99t-107.5 249zM522 1434l195 235h82l194 -235h-102l-133 163l-133 -163h-103z" />
    <glyph glyph-name="jcircumflex" unicode="&#x135;" horiz-adv-x="378" 
d="M-82 -317v81l16 -6q28 -4 46 -4q79 0 121 44t42 130v973h93v-973q0 -121 -67 -193.5t-169 -72.5q-32 0 -59 10q-10 3 -23 11zM-51 1044l194 236h82l195 -236h-103l-133 164l-133 -164h-102z" />
    <glyph glyph-name="Kcommaaccent" unicode="&#x136;" horiz-adv-x="1003" 
d="M174 0v1290h102v-635l553 635h134l-564 -635l605 -655h-134l-594 655v-655h-102zM471 -461l-20 21q17 15 36 41q38 52 45 102q-31 0 -51 20.5t-20 51.5t20 51t51 20t51.5 -22.5t20.5 -59.5q0 -82 -67 -161q-30 -38 -66 -64z" />
    <glyph glyph-name="kcommaaccent" unicode="&#x137;" horiz-adv-x="808" 
d="M143 0v1290h93v-819l409 430h123l-410 -430l451 -471h-123l-450 471v-471h-93zM379 -461l-21 21q20 17 37 41q38 52 45 102q-31 0 -51 20.5t-20 51.5t20 51t51 20t51.5 -22.5t20.5 -59.5q0 -81 -68 -161q-31 -39 -65 -64z" />
    <glyph glyph-name="Lacute" unicode="&#x139;" horiz-adv-x="952" 
d="M174 0v1290h102v-1198h646v-92h-748zM195 1434l122 245h123l-174 -245h-71z" />
    <glyph glyph-name="lacute" unicode="&#x13a;" horiz-adv-x="378" 
d="M143 0v1290h93v-1290h-93zM154 1434l122 245h123l-174 -245h-71z" />
    <glyph glyph-name="Lcommaaccent" unicode="&#x13b;" horiz-adv-x="952" 
d="M174 0v1290h102v-1198h646v-92h-748zM481 -461l-20 21q20 17 37 41q38 52 45 102q-31 0 -51.5 20.5t-20.5 51.5t20.5 51t51.5 20t51 -22t20 -60q0 -82 -67 -161q-30 -38 -66 -64z" />
    <glyph glyph-name="lcommaaccent" unicode="&#x13c;" horiz-adv-x="378" 
d="M143 0v1290h93v-1290h-93zM133 -461l-20 21q20 17 37 41q38 52 45 102q-31 0 -51.5 20.5t-20.5 51.5t20.5 51t51.5 20t51 -22t20 -60q0 -82 -67 -161q-30 -38 -66 -64z" />
    <glyph glyph-name="Lcaron" unicode="&#x13d;" horiz-adv-x="952" 
d="M430 1044l72 246h123l-123 -246h-72zM174 0v1290h102v-1198h646v-92h-748z" />
    <glyph glyph-name="lcaron" unicode="&#x13e;" horiz-adv-x="471" 
d="M369 1044l71 246h123l-123 -246h-71zM143 0v1290h93v-1290h-93z" />
    <glyph glyph-name="Ldot" unicode="&#x13f;" horiz-adv-x="952" 
d="M174 0v1290h102v-1198h646v-92h-748zM635 676q0 31 20.5 51.5t51.5 20.5t51 -20.5t20 -51.5t-20 -51.5t-51 -20.5t-51.5 20.5t-20.5 51.5z" />
    <glyph glyph-name="ldot" unicode="&#x140;" horiz-adv-x="716" 
d="M143 0v1290h93v-1290h-93zM492 635q0 31 20 51.5t51 20.5t51.5 -20.5t20.5 -51.5t-20.5 -51.5t-51.5 -20.5t-51 20.5t-20 51.5z" />
    <glyph glyph-name="Lslash" unicode="&#x141;" horiz-adv-x="952" 
d="M174 0v410l-123 -82v102l123 82v778h102v-706l359 235v-102l-359 -236v-389h646v-92h-748z" />
    <glyph glyph-name="lslash" unicode="&#x142;" horiz-adv-x="481" 
d="M195 0v553l-175 -113v92l175 113v645h92v-583l174 112v-92l-174 -113v-614h-92z" />
    <glyph glyph-name="Nacute" unicode="&#x143;" horiz-adv-x="1249" 
d="M174 0v1290h92l707 -1095v1095h102v-1290h-92l-707 1096v-1096h-102zM594 1434l123 245h123l-174 -245h-72z" />
    <glyph glyph-name="nacute" unicode="&#x144;" horiz-adv-x="1024" 
d="M143 0v901h62l31 -133h10q20 34 65 72q95 71 221 71q155 0 257 -106.5t102 -272.5v-532h-92v532q0 122 -80.5 204.5t-196.5 82.5q-123 0 -204.5 -82t-81.5 -205v-532h-93zM481 1065l123 246h123l-174 -246h-72z" />
    <glyph glyph-name="Ncommaaccent" unicode="&#x145;" horiz-adv-x="1249" 
d="M174 0v1290h92l707 -1095v1095h102v-1290h-92l-707 1096v-1096h-102zM553 -461l-21 21q20 17 37 41q38 52 45 102q-31 0 -51 20.5t-20 51.5t20 51t51 20t51.5 -22.5t20.5 -59.5q0 -81 -68 -161q-31 -39 -65 -64z" />
    <glyph glyph-name="ncommaaccent" unicode="&#x146;" horiz-adv-x="1024" 
d="M143 0v901h62l31 -133h10q20 34 65 72q95 71 221 71q155 0 257 -106.5t102 -272.5v-532h-92v532q0 122 -80.5 204.5t-196.5 82.5q-123 0 -204.5 -82t-81.5 -205v-532h-93zM461 -461l-21 21q20 17 37 41q38 52 45 102q-31 0 -51 20.5t-20 51.5t20 51t51 20t51.5 -22.5
t20.5 -59.5q0 -81 -68 -161q-31 -39 -65 -64z" />
    <glyph glyph-name="Ncaron" unicode="&#x147;" horiz-adv-x="1249" 
d="M174 0v1290h92l707 -1095v1095h102v-1290h-92l-707 1096v-1096h-102zM584 1434l-195 235h103l133 -164l133 164h102l-194 -235h-82z" />
    <glyph glyph-name="ncaron" unicode="&#x148;" horiz-adv-x="1024" 
d="M143 0v901h62l31 -133h10q20 34 65 72q95 71 221 71q155 0 257 -106.5t102 -272.5v-532h-92v532q0 122 -80.5 204.5t-196.5 82.5q-123 0 -204.5 -82t-81.5 -205v-532h-93zM471 1065l-195 235h103l133 -163l133 163h103l-195 -235h-82z" />
    <glyph glyph-name="napostrophe" unicode="&#x149;" horiz-adv-x="1105" 
d="M225 0v901h62l30 -133h11q20 34 65 72q95 71 221 71q155 0 257 -106.5t102 -272.5v-532h-92v532q0 122 -80.5 204.5t-196.5 82.5q-123 0 -205 -82t-82 -205v-532h-92zM31 901l-21 21q20 17 37 41q38 52 45 102q-31 0 -51.5 20.5t-20.5 51.5t20.5 51t51.5 20t51.5 -22.5
t20.5 -59.5q0 -81 -68 -161q-31 -39 -65 -64z" />
    <glyph glyph-name="Eng" unicode="&#x14a;" horiz-adv-x="1249" 
d="M174 0v1290h92l707 -1095v1095h102v-1413q0 -153 -95.5 -250.5t-242.5 -97.5q-145 0 -241.5 94.5t-96.5 233.5h103q0 -98 68.5 -167t166.5 -69q102 0 169 70.5t67 185.5v143l-697 1076v-1096h-102z" />
    <glyph glyph-name="eng" unicode="&#x14b;" horiz-adv-x="1024" 
d="M143 0v901h62l31 -133h10q20 34 65 72q95 71 221 71q155 0 257 -106.5t102 -272.5v-604q0 -121 -67 -193.5t-169 -72.5q-32 0 -59 10q-10 3 -23 11v81l17 -6q28 -4 45 -4q79 0 121.5 44.5t42.5 129.5v604q0 122 -80.5 204.5t-196.5 82.5q-123 0 -204.5 -82t-81.5 -205
v-532h-93z" />
    <glyph glyph-name="Omacron" unicode="&#x14c;" horiz-adv-x="1351" 
d="M676 -10q-114 0 -220 48.5t-186.5 133t-129 208.5t-48.5 265t48.5 265t129 208.5t186.5 133t220 48.5t220 -48.5t186.5 -133t129 -208.5t48.5 -265t-48.5 -265t-129 -208.5t-186.5 -133t-220 -48.5zM676 82q96 0 183.5 41.5t153.5 113.5t105 178.5t39 229.5t-39 229.5
t-105 178.5t-153.5 113.5t-183.5 41.5t-183.5 -41.5t-153.5 -113.5t-105 -178.5t-39 -229.5t39 -229.5t105 -178.5t153.5 -113.5t183.5 -41.5zM440 1434v92h482v-92h-482z" />
    <glyph glyph-name="omacron" unicode="&#x14d;" horiz-adv-x="1003" 
d="M82 451q0 198 121 329t299 131t299 -131t121 -329t-121 -329.5t-299 -131.5t-299 131.5t-121 329.5zM829 451q0 157 -97 262.5t-230 105.5t-230.5 -105.5t-97.5 -262.5t97.5 -263t230.5 -106t230 106t97 263zM266 1075v92h482v-92h-482z" />
    <glyph glyph-name="Obreve" unicode="&#x14e;" horiz-adv-x="1351" 
d="M676 -10q-114 0 -220 48.5t-186.5 133t-129 208.5t-48.5 265t48.5 265t129 208.5t186.5 133t220 48.5t220 -48.5t186.5 -133t129 -208.5t48.5 -265t-48.5 -265t-129 -208.5t-186.5 -133t-220 -48.5zM676 82q96 0 183.5 41.5t153.5 113.5t105 178.5t39 229.5t-39 229.5
t-105 178.5t-153.5 113.5t-183.5 41.5t-183.5 -41.5t-153.5 -113.5t-105 -178.5t-39 -229.5t39 -229.5t105 -178.5t153.5 -113.5t183.5 -41.5zM451 1649h81q8 -57 46.5 -95t97.5 -38t97 38t46 95h82q-8 -93 -70.5 -154t-154.5 -61t-154.5 61t-70.5 154z" />
    <glyph glyph-name="obreve" unicode="&#x14f;" horiz-adv-x="1003" 
d="M82 451q0 198 121 329t299 131t299 -131t121 -329t-121 -329.5t-299 -131.5t-299 131.5t-121 329.5zM829 451q0 157 -97 262.5t-230 105.5t-230.5 -105.5t-97.5 -262.5t97.5 -263t230.5 -106t230 106t97 263zM276 1280h82q8 -57 46.5 -95t97.5 -38t97 38t46 95h82
q-8 -93 -70.5 -154t-154.5 -61t-155 61t-71 154z" />
    <glyph glyph-name="Ohungarumlaut" unicode="&#x150;" horiz-adv-x="1351" 
d="M676 -10q-114 0 -220 48.5t-186.5 133t-129 208.5t-48.5 265t48.5 265t129 208.5t186.5 133t220 48.5t220 -48.5t186.5 -133t129 -208.5t48.5 -265t-48.5 -265t-129 -208.5t-186.5 -133t-220 -48.5zM676 82q96 0 183.5 41.5t153.5 113.5t105 178.5t39 229.5t-39 229.5
t-105 178.5t-153.5 113.5t-183.5 41.5t-183.5 -41.5t-153.5 -113.5t-105 -178.5t-39 -229.5t39 -229.5t105 -178.5t153.5 -113.5t183.5 -41.5zM532 1434l134 245h122l-184 -245h-72zM778 1434l133 245h123l-184 -245h-72z" />
    <glyph glyph-name="ohungarumlaut" unicode="&#x151;" horiz-adv-x="1003" 
d="M82 451q0 198 121 329t299 131t299 -131t121 -329t-121 -329.5t-299 -131.5t-299 131.5t-121 329.5zM829 451q0 157 -97 262.5t-230 105.5t-230.5 -105.5t-97.5 -262.5t97.5 -263t230.5 -106t230 106t97 263zM358 1065l134 246h122l-184 -246h-72zM604 1065l133 246h123
l-184 -246h-72z" />
    <glyph glyph-name="OE" unicode="&#x152;" horiz-adv-x="1699" 
d="M963 92h634v-92h-880q-130 0 -245 48t-199 132t-132.5 205t-48.5 260t48.5 260t132.5 205t199 132t245 48h860v-92h-614v-481h563v-92h-563v-533zM717 92h143v1106h-143q-147 0 -266 -69t-187.5 -196t-68.5 -288t68.5 -288t187.5 -196t266 -69z" />
    <glyph glyph-name="oe" unicode="&#x153;" horiz-adv-x="1638" 
d="M1413 225h113q-28 -67 -74 -119q-108 -116 -274 -116q-186 0 -301 154q-22 30 -48 81l-22 -41q-81 -127 -205 -173q-58 -21 -121 -21q-164 0 -281.5 132.5t-117.5 328.5t117.5 328t281.5 132q153 0 267 -118q43 -45 81 -117q30 63 80 117q110 118 258 118
q172 0 280.5 -116t108.5 -314q0 -9 -6 -51l-4 -20h-665q17 -152 98 -240t199 -88q106 0 178 72q37 32 57 71zM481 82q120 0 213.5 107t93.5 262t-93.5 261.5t-213.5 106.5t-213.5 -106.5t-93.5 -261.5t93.5 -262t213.5 -107zM881 502h583q-17 153 -95 235t-202 82
q-110 0 -186.5 -82.5t-99.5 -234.5z" />
    <glyph glyph-name="Racute" unicode="&#x154;" horiz-adv-x="1116" 
d="M174 0v1290h451q167 0 278 -106.5t111 -261.5q0 -192 -154 -295q-66 -46 -153 -64l327 -563h-123l-307 553h-328v-553h-102zM276 645h349q122 0 204 80.5t82 196.5t-82 196t-204 80h-349v-553zM522 1434l123 245h123l-174 -245h-72z" />
    <glyph glyph-name="racute" unicode="&#x155;" horiz-adv-x="614" 
d="M143 0v901h62l31 -133h10q20 34 65 72q95 71 221 71h41v-92h-51q-131 0 -208.5 -79t-77.5 -218v-522h-93zM317 1065l123 246h123l-174 -246h-72z" />
    <glyph glyph-name="Rcommaaccent" unicode="&#x156;" horiz-adv-x="1116" 
d="M174 0v1290h451q167 0 278 -106.5t111 -261.5q0 -192 -154 -295q-66 -46 -153 -64l327 -563h-123l-307 553h-328v-553h-102zM276 645h349q122 0 204 80.5t82 196.5t-82 196t-204 80h-349v-553zM522 -461l-20 21q20 17 37 41q38 52 45 102q-31 0 -51.5 20.5t-20.5 51.5
t20.5 51t51.5 20t51 -22t20 -60q0 -82 -67 -161q-30 -38 -66 -64z" />
    <glyph glyph-name="rcommaaccent" unicode="&#x157;" horiz-adv-x="614" 
d="M143 0v901h62l31 -133h10q20 34 65 72q95 71 221 71h41v-92h-51q-131 0 -208.5 -79t-77.5 -218v-522h-93zM123 -461l-21 21q20 17 37 41q38 52 45 102q-31 0 -51 20.5t-20 51.5t20 51t51 20t51.5 -22.5t20.5 -59.5q0 -81 -68 -161q-31 -39 -65 -64z" />
    <glyph glyph-name="Rcaron" unicode="&#x158;" horiz-adv-x="1116" 
d="M174 0v1290h451q167 0 278 -106.5t111 -261.5q0 -192 -154 -295q-66 -46 -153 -64l327 -563h-123l-307 553h-328v-553h-102zM276 645h349q122 0 204 80.5t82 196.5t-82 196t-204 80h-349v-553zM532 1434l-194 235h102l133 -164l134 164h102l-195 -235h-82z" />
    <glyph glyph-name="rcaron" unicode="&#x159;" horiz-adv-x="614" 
d="M143 0v901h62l31 -133h10q20 34 65 72q95 71 221 71h41v-92h-51q-131 0 -208.5 -79t-77.5 -218v-522h-93zM317 1065l-194 235h102l133 -163l134 163h102l-195 -235h-82z" />
    <glyph glyph-name="Sacute" unicode="&#x15a;" horiz-adv-x="1003" 
d="M92 358h103q18 -127 99.5 -201.5t217.5 -74.5q145 0 226 73t81 193q0 60 -24 105t-65 73.5t-94 50.5t-111.5 39.5t-117 36t-111.5 45t-94 61t-65 89t-24 125.5q0 135 110 231t289 96q159 0 270 -105t119 -253h-102q-8 117 -86.5 191.5t-200.5 74.5q-134 0 -215.5 -69
t-81.5 -166q0 -71 39 -120.5t101.5 -77t137.5 -49.5t150.5 -48.5t138 -63.5t101.5 -104.5t39 -161.5q0 -157 -111 -257.5t-299 -100.5t-300 102t-120 266zM471 1434l123 245h123l-174 -245h-72z" />
    <glyph glyph-name="sacute" unicode="&#x15b;" horiz-adv-x="808" 
d="M92 266h92q37 -184 236 -184q96 0 155.5 51t59.5 123q0 50 -29 83.5t-75 50t-101.5 29t-111 27.5t-101.5 38.5t-75 69t-29 112.5q0 103 81 174t216 71q126 0 212.5 -76t94.5 -180h-92q-18 74 -72.5 119t-142.5 45q-96 0 -150.5 -44t-54.5 -109q0 -48 29 -79t75 -46.5
t101.5 -27t111 -27t101.5 -40t75 -72.5t29 -118q0 -109 -86.5 -187.5t-220.5 -78.5q-142 0 -231 78.5t-97 197.5zM369 1065l123 246h122l-174 -246h-71z" />
    <glyph glyph-name="Scircumflex" unicode="&#x15c;" horiz-adv-x="1003" 
d="M92 358h103q18 -127 99.5 -201.5t217.5 -74.5q145 0 226 73t81 193q0 60 -24 105t-65 73.5t-94 50.5t-111.5 39.5t-117 36t-111.5 45t-94 61t-65 89t-24 125.5q0 135 110 231t289 96q159 0 270 -105t119 -253h-102q-8 117 -86.5 191.5t-200.5 74.5q-134 0 -215.5 -69
t-81.5 -166q0 -71 39 -120.5t101.5 -77t137.5 -49.5t150.5 -48.5t138 -63.5t101.5 -104.5t39 -161.5q0 -157 -111 -257.5t-299 -100.5t-300 102t-120 266zM287 1434l194 235h82l195 -235h-103l-133 163l-133 -163h-102z" />
    <glyph glyph-name="scircumflex" unicode="&#x15d;" horiz-adv-x="808" 
d="M92 266h92q37 -184 236 -184q96 0 155.5 51t59.5 123q0 50 -29 83.5t-75 50t-101.5 29t-111 27.5t-101.5 38.5t-75 69t-29 112.5q0 103 81 174t216 71q126 0 212.5 -76t94.5 -180h-92q-18 74 -72.5 119t-142.5 45q-96 0 -150.5 -44t-54.5 -109q0 -48 29 -79t75 -46.5
t101.5 -27t111 -27t101.5 -40t75 -72.5t29 -118q0 -109 -86.5 -187.5t-220.5 -78.5q-142 0 -231 78.5t-97 197.5zM174 1065l195 235h82l194 -235h-102l-133 164l-134 -164h-102z" />
    <glyph glyph-name="Scedilla" unicode="&#x15e;" horiz-adv-x="1003" 
d="M399 -338v72l21 -6q28 -4 51 -4q52 0 77 19t25 52q0 25 -24 43.5t-68 18.5q-9 0 -37 -7l-14 -4l57 144q-182 7 -284.5 105.5t-110.5 262.5h103q18 -127 99.5 -201.5t217.5 -74.5q145 0 226 73t81 193q0 60 -24 105t-65 73.5t-94 50.5t-111.5 39.5t-117 36t-111.5 45
t-94 61t-65 89t-24 125.5q0 135 110 231t289 96q159 0 270 -105t119 -253h-102q-8 117 -86.5 191.5t-200.5 74.5q-134 0 -215.5 -69t-81.5 -166q0 -71 39 -120.5t101.5 -77t137.5 -49.5t150.5 -48.5t138 -63.5t101.5 -104.5t39 -161.5q0 -147 -103 -249t-262 -109l-35 -72
q61 -7 97 -41t36 -82q0 -64 -45 -103.5t-129 -39.5q-31 0 -59 4z" />
    <glyph glyph-name="scedilla" unicode="&#x15f;" horiz-adv-x="808" 
d="M299 -338v72l20 -6q28 -4 52 -4q52 0 77 19t25 52q0 25 -24 43.5t-68 18.5q-9 0 -37 -7l-14 -4l57 144q-124 8 -206 84t-89 192h92q37 -184 236 -184q96 0 155.5 51t59.5 123q0 50 -29 83.5t-75 50t-101.5 29t-111 27.5t-101.5 38t-75 68.5t-29 111.5q0 106 80.5 176.5
t216.5 70.5q126 0 212.5 -76t94.5 -180h-92q-18 74 -72.5 119t-142.5 45q-96 0 -150.5 -44.5t-54.5 -110.5q0 -47 29 -77.5t75 -46t101.5 -27t111 -27t101.5 -40t75 -73t29 -117.5q0 -107 -77 -183.5t-193 -80.5l-35 -74q61 -7 97 -41t36 -82q0 -64 -45 -103.5t-129 -39.5
q-31 0 -59 4z" />
    <glyph glyph-name="Scaron" unicode="&#x160;" horiz-adv-x="1003" 
d="M92 358h103q18 -127 99.5 -201.5t217.5 -74.5q145 0 226 73t81 193q0 60 -24 105t-65 73.5t-94 50.5t-111.5 39.5t-117 36t-111.5 45t-94 61t-65 89t-24 125.5q0 135 110 231t289 96q159 0 270 -105t119 -253h-102q-8 117 -86.5 191.5t-200.5 74.5q-134 0 -215.5 -69
t-81.5 -166q0 -71 39 -120.5t101.5 -77t137.5 -49.5t150.5 -48.5t138 -63.5t101.5 -104.5t39 -161.5q0 -157 -111 -257.5t-299 -100.5t-300 102t-120 266zM481 1434l-194 235h102l133 -164l133 164h103l-195 -235h-82z" />
    <glyph glyph-name="scaron" unicode="&#x161;" horiz-adv-x="808" 
d="M92 266h92q37 -184 236 -184q96 0 155.5 51t59.5 123q0 50 -29 83.5t-75 50t-101.5 29t-111 27.5t-101.5 38.5t-75 69t-29 112.5q0 103 81 174t216 71q126 0 212.5 -76t94.5 -180h-92q-18 74 -72.5 119t-142.5 45q-96 0 -150.5 -44t-54.5 -109q0 -48 29 -79t75 -46.5
t101.5 -27t111 -27t101.5 -40t75 -72.5t29 -118q0 -109 -86.5 -187.5t-220.5 -78.5q-142 0 -231 78.5t-97 197.5zM369 1065l-195 235h102l134 -163l133 163h102l-194 -235h-82z" />
    <glyph glyph-name="Tcommaaccent" unicode="&#x162;" 
d="M440 0v1198h-399v92h901v-92h-399v-1198h-103zM430 -461l-20 21q17 15 36 41q39 54 46 102q-31 0 -51.5 20.5t-20.5 51.5t20.5 51t51.5 20t51 -22t20 -60q0 -82 -67 -161q-30 -38 -66 -64z" />
    <glyph glyph-name="tcommaaccent" unicode="&#x163;" horiz-adv-x="634" 
d="M215 256v553h-174v92h82q102 0 102 103v163h82v-266h225v-92h-225v-553q0 -88 45 -131t119 -43q17 0 45 4l16 6v-82q-11 -7 -22 -10q-27 -10 -59 -10q-102 0 -169 72.5t-67 193.5zM328 -461l-21 21q20 17 37 41q38 52 45 102q-31 0 -51.5 20.5t-20.5 51.5t20.5 51
t51.5 20t51.5 -22.5t20.5 -59.5q0 -81 -68 -161q-31 -39 -65 -64z" />
    <glyph glyph-name="Tcaron" unicode="&#x164;" 
d="M440 0v1198h-399v92h901v-92h-399v-1198h-103zM451 1434l-195 235h102l134 -164l133 164h102l-195 -235h-81z" />
    <glyph glyph-name="tcaron" unicode="&#x165;" horiz-adv-x="645" 
d="M543 1044l71 246h123l-123 -246h-71zM215 256v553h-174v92h82q102 0 102 103v163h82v-266h225v-92h-225v-553q0 -88 45 -131t119 -43q17 0 45 4l16 6v-82q-11 -7 -22 -10q-27 -10 -59 -10q-102 0 -169 72.5t-67 193.5z" />
    <glyph glyph-name="Tbar" unicode="&#x166;" 
d="M440 0v696h-225v92h225v410h-399v92h901v-92h-399v-410h225v-92h-225v-696h-103z" />
    <glyph glyph-name="tbar" unicode="&#x167;" horiz-adv-x="634" 
d="M215 256v266h-174v92h174v195h-174v92h82q102 0 102 103v163h82v-266h225v-92h-225v-195h225v-92h-225v-266q0 -88 45 -131t119 -43q17 0 45 4l16 6v-82q-11 -7 -22 -10q-27 -10 -59 -10q-102 0 -169 72.5t-67 193.5z" />
    <glyph glyph-name="uni0168" unicode="&#x168;" horiz-adv-x="1228" 
d="M154 481v809h102v-809q0 -189 97 -294t261 -105t261.5 105t97.5 294v809h102v-809q0 -227 -125 -359t-336 -132q-210 0 -335 132t-125 359zM420 1434h-72q0 96 44.5 150t109.5 54q35 0 70.5 -21t59.5 -45.5t52.5 -45.5t52.5 -21q33 0 57.5 31t24.5 82h72
q0 -96 -44.5 -150.5t-109.5 -54.5q-35 0 -70.5 21t-59.5 45.5t-52.5 45.5t-52.5 21q-33 0 -57.5 -30.5t-24.5 -81.5z" />
    <glyph glyph-name="uni0169" unicode="&#x169;" horiz-adv-x="1034" 
d="M143 369v532h93v-532q0 -122 80 -204.5t196 -82.5q123 0 205 82t82 205v532h92v-901h-62l-30 133h-11q-29 -44 -67 -72q-86 -71 -219 -71q-155 0 -257 106.5t-102 272.5zM317 1065h-71q0 96 44 150.5t109 54.5q35 0 70.5 -21t59.5 -45.5t53 -45.5t53 -21q33 0 57.5 30.5
t24.5 81.5h71q0 -96 -44 -150.5t-109 -54.5q-35 0 -70.5 21t-59.5 46t-53 46t-53 21q-33 0 -57.5 -31t-24.5 -82z" />
    <glyph glyph-name="Umacron" unicode="&#x16a;" horiz-adv-x="1228" 
d="M154 481v809h102v-809q0 -189 97 -294t261 -105t261.5 105t97.5 294v809h102v-809q0 -227 -125 -359t-336 -132q-210 0 -335 132t-125 359zM379 1434v92h481v-92h-481z" />
    <glyph glyph-name="umacron" unicode="&#x16b;" horiz-adv-x="1034" 
d="M143 369v532h93v-532q0 -122 80 -204.5t196 -82.5q123 0 205 82t82 205v532h92v-901h-62l-30 133h-11q-29 -44 -67 -72q-86 -71 -219 -71q-155 0 -257 106.5t-102 272.5zM276 1075v92h482v-92h-482z" />
    <glyph glyph-name="Ubreve" unicode="&#x16c;" horiz-adv-x="1228" 
d="M154 481v809h102v-809q0 -189 97 -294t261 -105t261.5 105t97.5 294v809h102v-809q0 -227 -125 -359t-336 -132q-210 0 -335 132t-125 359zM389 1649h82q8 -57 46 -95t97 -38t97.5 38t46.5 95h82q-8 -93 -71 -154t-155 -61t-154.5 61t-70.5 154z" />
    <glyph glyph-name="ubreve" unicode="&#x16d;" horiz-adv-x="1034" 
d="M143 369v532h93v-532q0 -122 80 -204.5t196 -82.5q123 0 205 82t82 205v532h92v-901h-62l-30 133h-11q-29 -44 -67 -72q-86 -71 -219 -71q-155 0 -257 106.5t-102 272.5zM297 1280h82q8 -57 46 -95t97 -38t97.5 38t46.5 95h82q-8 -93 -71 -154t-155 -61t-154.5 61
t-70.5 154z" />
    <glyph glyph-name="Uring" unicode="&#x16e;" horiz-adv-x="1228" 
d="M154 481v809h102v-809q0 -189 97 -294t261 -105t261.5 105t97.5 294v809h102v-809q0 -227 -125 -359t-336 -132q-210 0 -335 132t-125 359zM451 1556q0 69 47 116.5t116 47.5t116.5 -47.5t47.5 -116.5t-47.5 -116t-116.5 -47t-116 47t-47 116zM522 1556q0 -38 27 -65
t65 -27t65.5 27t27.5 65t-27.5 65.5t-65.5 27.5t-65 -27.5t-27 -65.5z" />
    <glyph glyph-name="uring" unicode="&#x16f;" horiz-adv-x="1034" 
d="M143 369v532h93v-532q0 -122 80 -204.5t196 -82.5q123 0 205 82t82 205v532h92v-901h-62l-30 133h-11q-29 -44 -67 -72q-86 -71 -219 -71q-155 0 -257 106.5t-102 272.5zM358 1188q0 69 47.5 116.5t116.5 47.5t116.5 -47.5t47.5 -116.5t-47.5 -116.5t-116.5 -47.5
t-116.5 47.5t-47.5 116.5zM430 1188q0 -38 27 -65t65 -27t65 27t27 65t-27 65t-65 27t-65 -27t-27 -65z" />
    <glyph glyph-name="Uhungarumlaut" unicode="&#x170;" horiz-adv-x="1228" 
d="M154 481v809h102v-809q0 -189 97 -294t261 -105t261.5 105t97.5 294v809h102v-809q0 -227 -125 -359t-336 -132q-210 0 -335 132t-125 359zM451 1434l133 245h123l-185 -245h-71zM696 1434l133 245h123l-184 -245h-72z" />
    <glyph glyph-name="uhungarumlaut" unicode="&#x171;" horiz-adv-x="1034" 
d="M143 369v532h93v-532q0 -122 80 -204.5t196 -82.5q123 0 205 82t82 205v532h92v-901h-62l-30 133h-11q-29 -44 -67 -72q-86 -71 -219 -71q-155 0 -257 106.5t-102 272.5zM358 1065l134 246h122l-184 -246h-72zM604 1065l133 246h123l-184 -246h-72z" />
    <glyph glyph-name="Uogonek" unicode="&#x172;" horiz-adv-x="1228" 
d="M788 -256v-72l-20 -6q-28 -4 -51 -4q-84 0 -134.5 46.5t-50.5 117.5q0 58 41 113q12 17 41 51q-210 0 -335 132t-125 359v809h102v-809q0 -189 97 -294t261 -105t261.5 105t97.5 294v809h102v-809q0 -211 -103 -334.5t-282 -150.5q-29 -33 -39 -51q-37 -64 -37 -119
q0 -39 28.5 -65.5t74.5 -26.5q23 0 51 4z" />
    <glyph glyph-name="uogonek" unicode="&#x173;" horiz-adv-x="1034" 
d="M143 369v532h93v-532q0 -122 80 -204.5t196 -82.5q123 0 205 82t82 205v532h92v-901q-24 -27 -41 -53q-41 -59 -41 -121q0 -39 28 -65.5t74 -26.5q24 0 52 4l20 6v-72l-20 -6q-28 -4 -52 -4q-84 0 -134 46.5t-50 117.5q0 61 51 127q14 20 51 57l-30 123h-11
q-29 -44 -67 -72q-86 -71 -219 -71q-155 0 -257 106.5t-102 272.5z" />
    <glyph glyph-name="Wcircumflex" unicode="&#x174;" horiz-adv-x="1617" 
d="M430 0l-379 1290h103l317 -1095l297 1095h82l297 -1095l317 1095h103l-379 -1290h-82l-297 1096l-297 -1096h-82zM573 1434l195 235h82l194 -235h-102l-133 163l-133 -163h-103z" />
    <glyph glyph-name="wcircumflex" unicode="&#x175;" horiz-adv-x="1228" 
d="M317 0l-297 901h93l235 -717l236 717h61l236 -717l235 717h92l-297 -901h-61l-236 717l-235 -717h-62zM379 1065l194 235h82l195 -235h-102l-134 164l-133 -164h-102z" />
    <glyph glyph-name="Ycircumflex" unicode="&#x176;" horiz-adv-x="1024" 
d="M461 0v512l-430 778h112l369 -676l369 676h112l-430 -778v-512h-102zM276 1434l195 235h82l195 -235h-103l-133 163l-133 -163h-103z" />
    <glyph glyph-name="ycircumflex" unicode="&#x177;" horiz-adv-x="880" 
d="M133 -328v82h41q60 0 95.5 32t68.5 112l51 122l-358 881h102l307 -768l308 768h102l-410 -1003q-48 -125 -104 -180.5t-141 -55.5q-15 0 -43 4zM205 1065l194 235h82l195 -235h-103l-133 164l-133 -164h-102z" />
    <glyph glyph-name="Ydieresis" unicode="&#x178;" horiz-adv-x="1024" 
d="M461 0v512l-430 778h112l369 -676l369 676h112l-430 -778v-512h-102zM594 1546q0 31 20.5 51.5t51.5 20.5t51 -20.5t20 -51.5t-20 -51t-51 -20t-51.5 20t-20.5 51zM287 1546q0 31 20 51.5t51 20.5t51.5 -20.5t20.5 -51.5t-20.5 -51t-51.5 -20t-51 20t-20 51z" />
    <glyph glyph-name="Zacute" unicode="&#x179;" horiz-adv-x="1003" 
d="M82 0v72l696 1126h-665v92h798v-71l-696 -1127h707v-92h-840zM471 1434l123 245h123l-174 -245h-72z" />
    <glyph glyph-name="zacute" unicode="&#x17a;" horiz-adv-x="757" 
d="M61 0v72l502 737h-502v92h625v-72l-502 -737h512v-92h-635zM338 1065l123 246h123l-174 -246h-72z" />
    <glyph glyph-name="Zdotaccent" unicode="&#x17b;" horiz-adv-x="1003" 
d="M82 0v72l696 1126h-665v92h798v-71l-696 -1127h707v-92h-840zM440 1546q0 31 20.5 51.5t51.5 20.5t51.5 -20.5t20.5 -51.5t-20.5 -51t-51.5 -20t-51.5 20t-20.5 51z" />
    <glyph glyph-name="zdotaccent" unicode="&#x17c;" horiz-adv-x="757" 
d="M61 0v72l502 737h-502v92h625v-72l-502 -737h512v-92h-635zM307 1178q0 31 20.5 51t51.5 20t51.5 -20t20.5 -51t-20.5 -51.5t-51.5 -20.5t-51.5 20.5t-20.5 51.5z" />
    <glyph glyph-name="Zcaron" unicode="&#x17d;" horiz-adv-x="1003" 
d="M82 0v72l696 1126h-665v92h798v-71l-696 -1127h707v-92h-840zM471 1434l-195 235h103l133 -164l133 164h103l-195 -235h-82z" />
    <glyph glyph-name="zcaron" unicode="&#x17e;" horiz-adv-x="757" 
d="M61 0v72l502 737h-502v92h625v-72l-502 -737h512v-92h-635zM338 1065l-195 235h103l133 -163l133 163h102l-194 -235h-82z" />
    <glyph glyph-name="uni018F" unicode="&#x18f;" horiz-adv-x="1341" 
d="M92 645v31h1055q-5 149 -73.5 272.5t-177 191.5t-230.5 68q-157 0 -264 -81.5t-166 -215.5h-103q66 174 201.5 281.5t331.5 107.5q114 0 220 -48.5t186 -133t128.5 -208.5t48.5 -265q0 -143 -48.5 -267.5t-129 -208t-186 -131.5t-219.5 -48q-115 0 -219 47t-183 130.5
t-125.5 207.5t-46.5 270zM1143 584h-948q5 -140 70.5 -256t171.5 -181t229 -65q186 0 321.5 140.5t155.5 361.5z" />
    <glyph glyph-name="florin" unicode="&#x192;" horiz-adv-x="675" 
d="M-133 -317l20 81l19 -6q28 -4 43 -4q80 0 127.5 55t77.5 191q1 6 122 666h-133l21 92h133l41 205q30 182 102.5 259.5t204.5 77.5q37 0 60 -10l22 -10l-20 -82l-19 4q-42 6 -43 6q-80 0 -127.5 -54.5t-77.5 -190.5q-10 -38 -26 -125q-9 -39 -15 -80h226l-21 -92h-225
l-123 -666q-30 -182 -102.5 -260t-204.5 -78q-33 0 -60 10q-9 2 -22 11z" />
    <glyph glyph-name="uni01A0" unicode="&#x1a0;" horiz-adv-x="1372" 
d="M1044 1157h41q103 0 103 82q0 39 -17 88l-14 35h72q7 -9 20 -39q21 -53 21 -94q0 -62 -43 -103t-111 -41h-10q42 -48 76 -112q78 -148 78 -328q0 -141 -48.5 -265t-129 -208.5t-186.5 -133t-220 -48.5t-220 48.5t-186.5 133t-129 208.5t-48.5 265t48.5 265t129 208.5
t186.5 133t220 48.5q140 0 268 -71q61 -38 100 -72zM676 82q96 0 183.5 41.5t153.5 113.5t105 178.5t39 229.5t-39 229.5t-105 178.5t-153.5 113.5t-183.5 41.5t-183.5 -41.5t-153.5 -113.5t-105 -178.5t-39 -229.5t39 -229.5t105 -178.5t153.5 -113.5t183.5 -41.5z" />
    <glyph glyph-name="uni01A1" unicode="&#x1a1;" horiz-adv-x="1024" 
d="M788 788h41q103 0 103 82q0 39 -17 88l-14 35h72q7 -9 20 -39q21 -53 21 -94q0 -62 -43 -102.5t-111 -40.5h-10q29 -55 35 -72q37 -97 37 -194q0 -198 -121 -329.5t-299 -131.5t-299 131.5t-121 329.5t121 329t299 131q117 0 213 -61q41 -26 73 -62zM502 82
q133 0 230 106t97 263t-97 262.5t-230 105.5t-230.5 -105.5t-97.5 -262.5t97.5 -263t230.5 -106z" />
    <glyph glyph-name="uni01AF" unicode="&#x1af;" horiz-adv-x="1300" 
d="M154 481v809h102v-809q0 -189 97 -294t261 -105t261.5 105t97.5 294v809h102v-133h31q102 0 102 82q0 42 -16 88l-14 35h71q9 -12 21 -39q20 -50 20 -94q0 -62 -42.5 -103t-110.5 -41q-8 0 -43 5l-19 6v-615q0 -227 -125 -359t-336 -132q-210 0 -335 132t-125 359z" />
    <glyph glyph-name="uni01B0" unicode="&#x1b0;" horiz-adv-x="1085" 
d="M143 369v532h93v-532q0 -122 80 -204.5t196 -82.5q123 0 205 82t82 205v532h92v-113h31q102 0 102 82q0 42 -16 88l-15 35h72q7 -9 20 -39q21 -53 21 -94q0 -62 -43 -102.5t-111 -40.5q-15 0 -43 4l-18 6v-727h-62l-30 133h-11q-29 -44 -67 -72q-86 -71 -219 -71
q-155 0 -257 106.5t-102 272.5z" />
    <glyph glyph-name="Aringacute" unicode="&#x1fa;" horiz-adv-x="1085" 
d="M0 0l500 1284q-54 14 -87.5 57t-33.5 103q0 69 47.5 116.5t116.5 47.5t116.5 -47.5t47.5 -116.5q0 -60 -33.5 -103t-87.5 -57l499 -1284h-112l-133 348h-594l-133 -348h-113zM276 440h533l-266 686zM451 1444q0 -38 27 -65t65 -27t65 27t27 65t-27 65t-65 27t-65 -27
t-27 -65zM512 1659l123 246h123l-174 -246h-72z" />
    <glyph glyph-name="aringacute" unicode="&#x1fb;" horiz-adv-x="931" 
d="M430 1352l123 245h123l-174 -245h-72zM307 1147q0 69 47.5 116.5t116.5 47.5t116.5 -47.5t47.5 -116.5t-47.5 -116.5t-116.5 -47.5t-116.5 47.5t-47.5 116.5zM379 1147q0 -38 27 -65t65 -27t65 27t27 65t-27 65t-65 27t-65 -27t-27 -65zM707 369v82h-113
q-410 0 -410 -205q0 -66 62.5 -115t173.5 -49q130 0 208.5 78t78.5 209zM737 0l-30 133h-11q-29 -44 -67 -72q-86 -71 -219 -71q-149 0 -233.5 72t-84.5 184q0 134 120.5 215.5t381.5 81.5h113v51q0 101 -64 163t-172 62q-191 0 -246 -164h-92q18 107 108.5 181.5
t229.5 74.5q147 0 237.5 -88.5t90.5 -228.5v-594h-62z" />
    <glyph glyph-name="AEacute" unicode="&#x1fc;" horiz-adv-x="1597" 
d="M-51 0l727 1290h799v-92h-615v-481h563v-92h-563v-533h635v-92h-737v348h-502l-195 -348h-112zM307 440h451v758h-21zM840 1434l123 245h122l-174 -245h-71z" />
    <glyph glyph-name="aeacute" unicode="&#x1fd;" horiz-adv-x="1546" 
d="M225 655h-92q18 107 108.5 181.5t229.5 74.5q141 0 227 -98q40 -47 60 -96q28 49 78 96q110 98 239 98q170 0 279.5 -113t109.5 -296q0 -9 -6 -51l-4 -21h-666q17 -167 97 -257.5t200 -90.5q155 0 236 143h113q-40 -102 -130 -168.5t-219 -66.5q-158 0 -264 106
q-45 45 -73 109q-27 -61 -78 -109q-106 -106 -271 -106q-147 0 -227 70t-80 176q0 286 502 286h102v72q0 100 -62.5 162.5t-162.5 62.5q-191 0 -246 -164zM788 522h584q-17 140 -95.5 218.5t-201.5 78.5q-109 0 -186.5 -79t-100.5 -218zM696 369v61h-102
q-115 0 -197.5 -15.5t-127.5 -43.5t-65 -61t-20 -74q0 -66 55.5 -110t159.5 -44q138 0 217.5 77.5t79.5 209.5zM737 1065l123 246h123l-174 -246h-72z" />
    <glyph glyph-name="Oslashacute" unicode="&#x1fe;" horiz-adv-x="1351" 
d="M61 113l144 143q-113 163 -113 389q0 141 48.5 265t129 208.5t186.5 133t220 48.5q239 0 420 -194l133 133l61 -61l-143 -144q113 -163 113 -389q0 -141 -48.5 -265t-129 -208.5t-186.5 -133t-220 -48.5q-116 0 -224.5 50.5t-195.5 143.5l-133 -133zM1075 963l-747 -707
q139 -174 348 -174q96 0 183.5 41.5t153.5 113.5t105 178.5t39 229.5q0 170 -82 318zM276 328l748 706q-60 83 -153 128.5t-195 45.5q-96 0 -183.5 -41.5t-153.5 -113.5t-105 -178.5t-39 -229.5q0 -187 81 -317zM655 1434l123 245h123l-174 -245h-72z" />
    <glyph glyph-name="oslashacute" unicode="&#x1ff;" horiz-adv-x="1003" 
d="M51 72l113 102q-82 116 -82 277q0 198 121 329t299 131q163 0 286 -123l103 103l61 -62l-112 -102q82 -116 82 -276q0 -198 -121 -329.5t-299 -131.5q-164 0 -287 123l-102 -103zM778 655l-502 -481q20 -23 60 -47q76 -45 166 -45q133 0 230 106t97 263q0 75 -26 147
q-8 26 -25 57zM225 246l502 481q-23 23 -59 45q-80 47 -166 47q-133 0 -230.5 -105.5t-97.5 -262.5q0 -87 25 -150q8 -29 26 -55zM481 1065l123 246h123l-174 -246h-72z" />
    <glyph glyph-name="Scommaaccent" unicode="&#x218;" horiz-adv-x="1003" 
d="M92 358h103q18 -127 99.5 -201.5t217.5 -74.5q145 0 226 73t81 193q0 60 -24 105t-65 73.5t-94 50.5t-111.5 39.5t-117 36t-111.5 45t-94 61t-65 89t-24 125.5q0 135 110 231t289 96q159 0 270 -105t119 -253h-102q-8 117 -86.5 191.5t-200.5 74.5q-134 0 -215.5 -69
t-81.5 -166q0 -71 39 -120.5t101.5 -77t137.5 -49.5t150.5 -48.5t138 -63.5t101.5 -104.5t39 -161.5q0 -157 -111 -257.5t-299 -100.5t-300 102t-120 266zM451 -461l-21 21q20 17 37 41q38 52 45 102q-31 0 -51.5 20.5t-20.5 51.5t20.5 51t51.5 20t51.5 -22.5t20.5 -59.5
q0 -81 -68 -161q-31 -39 -65 -64z" />
    <glyph glyph-name="scommaaccent" unicode="&#x219;" horiz-adv-x="808" 
d="M92 266h92q37 -184 236 -184q96 0 155.5 51t59.5 123q0 50 -29 83.5t-75 50t-101.5 29t-111 27.5t-101.5 38.5t-75 69t-29 112.5q0 103 81 174t216 71q126 0 212.5 -76t94.5 -180h-92q-18 74 -72.5 119t-142.5 45q-96 0 -150.5 -44t-54.5 -109q0 -48 29 -79t75 -46.5
t101.5 -27t111 -27t101.5 -40t75 -72.5t29 -118q0 -109 -86.5 -187.5t-220.5 -78.5q-142 0 -231 78.5t-97 197.5zM358 -461l-20 21q20 17 37 41q38 52 45 102q-31 0 -51.5 20.5t-20.5 51.5t20.5 51t51.5 20t51.5 -22.5t20.5 -59.5q0 -81 -68 -161q-30 -38 -66 -64z" />
    <glyph glyph-name="uni021A" unicode="&#x21a;" 
d="M440 0v1198h-399v92h901v-92h-399v-1198h-103zM430 -461l-20 21q17 15 36 41q39 54 46 102q-31 0 -51.5 20.5t-20.5 51.5t20.5 51t51.5 20t51 -22t20 -60q0 -82 -67 -161q-30 -38 -66 -64z" />
    <glyph glyph-name="uni021B" unicode="&#x21b;" horiz-adv-x="634" 
d="M215 256v553h-174v92h82q102 0 102 103v163h82v-266h225v-92h-225v-553q0 -88 45 -131t119 -43q17 0 45 4l16 6v-82q-11 -7 -22 -10q-27 -10 -59 -10q-102 0 -169 72.5t-67 193.5zM328 -461l-21 21q20 17 37 41q38 52 45 102q-31 0 -51.5 20.5t-20.5 51.5t20.5 51
t51.5 20t51.5 -22.5t20.5 -59.5q0 -81 -68 -161q-31 -39 -65 -64z" />
    <glyph glyph-name="uni0232" unicode="&#x232;" horiz-adv-x="1024" 
d="M461 0v512l-430 778h112l369 -676l369 676h112l-430 -778v-512h-102zM276 1434v92h482v-92h-482z" />
    <glyph glyph-name="uni0233" unicode="&#x233;" horiz-adv-x="880" 
d="M133 -328v82h41q60 0 95.5 32t68.5 112l51 122l-358 881h102l307 -768l308 768h102l-410 -1003q-48 -125 -104 -180.5t-141 -55.5q-15 0 -43 4zM205 1075v92h481v-92h-481z" />
    <glyph glyph-name="uni0244" unicode="&#x244;" horiz-adv-x="1351" 
d="M215 481v256h-184v92h184v461h102v-461h717v461h103v-461h184v-92h-184v-256q0 -227 -125 -359t-336 -132t-336 132t-125 359zM317 737v-256q0 -189 97.5 -294t261.5 -105t261 105t97 294v256h-717z" />
    <glyph glyph-name="uni0259" unicode="&#x259;" horiz-adv-x="993" 
d="M92 492h727q-17 149 -108 238t-230 89q-89 0 -154.5 -43t-101.5 -100h-112q41 97 136.5 166t231.5 69q185 0 307.5 -130.5t122.5 -329.5q0 -198 -120.5 -329.5t-298.5 -131.5q-169 0 -289.5 124t-120.5 306q0 23 4 51zM819 399h-645q17 -140 106 -228.5t212 -88.5
q122 0 212 88t115 229z" />
    <glyph glyph-name="uni0289" unicode="&#x289;" horiz-adv-x="1054" 
d="M20 492v92h134v317h92v-317h563v317h92v-317h133v-92h-133v-492h-61l-31 133h-10q-28 -43 -68 -72q-86 -71 -219 -71q-155 0 -256.5 106.5t-101.5 272.5v123h-134zM246 492v-123q0 -122 80 -204.5t196 -82.5q123 0 205 82t82 205v123h-563z" />
    <glyph glyph-name="afii57929" unicode="&#x2bc;" horiz-adv-x="276" 
d="M82 983l-21 21q22 19 37 40q38 52 45 103q-31 0 -51 20.5t-20 51.5t20 51t51 20t51.5 -22.5t20.5 -59.5q0 -81 -68 -161q-31 -39 -65 -64z" />
    <glyph glyph-name="circumflex" unicode="&#x2c6;" horiz-adv-x="593" 
d="M61 1034l195 236h82l194 -236h-102l-133 164l-133 -164h-103z" />
    <glyph glyph-name="caron" unicode="&#x2c7;" horiz-adv-x="593" 
d="M256 1034l-195 236h103l133 -164l133 164h102l-194 -236h-82z" />
    <glyph glyph-name="breve" unicode="&#x2d8;" horiz-adv-x="573" 
d="M61 1270h82q8 -57 46.5 -95t97.5 -38t97 38t46 95h82q-8 -93 -70.5 -154t-154.5 -61t-155 61t-71 154z" />
    <glyph glyph-name="dotaccent" unicode="&#x2d9;" horiz-adv-x="266" 
d="M61 1198q0 31 20.5 51.5t51.5 20.5t51.5 -20.5t20.5 -51.5t-20.5 -51.5t-51.5 -20.5t-51.5 20.5t-20.5 51.5z" />
    <glyph glyph-name="ring" unicode="&#x2da;" horiz-adv-x="450" 
d="M61 1188q0 69 47.5 116.5t116.5 47.5t116.5 -47.5t47.5 -116.5t-47.5 -116.5t-116.5 -47.5t-116.5 47.5t-47.5 116.5zM133 1188q0 -38 27 -65t65 -27t65 27t27 65t-27 65t-65 27t-65 -27t-27 -65z" />
    <glyph glyph-name="ogonek" unicode="&#x2db;" horiz-adv-x="378" 
d="M317 -256v-72l-20 -6q-28 -4 -51 -4q-84 0 -134.5 46.5t-50.5 117.5q0 56 45 121q26 33 48 53h71q-24 -27 -41 -53q-41 -59 -41 -121q0 -39 28.5 -65.5t74.5 -26.5q23 0 51 4z" />
    <glyph glyph-name="tilde" unicode="&#x2dc;" horiz-adv-x="665" 
d="M133 1075h-72q0 96 44.5 150.5t109.5 54.5q35 0 70.5 -21t59.5 -45.5t53 -45.5t53 -21q33 0 57 30.5t24 82.5h72q0 -96 -44 -150.5t-109 -54.5q-35 0 -70.5 21t-59.5 45.5t-53 45.5t-53 21q-33 0 -57.5 -31t-24.5 -82z" />
    <glyph glyph-name="hungarumlaut" unicode="&#x2dd;" horiz-adv-x="624" 
d="M61 1044l134 246h122l-184 -246h-72zM307 1044l133 246h123l-184 -246h-72z" />
    <glyph glyph-name="acutecomb" unicode="&#x301;" horiz-adv-x="0" 
d="M-666 1434l123 245h123l-174 -245h-72z" />
    <glyph glyph-name="uni0309" unicode="&#x309;" horiz-adv-x="358" 
d="M236 1065h-82q7 8 30 39q31 55 31 94t-28 65.5t-74 26.5q-13 0 -37 -6l-15 -4v72l17 4q42 6 55 6q76 0 120 -40t44 -103q0 -51 -31 -111z" />
    <glyph glyph-name="uni030A" unicode="&#x30a;" horiz-adv-x="0" 
d="M-778 1577q0 69 47.5 116.5t116.5 47.5t116 -47.5t47 -116.5t-47 -116.5t-116 -47.5t-116.5 47.5t-47.5 116.5zM-614 1485q38 0 65 27t27 65t-27 65t-65 27t-65.5 -27t-27.5 -65t27.5 -65t65.5 -27z" />
    <glyph glyph-name="uni031B" unicode="&#x31b;" horiz-adv-x="337" 
d="M61 758v61h31q103 0 103 82q0 39 -17 88l-14 35h72q7 -9 20 -39q20 -50 20 -94q0 -62 -42.5 -102.5t-110.5 -40.5q-15 0 -43 4z" />
    <glyph glyph-name="uni0323" unicode="&#x323;" horiz-adv-x="266" 
d="M61 -225q0 31 20.5 51t51.5 20t51.5 -20t20.5 -51t-20.5 -51.5t-51.5 -20.5t-51.5 20.5t-20.5 51.5z" />
    <glyph glyph-name="uni0400" unicode="&#x400;" horiz-adv-x="1075" 
d="M174 0v1290h778v-92h-676v-481h625v-92h-625v-533h697v-92h-799zM553 1434l-174 245h123l123 -245h-72z" />
    <glyph glyph-name="afii10023" unicode="&#x401;" horiz-adv-x="1075" 
d="M174 0v1290h778v-92h-676v-481h625v-92h-625v-533h697v-92h-799zM655 1546q0 31 20.5 51.5t51.5 20.5t51.5 -20.5t20.5 -51.5t-20.5 -51t-51.5 -20t-51.5 20t-20.5 51zM348 1546q0 31 20.5 51.5t51.5 20.5t51.5 -20.5t20.5 -51.5t-20.5 -51t-51.5 -20t-51.5 20t-20.5 51z
" />
    <glyph glyph-name="afii10051" unicode="&#x402;" horiz-adv-x="1239" 
d="M328 0v1198h-328v92h768v-92h-338v-543q34 49 80 86q113 88 248 88q177 0 293 -124t116 -316q0 -221 -119.5 -347t-330.5 -134v92q164 8 256 107t92 282q0 154 -88.5 251t-228.5 97q-130 0 -224 -95t-94 -232v-410h-102z" />
    <glyph glyph-name="afii10052" unicode="&#x403;" horiz-adv-x="911" 
d="M174 0v1290h717v-92h-615v-1198h-102zM492 1434l122 245h123l-174 -245h-71z" />
    <glyph glyph-name="afii10053" unicode="&#x404;" horiz-adv-x="1280" 
d="M195 696h553v-55v-37h-553q12 -224 147.5 -373t333.5 -149q153 0 263 89.5t157 227.5h102q-57 -179 -194 -294t-328 -115q-114 0 -220 48.5t-186.5 133t-129 208.5t-48.5 265t48.5 265t129 208.5t186.5 133t220 48.5q192 0 329 -116t183 -293h-103q-39 137 -147.5 227
t-261.5 90q-84 0 -159.5 -29.5t-132 -80t-99 -116t-65 -139t-25.5 -147.5z" />
    <glyph glyph-name="afii10054" unicode="&#x405;" horiz-adv-x="1003" 
d="M92 358h103q18 -127 99.5 -201.5t217.5 -74.5q145 0 226 73t81 193q0 60 -24 105t-65 73.5t-94 50.5t-111.5 39.5t-117 36t-111.5 45t-94 61t-65 89t-24 125.5q0 135 110 231t289 96q159 0 270 -105t119 -253h-102q-8 117 -86.5 191.5t-200.5 74.5q-134 0 -215.5 -69
t-81.5 -166q0 -71 39 -120.5t101.5 -77t137.5 -49.5t150.5 -48.5t138 -63.5t101.5 -104.5t39 -161.5q0 -157 -111 -257.5t-299 -100.5t-300 102t-120 266z" />
    <glyph glyph-name="afii10055" unicode="&#x406;" horiz-adv-x="450" 
d="M174 0v1290h102v-1290h-102z" />
    <glyph glyph-name="afii10056" unicode="&#x407;" horiz-adv-x="450" 
d="M174 0v1290h102v-1290h-102zM307 1546q0 31 20.5 51.5t51.5 20.5t51.5 -20.5t20.5 -51.5t-20.5 -51t-51.5 -20t-51.5 20t-20.5 51zM0 1546q0 31 20.5 51.5t51.5 20.5t51 -20.5t20 -51.5t-20 -51t-51 -20t-51.5 20t-20.5 51z" />
    <glyph glyph-name="afii10057" unicode="&#x408;" horiz-adv-x="962" 
d="M41 338h102q8 -110 87 -183t200 -73q124 0 205.5 85t81.5 222v901h102v-901q0 -185 -105 -292t-284 -107q-174 0 -281.5 99t-107.5 249z" />
    <glyph glyph-name="afii10058" unicode="&#x409;" horiz-adv-x="1853" 
d="M10 0v82h31q102 0 163.5 71.5t71.5 215.5l72 921h717v-512h317q167 0 283.5 -113.5t116.5 -275.5t-116.5 -275.5t-283.5 -113.5h-419v1198h-523l-61 -829q-13 -186 -96 -282.5t-211 -96.5q-15 0 -43 4zM1065 92h317q123 0 210 87t87 210t-87 210t-210 87h-317v-594z" />
    <glyph glyph-name="afii10059" unicode="&#x40a;" horiz-adv-x="1843" 
d="M174 0v1290h102v-512h676v512h103v-512h317q167 0 283.5 -113.5t116.5 -275.5t-116.5 -275.5t-283.5 -113.5h-420v686h-676v-686h-102zM1055 92h317q123 0 210 87t87 210t-87 210t-210 87h-317v-594z" />
    <glyph glyph-name="afii10060" unicode="&#x40b;" horiz-adv-x="1290" 
d="M328 0v1198h-328v92h768v-92h-338v-543q32 45 82 86q113 88 236 88q169 0 284 -118.5t115 -300.5v-410h-103v410q0 136 -91 231.5t-216 95.5t-216 -95.5t-91 -231.5v-410h-102z" />
    <glyph glyph-name="afii10061" unicode="&#x40c;" horiz-adv-x="1003" 
d="M174 0v1290h102v-635l553 635h134l-564 -635l605 -655h-134l-594 655v-655h-102zM492 1434l122 245h123l-174 -245h-71z" />
    <glyph glyph-name="uni040D" unicode="&#x40d;" horiz-adv-x="1249" 
d="M174 0v1290h102v-1106l707 1106h92v-1290h-102v1106l-707 -1106h-92zM604 1434l-174 245h123l123 -245h-72z" />
    <glyph glyph-name="afii10062" unicode="&#x40e;" horiz-adv-x="1024" 
d="M154 0v82l20 -6q28 -4 51 -4q60 0 103 39t82 125l61 133l-440 921h112l379 -809h10q39 84 56 127l123 279l180 403h113l-482 -1054q-62 -140 -125.5 -198t-160.5 -58q-33 0 -60 10q-11 3 -22 10zM295 1649h82q8 -56 50.5 -94.5t102.5 -38.5t103 38.5t51 94.5h82
q-8 -94 -73 -154.5t-163 -60.5t-162.5 60.5t-72.5 154.5z" />
    <glyph glyph-name="afii10145" unicode="&#x40f;" horiz-adv-x="1228" 
d="M174 0v1290h102v-1198h676v1198h103v-1290h-389v-276h-103v276h-389z" />
    <glyph glyph-name="afii10017" unicode="&#x410;" horiz-adv-x="1085" 
d="M0 0l502 1290h82l501 -1290h-112l-133 348h-594l-133 -348h-113zM276 440h533l-266 686z" />
    <glyph glyph-name="afii10018" unicode="&#x411;" horiz-adv-x="1126" 
d="M174 0v1290h758v-92h-656v-461h369q167 0 278 -106.5t111 -261.5t-111 -262t-278 -107h-471zM276 92h369q122 0 204.5 80.5t82.5 196.5t-82.5 196t-204.5 80h-369v-553z" />
    <glyph glyph-name="afii10019" unicode="&#x412;" horiz-adv-x="1146" 
d="M174 0v1290h451q166 0 267 -93t101 -234q0 -131 -92 -215q-43 -39 -92 -62q72 -27 123 -70q123 -96 123 -247q0 -157 -114.5 -263t-295.5 -106h-471zM276 92h369q128 0 217.5 83.5t89.5 193.5q0 103 -90 184.5t-217 81.5h-369v-543zM276 727h349q121 0 193.5 67t72.5 169
t-72.5 168.5t-193.5 66.5h-349v-471z" />
    <glyph glyph-name="afii10020" unicode="&#x413;" horiz-adv-x="911" 
d="M174 0v1290h717v-92h-615v-1198h-102z" />
    <glyph glyph-name="afii10021" unicode="&#x414;" horiz-adv-x="1218" 
d="M-10 -276v368h71q40 29 68 64q69 85 86 192l123 942h676v-1198h143v-368h-102v276h-963v-276h-102zM195 92h716v1106h-481l-113 -850q-20 -124 -69 -192q-20 -31 -53 -64z" />
    <glyph glyph-name="afii10022" unicode="&#x415;" horiz-adv-x="1075" 
d="M174 0v1290h778v-92h-676v-481h625v-92h-625v-533h697v-92h-799z" />
    <glyph glyph-name="afii10024" unicode="&#x416;" horiz-adv-x="1392" 
d="M0 0l522 655l-481 635h123l481 -635v635h103v-635l481 635h123l-482 -635l523 -655h-123l-522 655v-655h-103v655l-522 -655h-123z" />
    <glyph glyph-name="afii10025" unicode="&#x417;" horiz-adv-x="993" 
d="M61 348h103q18 -122 101.5 -194t226.5 -72q134 0 220.5 78.5t86.5 187.5t-86.5 187.5t-220.5 78.5h-93v93h82q127 0 207 71t80 174q0 109 -79.5 182.5t-207.5 73.5q-121 0 -199.5 -73t-86.5 -183h-103q8 150 115.5 249t273.5 99q174 0 281.5 -99t107.5 -249
q0 -131 -108 -223q-41 -36 -107 -63q69 -24 123 -68q123 -96 123 -250q0 -150 -114 -254t-295 -104q-186 0 -299.5 99.5t-131.5 258.5z" />
    <glyph glyph-name="afii10026" unicode="&#x418;" horiz-adv-x="1249" 
d="M174 0v1290h102v-1106l707 1106h92v-1290h-102v1106l-707 -1106h-92z" />
    <glyph glyph-name="afii10027" unicode="&#x419;" horiz-adv-x="1249" 
d="M174 0v1290h102v-1106l707 1106h92v-1290h-102v1106l-707 -1106h-92zM389 1649h82q8 -56 51 -94.5t103 -38.5t102.5 38.5t50.5 94.5h82q-8 -94 -72.5 -154.5t-162.5 -60.5t-163 60.5t-73 154.5z" />
    <glyph glyph-name="afii10028" unicode="&#x41a;" horiz-adv-x="1003" 
d="M174 0v1290h102v-635l553 635h134l-564 -635l605 -655h-134l-594 655v-655h-102z" />
    <glyph glyph-name="afii10029" unicode="&#x41b;" horiz-adv-x="1259" 
d="M10 0v82h31q102 0 163.5 71.5t71.5 215.5l72 921h737v-1290h-102v1198h-543l-61 -829q-13 -186 -96 -282.5t-211 -96.5q-15 0 -43 4z" />
    <glyph glyph-name="afii10030" unicode="&#x41c;" horiz-adv-x="1536" 
d="M174 0v1290h92l502 -1116l502 1116h92v-1290h-102v1024l-461 -1024h-62l-461 1024v-1024h-102z" />
    <glyph glyph-name="afii10031" unicode="&#x41d;" horiz-adv-x="1249" 
d="M174 0v1290h102v-583h697v583h102v-1290h-102v614h-697v-614h-102z" />
    <glyph glyph-name="afii10032" unicode="&#x41e;" horiz-adv-x="1351" 
d="M676 -10q-114 0 -220 48.5t-186.5 133t-129 208.5t-48.5 265t48.5 265t129 208.5t186.5 133t220 48.5t220 -48.5t186.5 -133t129 -208.5t48.5 -265t-48.5 -265t-129 -208.5t-186.5 -133t-220 -48.5zM676 82q96 0 183.5 41.5t153.5 113.5t105 178.5t39 229.5t-39 229.5
t-105 178.5t-153.5 113.5t-183.5 41.5t-183.5 -41.5t-153.5 -113.5t-105 -178.5t-39 -229.5t39 -229.5t105 -178.5t153.5 -113.5t183.5 -41.5z" />
    <glyph glyph-name="afii10033" unicode="&#x41f;" horiz-adv-x="1239" 
d="M174 0v1290h891v-1290h-102v1198h-687v-1198h-102z" />
    <glyph glyph-name="afii10034" unicode="&#x420;" horiz-adv-x="1064" 
d="M174 0v1290h410q167 0 283 -113.5t116 -275.5t-116 -275.5t-283 -113.5h-308v-512h-102zM276 604h308q123 0 210 87t87 210t-87 210t-210 87h-308v-594z" />
    <glyph glyph-name="afii10035" unicode="&#x421;" horiz-adv-x="1290" 
d="M1106 430h102q-64 -201 -201 -320.5t-331 -119.5q-114 0 -220 48.5t-186.5 133t-129 208.5t-48.5 265t48.5 265t129 208.5t186.5 133t220 48.5q193 0 329.5 -120.5t192.5 -319.5h-102q-49 160 -156.5 254t-263.5 94q-96 0 -183.5 -41.5t-153.5 -113.5t-105 -178.5
t-39 -229.5t39 -229.5t105 -178.5t153.5 -113.5t183.5 -41.5q155 0 264 93.5t166 254.5z" />
    <glyph glyph-name="afii10036" unicode="&#x422;" 
d="M440 0v1198h-399v92h901v-92h-399v-1198h-103z" />
    <glyph glyph-name="afii10037" unicode="&#x423;" horiz-adv-x="1024" 
d="M154 0v82l20 -6q28 -4 51 -4q60 0 103 39t82 125l61 133l-440 921h112l379 -809h10q39 84 56 127l123 279l180 403h113l-482 -1054q-62 -140 -125.5 -198t-160.5 -58q-33 0 -60 10q-11 3 -22 10z" />
    <glyph glyph-name="afii10038" unicode="&#x424;" horiz-adv-x="1474" 
d="M686 -10v174q-184 5 -320 73t-205 179t-69 250q0 104 40.5 193.5t115 156.5t187.5 107t251 44v123h102v-123q138 -4 251 -44t187.5 -107t115 -156.5t40.5 -193.5q0 -139 -69 -250t-205 -179t-320 -73v-174h-102zM686 256v819q-233 -7 -362 -121t-129 -288
q0 -175 129.5 -289t361.5 -121zM788 1075v-819q233 7 362.5 121.5t129.5 288.5t-129.5 288t-362.5 121z" />
    <glyph glyph-name="afii10039" unicode="&#x425;" horiz-adv-x="1064" 
d="M41 0l430 655l-410 635h123l348 -553l349 553h123l-410 -635l430 -655h-123l-369 573l-368 -573h-123z" />
    <glyph glyph-name="afii10040" unicode="&#x426;" horiz-adv-x="1239" 
d="M174 0v1290h102v-1198h666v1198h102v-1198h144v-368h-103v276h-911z" />
    <glyph glyph-name="afii10041" unicode="&#x427;" horiz-adv-x="1177" 
d="M901 0v532q-42 -33 -96 -61q-116 -61 -242 -61q-192 0 -306 113.5t-114 305.5v461h103v-461q0 -153 84.5 -240t232.5 -87q126 0 242 61q51 26 96 62v665h103v-1290h-103z" />
    <glyph glyph-name="afii10042" unicode="&#x428;" horiz-adv-x="1699" 
d="M174 0v1290h102v-1198h523v1198h102v-1198h522v1198h103v-1290h-1352z" />
    <glyph glyph-name="afii10043" unicode="&#x429;" horiz-adv-x="1720" 
d="M174 0v1290h102v-1198h523v1198h102v-1198h522v1198h103v-1198h143v-368h-102v276h-1393z" />
    <glyph glyph-name="afii10044" unicode="&#x42a;" horiz-adv-x="1198" 
d="M307 0v1198h-307v92h410v-512h317q167 0 283 -113.5t116 -275.5t-116 -275.5t-283 -113.5h-420zM410 92h317q123 0 210 87t87 210t-87 210t-210 87h-317v-594z" />
    <glyph glyph-name="afii10045" unicode="&#x42b;" horiz-adv-x="1433" 
d="M1157 0v1290h103v-1290h-103zM174 0v1290h102v-512h297q167 0 283.5 -113.5t116.5 -275.5t-116.5 -275.5t-283.5 -113.5h-399zM276 92h297q123 0 210 87t87 210t-87 210t-210 87h-297v-594z" />
    <glyph glyph-name="afii10046" unicode="&#x42c;" horiz-adv-x="1064" 
d="M174 0v1290h102v-512h318q167 0 283 -113.5t116 -275.5t-116 -275.5t-283 -113.5h-420zM276 92h318q123 0 210 87t87 210t-87 210t-210 87h-318v-594z" />
    <glyph glyph-name="afii10047" unicode="&#x42d;" horiz-adv-x="1269" 
d="M72 399h102q47 -138 157 -227.5t263 -89.5q198 0 333.5 149t147.5 373h-553v92h553q-3 74 -25.5 147.5t-65 139t-99 116t-132 80t-159.5 29.5q-153 0 -262 -90t-148 -227h-102q46 177 183 293t329 116q114 0 220 -48.5t186.5 -133t129 -208.5t48.5 -265t-48.5 -265
t-129 -208.5t-186.5 -133t-220 -48.5q-191 0 -328 115t-194 294z" />
    <glyph glyph-name="afii10048" unicode="&#x42e;" horiz-adv-x="1720" 
d="M174 0v1290h102v-604h226q17 269 175 441.5t388 172.5q111 0 213 -47t180 -130.5t124 -207.5t46 -270t-46 -270t-124 -207.5t-180 -130.5t-213 -47q-110 0 -209.5 44.5t-174.5 123t-123 191.5t-56 245h-226v-594h-102zM1065 82q92 0 175.5 39.5t147 110.5t101 178
t37.5 235t-37.5 235t-101 178t-147 110.5t-175.5 39.5q-93 0 -176.5 -39.5t-147 -110.5t-100.5 -178t-37 -235t37.5 -235t101 -178t147 -110.5t175.5 -39.5z" />
    <glyph glyph-name="afii10049" unicode="&#x42f;" horiz-adv-x="1126" 
d="M82 0l338 563q-88 19 -150 64q-147 101 -147 295q0 155 111 261.5t278 106.5h440v-1290h-102v553h-328l-317 -553h-123zM512 645h338v553h-338q-122 0 -204.5 -80t-82.5 -196t82.5 -196.5t204.5 -80.5z" />
    <glyph glyph-name="afii10065" unicode="&#x430;" horiz-adv-x="931" 
d="M707 369v82h-113q-410 0 -410 -205q0 -66 62.5 -115t173.5 -49q130 0 208.5 78t78.5 209zM737 0l-30 133h-11q-29 -44 -67 -72q-86 -71 -219 -71q-149 0 -233.5 72t-84.5 184q0 134 120.5 215.5t381.5 81.5h113v51q0 101 -64 163t-172 62q-191 0 -246 -164h-92
q18 107 108.5 181.5t229.5 74.5q147 0 237.5 -88.5t90.5 -228.5v-594h-62z" />
    <glyph glyph-name="afii10066" unicode="&#x431;" horiz-adv-x="993" 
d="M174 655h10q27 58 76 107q108 108 252 108q169 0 284 -125t115 -315t-115 -315t-284 -125q-85 0 -160.5 36.5t-133.5 105.5t-92 178t-34 243q0 200 36.5 332.5t124 221t223 133t343.5 60.5v-92q-174 -9 -292.5 -43.5t-194.5 -103t-112.5 -166.5t-45.5 -240zM512 82
q127 0 217 96.5t90 251.5q0 150 -90.5 249t-216.5 99t-216.5 -99t-90.5 -249t90.5 -249t216.5 -99z" />
    <glyph glyph-name="afii10067" unicode="&#x432;" horiz-adv-x="901" 
d="M143 0v901h359q121 0 198.5 -67.5t77.5 -167.5q0 -89 -67 -152q-28 -28 -66 -43q36 -14 82 -47q82 -66 82 -168q0 -107 -80.5 -181.5t-196.5 -74.5h-389zM236 512h266q83 0 133.5 45t50.5 109q0 57 -51.5 100t-132.5 43h-266v-297zM236 92h296q76 0 130.5 50.5
t54.5 113.5t-54.5 113.5t-130.5 50.5h-296v-328z" />
    <glyph glyph-name="afii10068" unicode="&#x433;" horiz-adv-x="737" 
d="M143 0v901h574v-92h-481v-809h-93z" />
    <glyph glyph-name="afii10069" unicode="&#x434;" horiz-adv-x="993" 
d="M0 -236v328h51q27 12 60 45q60 64 73 170l62 594h563v-809h133v-328h-92v236h-758v-236h-92zM164 92h553v717h-389l-52 -502q-10 -106 -63 -170q-24 -31 -49 -45z" />
    <glyph glyph-name="afii10070" unicode="&#x435;" horiz-adv-x="993" 
d="M768 225h113q-41 -97 -137 -166t-232 -69q-185 0 -307.5 131t-122.5 330q0 198 121 329t299 131q169 0 289 -123.5t120 -306.5q0 -9 -6 -51l-4 -20h-727q17 -149 108.5 -238.5t229.5 -89.5q151 0 256 143zM174 502h645q-17 140 -105.5 228.5t-211.5 88.5
q-122 0 -212.5 -88.5t-115.5 -228.5z" />
    <glyph glyph-name="afii10072" unicode="&#x436;" horiz-adv-x="1177" 
d="M0 0l430 471l-389 430h123l379 -430v430h92v-430l379 430h123l-389 -430l430 -471h-123l-420 471v-471h-92v471l-420 -471h-123z" />
    <glyph glyph-name="afii10073" unicode="&#x437;" horiz-adv-x="768" 
d="M61 266h93q18 -90 74 -137t161 -47q90 0 147.5 51.5t57.5 122.5q0 66 -55 115t-150 49h-92v92h82q93 0 143.5 47t50.5 107q0 66 -49.5 109.5t-144.5 43.5q-88 0 -142.5 -45t-72.5 -119h-92q8 104 94.5 180t212.5 76t206.5 -69.5t80.5 -165.5q0 -92 -72 -160
q-44 -35 -72 -45q36 -14 82 -47q82 -66 82 -168q0 -108 -84.5 -187t-212.5 -79q-142 0 -231 78.5t-97 197.5z" />
    <glyph glyph-name="afii10074" unicode="&#x438;" horiz-adv-x="1024" 
d="M143 0v901h93v-747l563 747h82v-901h-93v748l-563 -748h-82z" />
    <glyph glyph-name="afii10075" unicode="&#x439;" horiz-adv-x="1024" 
d="M143 0v901h93v-747l563 747h82v-901h-93v748l-563 -748h-82zM287 1270h82q8 -57 46 -95t97 -38t97 38t46 95h82q-8 -93 -70.5 -154t-154.5 -61t-154.5 61t-70.5 154z" />
    <glyph glyph-name="afii10076" unicode="&#x43a;" horiz-adv-x="808" 
d="M143 0v901h93v-430l409 430h123l-410 -430l451 -471h-123l-450 471v-471h-93z" />
    <glyph glyph-name="afii10077" unicode="&#x43b;" 
d="M0 0v82h41q65 0 109.5 56.5t54.5 168.5l51 594h584v-901h-92v809h-410l-41 -502q-13 -163 -75.5 -240t-160.5 -77q-15 0 -43 4z" />
    <glyph glyph-name="afii10078" unicode="&#x43c;" horiz-adv-x="1187" 
d="M143 0v901h93l358 -788l358 788h92v-901h-92v696l-317 -696h-82l-317 696v-696h-93z" />
    <glyph glyph-name="afii10079" unicode="&#x43d;" horiz-adv-x="1024" 
d="M143 0v901h93v-389h552v389h93v-901h-93v420h-552v-420h-93z" />
    <glyph glyph-name="afii10080" unicode="&#x43e;" horiz-adv-x="1003" 
d="M82 451q0 198 121 329t299 131t299 -131t121 -329t-121 -329.5t-299 -131.5t-299 131.5t-121 329.5zM829 451q0 157 -97 262.5t-230 105.5t-230.5 -105.5t-97.5 -262.5t97.5 -263t230.5 -106t230 106t97 263z" />
    <glyph glyph-name="afii10081" unicode="&#x43f;" horiz-adv-x="1024" 
d="M143 0v901h738v-901h-93v809h-552v-809h-93z" />
    <glyph glyph-name="afii10082" unicode="&#x440;" horiz-adv-x="1054" 
d="M143 -328v1229h62l31 -153h10q27 41 76 81q102 82 231 82q178 0 299 -131t121 -329t-121 -329.5t-299 -131.5q-129 0 -231 82q-48 39 -76 82h-10v-482h-93zM553 82q133 0 230.5 106t97.5 263t-97.5 262.5t-230.5 105.5t-230.5 -105.5t-97.5 -262.5t97.5 -263t230.5 -106z
" />
    <glyph glyph-name="afii10083" unicode="&#x441;" horiz-adv-x="962" 
d="M788 307h103q-40 -145 -140 -231t-249 -86q-178 0 -299 131.5t-121 329.5t121 329t299 131q149 0 249 -86t140 -231h-103q-33 98 -107.5 161.5t-178.5 63.5q-133 0 -230.5 -105.5t-97.5 -262.5t97.5 -263t230.5 -106q104 0 178.5 63.5t107.5 161.5z" />
    <glyph glyph-name="afii10084" unicode="&#x442;" horiz-adv-x="768" 
d="M338 0v809h-307v92h706v-92h-307v-809h-92z" />
    <glyph glyph-name="afii10085" unicode="&#x443;" horiz-adv-x="880" 
d="M133 -328v82h41q60 0 95.5 32t68.5 112l51 122l-358 881h102l307 -768l308 768h102l-410 -1003q-48 -125 -104 -180.5t-141 -55.5q-15 0 -43 4z" />
    <glyph glyph-name="afii10086" unicode="&#x444;" horiz-adv-x="1402" 
d="M748 717v-533q24 -31 53 -51q66 -51 151 -51q112 0 194.5 100t82.5 269t-82.5 268.5t-194.5 99.5q-80 0 -151 -51q-29 -20 -53 -51zM655 -328v410q-24 -24 -57 -47q-76 -45 -147 -45q-159 0 -264 123t-105 338q0 214 104.5 337t264.5 123q67 0 147 -47q30 -21 57 -45v471
h93v-471q22 25 55 45q72 47 149 47q160 0 264.5 -123t104.5 -337q0 -215 -105 -338t-264 -123q-81 0 -149 45q-35 21 -55 47v-410h-93zM655 184v533q-24 31 -53 51q-71 51 -151 51q-114 0 -195.5 -99.5t-81.5 -268.5t81.5 -269t195.5 -100q85 0 151 51q29 20 53 51z" />
    <glyph glyph-name="afii10087" unicode="&#x445;" horiz-adv-x="757" 
d="M0 0l317 461l-297 440h113l246 -369l246 369h112l-297 -440l318 -461h-113l-266 389l-266 -389h-113z" />
    <glyph glyph-name="afii10088" unicode="&#x446;" horiz-adv-x="1044" 
d="M143 0v901h93v-809h532v809h92v-809h133v-328h-92v236h-758z" />
    <glyph glyph-name="afii10089" unicode="&#x447;" horiz-adv-x="942" 
d="M707 0v369q-44 -27 -76 -41q-84 -41 -191 -41q-148 0 -232.5 84.5t-84.5 232.5v297h92v-297q0 -101 64 -163t172 -62q90 0 182 45q41 21 74 47v430h92v-901h-92z" />
    <glyph glyph-name="afii10090" unicode="&#x448;" horiz-adv-x="1361" 
d="M143 0v901h93v-809h399v809h92v-809h399v809h93v-901h-1076z" />
    <glyph glyph-name="afii10091" unicode="&#x449;" horiz-adv-x="1402" 
d="M143 0v901h93v-809h399v809h92v-809h399v809h93v-809h133v-328h-92v236h-1117z" />
    <glyph glyph-name="afii10092" unicode="&#x44a;" horiz-adv-x="952" 
d="M236 0v809h-236v92h328v-328h256q137 0 222 -81t85 -205t-85.5 -205.5t-221.5 -81.5h-348zM328 92h256q99 0 157 54t58 141t-58 140.5t-157 53.5h-256v-389z" />
    <glyph glyph-name="afii10093" unicode="&#x44b;" horiz-adv-x="1167" 
d="M932 0v901h92v-901h-92zM143 0v901h93v-328h235q137 0 222 -81t85 -205t-85 -205.5t-222 -81.5h-328zM236 92h235q99 0 157 54t58 141t-58 140.5t-157 53.5h-235v-389z" />
    <glyph glyph-name="afii10094" unicode="&#x44c;" horiz-adv-x="860" 
d="M143 0v901h93v-328h256q137 0 222 -81t85 -205t-85.5 -205.5t-221.5 -81.5h-349zM236 92h256q99 0 157 54t58 141t-58 140.5t-157 53.5h-256v-389z" />
    <glyph glyph-name="afii10095" unicode="&#x44d;" horiz-adv-x="952" 
d="M61 297h103q89 -215 287 -215q128 0 218.5 93.5t108.5 234.5h-379v92h379q-18 133 -109 225t-218 92q-198 0 -287 -215h-103q38 136 140.5 221.5t249.5 85.5q178 0 298.5 -131t120.5 -329t-120.5 -329.5t-298.5 -131.5q-147 0 -249.5 85.5t-140.5 221.5z" />
    <glyph glyph-name="afii10096" unicode="&#x44e;" horiz-adv-x="1300" 
d="M143 0v901h93v-399h184q12 113 63 205t139 148t197 56q169 0 284.5 -131t115.5 -329t-115.5 -329.5t-284.5 -131.5q-165 0 -278 123.5t-121 296.5h-184v-410h-93zM819 82q125 0 216 106t91 263t-91 262.5t-216 105.5t-216 -105.5t-91 -262.5t91 -263t216 -106z" />
    <glyph glyph-name="afii10097" unicode="&#x44f;" horiz-adv-x="921" 
d="M410 440h276v369h-276q-91 0 -148 -52.5t-57 -131.5t57 -132t148 -53zM82 0l246 358q-60 18 -109 54q-106 75 -106 213q0 117 84 196.5t213 79.5h368v-901h-92v348h-256l-235 -348h-113z" />
    <glyph glyph-name="uni0450" unicode="&#x450;" horiz-adv-x="993" 
d="M768 225h113q-41 -97 -137 -166t-232 -69q-185 0 -307.5 131t-122.5 330q0 198 121 329t299 131q169 0 289 -123.5t120 -306.5q0 -9 -6 -51l-4 -20h-727q17 -149 108.5 -238.5t229.5 -89.5q151 0 256 143zM174 502h645q-17 140 -105.5 228.5t-211.5 88.5
q-122 0 -212.5 -88.5t-115.5 -228.5zM481 1065l-174 246h123l123 -246h-72z" />
    <glyph glyph-name="afii10071" unicode="&#x451;" horiz-adv-x="993" 
d="M768 225h113q-41 -97 -137 -166t-232 -69q-185 0 -307.5 131t-122.5 330q0 198 121 329t299 131q169 0 289 -123.5t120 -306.5q0 -9 -6 -51l-4 -20h-727q17 -149 108.5 -238.5t229.5 -89.5q151 0 256 143zM174 502h645q-17 140 -105.5 228.5t-211.5 88.5
q-122 0 -212.5 -88.5t-115.5 -228.5zM584 1178q0 31 20 51t51 20t51.5 -20t20.5 -51t-20.5 -51.5t-51.5 -20.5t-51 20.5t-20 51.5zM276 1178q0 31 20.5 51t51.5 20t51.5 -20t20.5 -51t-20.5 -51.5t-51.5 -20.5t-51.5 20.5t-20.5 51.5z" />
    <glyph glyph-name="afii10099" unicode="&#x452;" horiz-adv-x="1024" 
d="M184 0v1004h-164v92h164v194h92v-194h297v-92h-297v-318h11q20 34 65 72q95 71 221 71q158 0 258.5 -114t100.5 -316q0 -227 -102 -355t-257 -136v92q116 19 191.5 118t75.5 281q0 157 -78.5 247.5t-198.5 90.5q-123 0 -205 -81.5t-82 -204.5v-451h-92z" />
    <glyph glyph-name="afii10100" unicode="&#x453;" horiz-adv-x="737" 
d="M143 0v901h574v-92h-481v-809h-93zM379 1065l123 246h123l-174 -246h-72z" />
    <glyph glyph-name="afii10101" unicode="&#x454;" horiz-adv-x="962" 
d="M174 502h379v-92h-379q18 -141 109 -234.5t219 -93.5q197 0 286 215h103q-38 -137 -140 -222t-249 -85q-178 0 -299 131.5t-121 329.5t121 329t299 131q147 0 249 -85t140 -222h-103q-89 215 -286 215q-127 0 -218.5 -92t-109.5 -225z" />
    <glyph glyph-name="afii10102" unicode="&#x455;" horiz-adv-x="808" 
d="M92 266h92q37 -184 236 -184q96 0 155.5 51t59.5 123q0 50 -29 83.5t-75 50t-101.5 29t-111 27.5t-101.5 38.5t-75 69t-29 112.5q0 103 81 174t216 71q126 0 212.5 -76t94.5 -180h-92q-18 74 -72.5 119t-142.5 45q-96 0 -150.5 -44t-54.5 -109q0 -48 29 -79t75 -46.5
t101.5 -27t111 -27t101.5 -40t75 -72.5t29 -118q0 -109 -86.5 -187.5t-220.5 -78.5q-142 0 -231 78.5t-97 197.5z" />
    <glyph glyph-name="afii10103" unicode="&#x456;" horiz-adv-x="378" 
d="M143 0v901h93v-901h-93zM123 1188q0 31 20.5 51.5t51.5 20.5t51 -20.5t20 -51.5t-20 -51.5t-51 -20.5t-51.5 20.5t-20.5 51.5z" />
    <glyph glyph-name="afii10104" unicode="&#x457;" horiz-adv-x="378" 
d="M143 0v901h93v-901h-93zM266 1178q0 31 20.5 51t51.5 20t51.5 -20t20.5 -51t-20.5 -51.5t-51.5 -20.5t-51.5 20.5t-20.5 51.5zM-41 1178q0 31 20.5 51t51.5 20t51 -20t20 -51t-20 -51.5t-51 -20.5t-51.5 20.5t-20.5 51.5z" />
    <glyph glyph-name="afii10105" unicode="&#x458;" horiz-adv-x="378" 
d="M-82 -317v81l16 -6q28 -4 46 -4q79 0 121 44t42 130v973h93v-973q0 -121 -67 -193.5t-169 -72.5q-32 0 -59 10q-10 3 -23 11zM123 1188q0 31 20.5 51.5t51.5 20.5t51 -20.5t20 -51.5t-20 -51.5t-51 -20.5t-51.5 20.5t-20.5 51.5z" />
    <glyph glyph-name="afii10106" unicode="&#x459;" horiz-adv-x="1413" 
d="M0 0v82h41q65 0 109.5 56.5t54.5 168.5l51 594h543v-328h245q137 0 222.5 -81t85.5 -205t-85.5 -205.5t-222.5 -81.5h-337v809h-369l-41 -502q-13 -163 -75.5 -240t-160.5 -77q-15 0 -43 4zM799 92h245q99 0 157.5 54t58.5 141t-58.5 140.5t-157.5 53.5h-245v-389z" />
    <glyph glyph-name="afii10107" unicode="&#x45a;" horiz-adv-x="1454" 
d="M143 0v901h93v-348h512v348h92v-348h245q136 0 222 -79.5t86 -197.5q0 -117 -86 -196.5t-222 -79.5h-337v461h-512v-461h-93zM840 92h245q98 0 156.5 52t58.5 132t-58.5 132.5t-156.5 52.5h-245v-369z" />
    <glyph glyph-name="afii10108" unicode="&#x45b;" horiz-adv-x="1064" 
d="M184 0v1004h-164v92h164v194h92v-194h297v-92h-297v-318h11q20 34 65 72q95 71 221 71q155 0 257 -106t102 -272v-451h-92v451q0 122 -80.5 204t-196.5 82q-123 0 -205 -81.5t-82 -204.5v-451h-92z" />
    <glyph glyph-name="afii10109" unicode="&#x45c;" horiz-adv-x="808" 
d="M143 0v901h93v-430l409 430h123l-410 -430l451 -471h-123l-450 471v-471h-93zM399 1065l123 246h123l-174 -246h-72z" />
    <glyph glyph-name="uni045D" unicode="&#x45d;" horiz-adv-x="1024" 
d="M143 0v901h93v-747l563 747h82v-901h-93v748l-563 -748h-82zM502 1065l-174 246h123l122 -246h-71z" />
    <glyph glyph-name="afii10110" unicode="&#x45e;" horiz-adv-x="880" 
d="M133 -328v82h41q60 0 95.5 32t68.5 112l51 122l-358 881h102l307 -768l308 768h102l-410 -1003q-48 -125 -104 -180.5t-141 -55.5q-15 0 -43 4zM215 1270h82q8 -57 46 -95t97 -38t97.5 38t46.5 95h82q-8 -93 -71 -154t-155 -61t-154.5 61t-70.5 154z" />
    <glyph glyph-name="afii10193" unicode="&#x45f;" horiz-adv-x="1003" 
d="M143 0v901h93v-809h532v809h92v-901h-317v-236h-82v236h-318z" />
    <glyph glyph-name="afii10050" unicode="&#x490;" horiz-adv-x="911" 
d="M174 0v1290h614v236h103v-328h-615v-1198h-102z" />
    <glyph glyph-name="afii10098" unicode="&#x491;" horiz-adv-x="737" 
d="M143 0v901h482v215h92v-307h-481v-809h-93z" />
    <glyph glyph-name="uni0492" unicode="&#x492;" 
d="M225 0v604h-174v92h174v594h717v-92h-614v-502h450v-92h-450v-604h-103z" />
    <glyph glyph-name="uni0493" unicode="&#x493;" horiz-adv-x="757" 
d="M154 0v389h-134v92h134v420h573v-92h-481v-328h368v-92h-368v-389h-92z" />
    <glyph glyph-name="uni0494" unicode="&#x494;" horiz-adv-x="1105" 
d="M174 0v1290h717v-92h-615v-543q34 49 80 86q113 88 248 88q177 0 293.5 -124t116.5 -316q0 -221 -120 -347t-331 -134v92q164 8 256 107t92 282q0 154 -88.5 251t-228.5 97q-130 0 -224 -95t-94 -232v-410h-102z" />
    <glyph glyph-name="uni0495" unicode="&#x495;" horiz-adv-x="942" 
d="M492 -369v93q119 0 202.5 96.5t83.5 251.5q0 162 -77.5 255t-188.5 93t-193.5 -80t-82.5 -205v-135h-93v901h574v-92h-481v-455q30 48 65 78q96 80 211 80q152 0 255 -119.5t103 -320.5q0 -203 -106.5 -322t-271.5 -119z" />
    <glyph glyph-name="uni0496" unicode="&#x496;" horiz-adv-x="1423" 
d="M0 0l522 655l-481 635h123l481 -635v635h103v-635l481 635h123l-482 -635l449 -563h104v-368h-102v276h-51l-522 655v-655h-103v655l-522 -655h-123z" />
    <glyph glyph-name="uni0497" unicode="&#x497;" horiz-adv-x="1228" 
d="M0 0l430 471l-389 430h123l379 -430v430h92v-430l379 430h123l-389 -430l348 -379h133v-328h-92v236h-82l-420 471v-471h-92v471l-420 -471h-123z" />
    <glyph glyph-name="uni049A" unicode="&#x49a;" horiz-adv-x="1034" 
d="M174 0v1290h102v-635l553 635h134l-564 -635l519 -563h116v-368h-102v276h-62l-594 655v-655h-102z" />
    <glyph glyph-name="uni049B" unicode="&#x49b;" horiz-adv-x="860" 
d="M143 0v901h93v-430l409 430h123l-410 -430l363 -379h139v-328h-92v236h-82l-450 471v-471h-93z" />
    <glyph glyph-name="uni049C" unicode="&#x49c;" horiz-adv-x="1116" 
d="M174 0v1290h102v-594h62v195h102v-195h31l471 594h133l-512 -635l553 -655h-133l-500 604h-43v-194h-102v194h-62v-604h-102z" />
    <glyph glyph-name="uni049D" unicode="&#x49d;" horiz-adv-x="880" 
d="M143 0v901h93v-389h71v195h82v-195h21l317 389h113l-348 -420l389 -481h-113l-348 420h-31v-174h-82v174h-71v-420h-93z" />
    <glyph glyph-name="uni04A2" unicode="&#x4a2;" horiz-adv-x="1269" 
d="M174 0v1290h102v-583h697v583h102v-1198h144v-368h-103v276h-143v614h-697v-614h-102z" />
    <glyph glyph-name="uni04A3" unicode="&#x4a3;" horiz-adv-x="1064" 
d="M143 0v901h93v-389h552v389h93v-809h133v-328h-92v236h-134v420h-552v-420h-93z" />
    <glyph glyph-name="uni04AE" unicode="&#x4ae;" horiz-adv-x="1024" 
d="M461 0v512l-430 778h112l369 -676l369 676h112l-430 -778v-512h-102z" />
    <glyph glyph-name="uni04AF" unicode="&#x4af;" horiz-adv-x="880" 
d="M393 -328v342l-362 887h102l307 -768l308 768h102l-363 -887v-342h-94z" />
    <glyph glyph-name="uni04B0" unicode="&#x4b0;" horiz-adv-x="1024" 
d="M461 0v399h-277v93h277v20l-430 778h112l369 -676l369 676h112l-430 -778v-20h277v-93h-277v-399h-102z" />
    <glyph glyph-name="uni04B1" unicode="&#x4b1;" horiz-adv-x="880" 
d="M393 -328v236h-219v92h219v14l-362 887h102l307 -768l308 768h102l-363 -887v-14h220v-92h-220v-236h-94z" />
    <glyph glyph-name="uni04B2" unicode="&#x4b2;" horiz-adv-x="1064" 
d="M41 0l430 655l-410 635h123l348 -553l349 553h123l-410 -635l369 -563h92v-368h-103v276h-51l-369 573l-368 -573h-123z" />
    <glyph glyph-name="uni04B3" unicode="&#x4b3;" horiz-adv-x="849" 
d="M31 0l317 461l-297 440h113l246 -369l245 369h113l-297 -440l254 -369h125v-328h-92v236h-82l-266 389l-267 -389h-112z" />
    <glyph glyph-name="uni04B6" unicode="&#x4b6;" horiz-adv-x="1198" 
d="M1044 -276v276h-143v532q-42 -33 -96 -61q-116 -61 -242 -61q-192 0 -306 113.5t-114 305.5v461h103v-461q0 -153 84.5 -240t232.5 -87q126 0 242 61q51 26 96 62v665h103v-1198h143v-368h-103z" />
    <glyph glyph-name="uni04B7" unicode="&#x4b7;" 
d="M840 -236v236h-133v369q-44 -27 -76 -41q-84 -41 -191 -41q-148 0 -232.5 84.5t-84.5 232.5v297h92v-297q0 -101 64 -163t172 -62q90 0 182 45q41 21 74 47v430h92v-809h133v-328h-92z" />
    <glyph glyph-name="uni04B8" unicode="&#x4b8;" horiz-adv-x="1177" 
d="M522 225v185q-177 12 -278 124t-101 295v461h103v-461q0 -142 73 -227.5t203 -97.5v192h103v-190q99 12 198 67q30 15 78 52v665h103v-1290h-103v532q-45 -35 -78 -51q-99 -55 -198 -67v-189h-103z" />
    <glyph glyph-name="uni04B9" unicode="&#x4b9;" horiz-adv-x="942" 
d="M420 113v174q-137 6 -217 91t-80 226v297h92v-297q0 -94 54.5 -154.5t150.5 -70.5v194h82v-190q81 11 145 49q30 16 60 39v430h92v-901h-92v369q-25 -19 -58 -33q-77 -35 -147 -45v-178h-82z" />
    <glyph glyph-name="uni04BA" unicode="&#x4ba;" horiz-adv-x="1177" 
d="M174 0v1290h102v-532q40 32 97 61q118 62 241 62q192 0 306 -114t114 -306v-461h-102v461q0 153 -85 240t-233 87q-125 0 -241 -61q-57 -29 -97 -61v-666h-102z" />
    <glyph glyph-name="uni04BB" unicode="&#x4bb;" horiz-adv-x="1024" 
d="M143 0v1290h93v-522h10q20 34 65 72q95 71 221 71q155 0 257 -106.5t102 -272.5v-532h-92v532q0 122 -80.5 204.5t-196.5 82.5q-123 0 -204.5 -82t-81.5 -205v-532h-93z" />
    <glyph glyph-name="uni04C1" unicode="&#x4c1;" horiz-adv-x="1392" 
d="M0 0l522 655l-481 635h123l481 -635v635h103v-635l481 635h123l-482 -635l523 -655h-123l-522 655v-655h-103v655l-522 -655h-123zM461 1649h82q8 -56 50.5 -94.5t102.5 -38.5t103 38.5t51 94.5h82q-8 -94 -73 -154.5t-163 -60.5t-162.5 60.5t-72.5 154.5z" />
    <glyph glyph-name="uni04C2" unicode="&#x4c2;" horiz-adv-x="1177" 
d="M0 0l430 471l-389 430h123l379 -430v430h92v-430l379 430h123l-389 -430l430 -471h-123l-420 471v-471h-92v471l-420 -471h-123zM369 1280h82q8 -57 46 -95t97 -38t97 38t46 95h82q-8 -93 -70.5 -154t-154.5 -61t-154.5 61t-70.5 154z" />
    <glyph glyph-name="uni04D2" unicode="&#x4d2;" horiz-adv-x="1085" 
d="M0 0l502 1290h82l501 -1290h-112l-133 348h-594l-133 -348h-113zM276 440h533l-266 686zM625 1546q0 31 20 51.5t51 20.5t51.5 -20.5t20.5 -51.5t-20.5 -51t-51.5 -20t-51 20t-20 51zM317 1546q0 31 20.5 51.5t51.5 20.5t51.5 -20.5t20.5 -51.5t-20.5 -51t-51.5 -20
t-51.5 20t-20.5 51z" />
    <glyph glyph-name="uni04D3" unicode="&#x4d3;" horiz-adv-x="931" 
d="M707 369v82h-113q-410 0 -410 -205q0 -66 62.5 -115t173.5 -49q130 0 208.5 78t78.5 209zM737 0l-30 133h-11q-29 -44 -67 -72q-86 -71 -219 -71q-149 0 -233.5 72t-84.5 184q0 134 120.5 215.5t381.5 81.5h113v51q0 101 -64 163t-172 62q-191 0 -246 -164h-92
q18 107 108.5 181.5t229.5 74.5q147 0 237.5 -88.5t90.5 -228.5v-594h-62zM573 1178q0 31 20.5 51t51.5 20t51.5 -20t20.5 -51t-20.5 -51.5t-51.5 -20.5t-51.5 20.5t-20.5 51.5zM266 1178q0 31 20.5 51t51.5 20t51.5 -20t20.5 -51t-20.5 -51.5t-51.5 -20.5t-51.5 20.5
t-20.5 51.5z" />
    <glyph glyph-name="uni04D8" unicode="&#x4d8;" horiz-adv-x="1341" 
d="M92 645v31h1055q-5 149 -73.5 272.5t-177 191.5t-230.5 68q-157 0 -264 -81.5t-166 -215.5h-103q66 174 201.5 281.5t331.5 107.5q114 0 220 -48.5t186 -133t128.5 -208.5t48.5 -265q0 -143 -48.5 -267.5t-129 -208t-186 -131.5t-219.5 -48q-115 0 -219 47t-183 130.5
t-125.5 207.5t-46.5 270zM1143 584h-948q5 -140 70.5 -256t171.5 -181t229 -65q186 0 321.5 140.5t155.5 361.5z" />
    <glyph glyph-name="uni04D9" unicode="&#x4d9;" horiz-adv-x="993" 
d="M92 492h727q-17 149 -108 238t-230 89q-89 0 -154.5 -43t-101.5 -100h-112q41 97 136.5 166t231.5 69q185 0 307.5 -130.5t122.5 -329.5q0 -198 -120.5 -329.5t-298.5 -131.5q-169 0 -289.5 124t-120.5 306q0 23 4 51zM819 399h-645q17 -140 106 -228.5t212 -88.5
q122 0 212 88t115 229z" />
    <glyph glyph-name="uni04E0" unicode="&#x4e0;" horiz-adv-x="1034" 
d="M51 358h103q26 -121 116.5 -198.5t231.5 -77.5q151 0 244.5 85.5t93.5 211.5t-93.5 211.5t-244.5 85.5h-154v82l430 440h-665v92h788v-92l-420 -430h21q196 0 318 -112t122 -277t-122 -277t-318 -112q-193 0 -309 101t-142 267z" />
    <glyph glyph-name="uni04E1" unicode="&#x4e1;" horiz-adv-x="890" 
d="M33 0h90q18 -121 94.5 -188.5t212.5 -67.5q121 0 209 83.5t88 192.5q0 108 -88 192.5t-209 84.5h-154v82l379 430h-563v92h676v-92l-369 -420h31q160 0 274.5 -110.5t114.5 -258.5t-114.5 -258t-274.5 -110q-175 0 -279 95t-118 253z" />
    <glyph glyph-name="uni04E2" unicode="&#x4e2;" horiz-adv-x="1249" 
d="M174 0v1290h102v-1106l707 1106h92v-1290h-102v1106l-707 -1106h-92zM389 1434v92h481v-92h-481z" />
    <glyph glyph-name="uni04E3" unicode="&#x4e3;" horiz-adv-x="1024" 
d="M143 0v901h93v-747l563 747h82v-901h-93v748l-563 -748h-82zM266 1075v92h482v-92h-482z" />
    <glyph glyph-name="uni04E6" unicode="&#x4e6;" horiz-adv-x="1351" 
d="M676 -10q-114 0 -220 48.5t-186.5 133t-129 208.5t-48.5 265t48.5 265t129 208.5t186.5 133t220 48.5t220 -48.5t186.5 -133t129 -208.5t48.5 -265t-48.5 -265t-129 -208.5t-186.5 -133t-220 -48.5zM676 82q96 0 183.5 41.5t153.5 113.5t105 178.5t39 229.5t-39 229.5
t-105 178.5t-153.5 113.5t-183.5 41.5t-183.5 -41.5t-153.5 -113.5t-105 -178.5t-39 -229.5t39 -229.5t105 -178.5t153.5 -113.5t183.5 -41.5zM758 1546q0 31 20 51.5t51 20.5t51.5 -20.5t20.5 -51.5t-20.5 -51t-51.5 -20t-51 20t-20 51zM451 1546q0 31 20 51.5t51 20.5
t51.5 -20.5t20.5 -51.5t-20.5 -51t-51.5 -20t-51 20t-20 51z" />
    <glyph glyph-name="uni04E7" unicode="&#x4e7;" horiz-adv-x="1003" 
d="M82 451q0 198 121 329t299 131t299 -131t121 -329t-121 -329.5t-299 -131.5t-299 131.5t-121 329.5zM829 451q0 157 -97 262.5t-230 105.5t-230.5 -105.5t-97.5 -262.5t97.5 -263t230.5 -106t230 106t97 263zM584 1178q0 31 20 51t51 20t51.5 -20t20.5 -51t-20.5 -51.5
t-51.5 -20.5t-51 20.5t-20 51.5zM276 1178q0 31 20.5 51t51.5 20t51.5 -20t20.5 -51t-20.5 -51.5t-51.5 -20.5t-51.5 20.5t-20.5 51.5z" />
    <glyph glyph-name="uni04E8" unicode="&#x4e8;" horiz-adv-x="1351" 
d="M676 -10q-114 0 -220 48.5t-186.5 133t-129 208.5t-48.5 265t48.5 265t129 208.5t186.5 133t220 48.5t220 -48.5t186.5 -133t129 -208.5t48.5 -265t-48.5 -265t-129 -208.5t-186.5 -133t-220 -48.5zM1155 604h-960q12 -231 152 -376.5t329 -145.5q190 0 328.5 145
t150.5 377zM197 696h958q-8 113 -50.5 210t-107.5 162.5t-148 102.5t-173 37q-188 0 -325 -142t-154 -370z" />
    <glyph glyph-name="uni04E9" unicode="&#x4e9;" horiz-adv-x="1003" 
d="M502 -10q-178 0 -299 131.5t-121 329.5t121 329t299 131t299 -131t121 -329t-121 -329.5t-299 -131.5zM176 492h651q-12 140 -107.5 233.5t-217.5 93.5q-125 0 -219.5 -93t-106.5 -234zM825 399h-649q17 -140 111 -228.5t215 -88.5t213.5 88.5t109.5 228.5z" />
    <glyph glyph-name="uni04EE" unicode="&#x4ee;" horiz-adv-x="1024" 
d="M154 0v82l20 -6q28 -4 51 -4q60 0 103 39t82 125l61 133l-440 921h112l379 -809h10q39 84 56 127l123 279l180 403h113l-482 -1054q-62 -140 -125.5 -198t-160.5 -58q-33 0 -60 10q-11 3 -22 10zM287 1434v92h481v-92h-481z" />
    <glyph glyph-name="uni04EF" unicode="&#x4ef;" horiz-adv-x="880" 
d="M133 -328v82h41q60 0 95.5 32t68.5 112l51 122l-358 881h102l307 -768l308 768h102l-410 -1003q-48 -125 -104 -180.5t-141 -55.5q-15 0 -43 4zM205 1075v92h481v-92h-481z" />
    <glyph glyph-name="uni04F0" unicode="&#x4f0;" horiz-adv-x="1024" 
d="M154 0v82l20 -6q28 -4 51 -4q60 0 103 39t82 125l61 133l-440 921h112l379 -809h10q39 84 56 127l123 279l180 403h113l-482 -1054q-62 -140 -125.5 -198t-160.5 -58q-33 0 -60 10q-11 3 -22 10zM614 1546q0 31 20.5 51.5t51.5 20.5t51.5 -20.5t20.5 -51.5t-20.5 -51
t-51.5 -20t-51.5 20t-20.5 51zM307 1546q0 31 20.5 51.5t51.5 20.5t51.5 -20.5t20.5 -51.5t-20.5 -51t-51.5 -20t-51.5 20t-20.5 51z" />
    <glyph glyph-name="uni04F1" unicode="&#x4f1;" horiz-adv-x="880" 
d="M133 -328v82h41q60 0 95.5 32t68.5 112l51 122l-358 881h102l307 -768l308 768h102l-410 -1003q-48 -125 -104 -180.5t-141 -55.5q-15 0 -43 4zM522 1178q0 31 20.5 51t51.5 20t51.5 -20t20.5 -51t-20.5 -51.5t-51.5 -20.5t-51.5 20.5t-20.5 51.5zM215 1178q0 31 20.5 51
t51.5 20t51 -20t20 -51t-20 -51.5t-51 -20.5t-51.5 20.5t-20.5 51.5z" />
    <glyph glyph-name="Wgrave" unicode="&#x1e80;" horiz-adv-x="1617" 
d="M430 0l-379 1290h103l317 -1095l297 1095h82l297 -1095l317 1095h103l-379 -1290h-82l-297 1096l-297 -1096h-82zM768 1434l-174 245h123l123 -245h-72z" />
    <glyph glyph-name="wgrave" unicode="&#x1e81;" horiz-adv-x="1228" 
d="M317 0l-297 901h93l235 -717l236 717h61l236 -717l235 717h92l-297 -901h-61l-236 717l-235 -717h-62zM584 1065l-174 246h122l123 -246h-71z" />
    <glyph glyph-name="Wacute" unicode="&#x1e82;" horiz-adv-x="1617" 
d="M430 0l-379 1290h103l317 -1095l297 1095h82l297 -1095l317 1095h103l-379 -1290h-82l-297 1096l-297 -1096h-82zM778 1434l123 245h123l-174 -245h-72z" />
    <glyph glyph-name="wacute" unicode="&#x1e83;" horiz-adv-x="1228" 
d="M317 0l-297 901h93l235 -717l236 717h61l236 -717l235 717h92l-297 -901h-61l-236 717l-235 -717h-62zM584 1065l123 246h122l-174 -246h-71z" />
    <glyph glyph-name="Wdieresis" unicode="&#x1e84;" horiz-adv-x="1617" 
d="M430 0l-379 1290h103l317 -1095l297 1095h82l297 -1095l317 1095h103l-379 -1290h-82l-297 1096l-297 -1096h-82zM891 1546q0 31 20.5 51.5t51.5 20.5t51 -20.5t20 -51.5t-20 -51t-51 -20t-51.5 20t-20.5 51zM584 1546q0 31 20 51.5t51 20.5t51.5 -20.5t20.5 -51.5
t-20.5 -51t-51.5 -20t-51 20t-20 51z" />
    <glyph glyph-name="wdieresis" unicode="&#x1e85;" horiz-adv-x="1228" 
d="M317 0l-297 901h93l235 -717l236 717h61l236 -717l235 717h92l-297 -901h-61l-236 717l-235 -717h-62zM696 1178q0 31 20.5 51t51.5 20t51.5 -20t20.5 -51t-20.5 -51.5t-51.5 -20.5t-51.5 20.5t-20.5 51.5zM389 1178q0 31 20.5 51t51.5 20t51 -20t20 -51t-20 -51.5
t-51 -20.5t-51.5 20.5t-20.5 51.5z" />
    <glyph glyph-name="uni1E9E" unicode="&#x1e9e;" horiz-adv-x="1187" 
d="M164 0v922q0 159 102 263.5t256 104.5h512v-82l-307 -471q161 0 270 -107t109 -261q0 -155 -109.5 -262t-269.5 -107h-143v92h143q115 0 196 81t81 196t-80.5 195.5t-196.5 80.5h-113v92l297 461h-389q-101 0 -178.5 -81t-77.5 -195v-922h-102z" />
    <glyph glyph-name="uni1EA0" unicode="&#x1ea0;" horiz-adv-x="1085" 
d="M0 0l502 1290h82l501 -1290h-112l-133 348h-594l-133 -348h-113zM276 440h533l-266 686zM471 -225q0 31 20.5 51t51.5 20t51 -20t20 -51t-20 -51.5t-51 -20.5t-51.5 20.5t-20.5 51.5z" />
    <glyph glyph-name="uni1EA1" unicode="&#x1ea1;" horiz-adv-x="931" 
d="M707 369v82h-113q-410 0 -410 -205q0 -66 62.5 -115t173.5 -49q130 0 208.5 78t78.5 209zM737 0l-30 133h-11q-29 -44 -67 -72q-86 -71 -219 -71q-149 0 -233.5 72t-84.5 184q0 134 120.5 215.5t381.5 81.5h113v51q0 101 -64 163t-172 62q-191 0 -246 -164h-92
q18 107 108.5 181.5t229.5 74.5q147 0 237.5 -88.5t90.5 -228.5v-594h-62zM389 -225q0 31 20.5 51t51.5 20t51 -20t20 -51t-20 -51.5t-51 -20.5t-51.5 20.5t-20.5 51.5z" />
    <glyph glyph-name="uni1EA2" unicode="&#x1ea2;" horiz-adv-x="1085" 
d="M0 0l502 1290h82l501 -1290h-112l-133 348h-594l-133 -348h-113zM276 440h533l-266 686zM594 1413h-82q11 11 31 39q30 54 30 94q0 39 -28 65.5t-74 26.5q-13 0 -37 -6l-14 -4v72l16 4q42 6 56 6q76 0 119.5 -40t43.5 -103q0 -53 -30 -111z" />
    <glyph glyph-name="uni1EA3" unicode="&#x1ea3;" horiz-adv-x="931" 
d="M707 369v82h-113q-410 0 -410 -205q0 -66 62.5 -115t173.5 -49q130 0 208.5 78t78.5 209zM737 0l-30 133h-11q-29 -44 -67 -72q-86 -71 -219 -71q-149 0 -233.5 72t-84.5 184q0 134 120.5 215.5t381.5 81.5h113v51q0 101 -64 163t-172 62q-191 0 -246 -164h-92
q18 107 108.5 181.5t229.5 74.5q147 0 237.5 -88.5t90.5 -228.5v-594h-62zM522 1044h-82q11 11 31 39q31 55 31 95q0 39 -28.5 65.5t-74.5 26.5q-13 0 -37 -6l-14 -4v71l17 4q42 6 55 6q76 0 120 -40t44 -103q0 -51 -31 -111z" />
    <glyph glyph-name="uni1EA4" unicode="&#x1ea4;" horiz-adv-x="1085" 
d="M0 0l502 1290h82l501 -1290h-112l-133 348h-594l-133 -348h-113zM276 440h533l-266 686zM328 1434l174 235h82l174 -235h-103l-112 163l-113 -163h-102zM707 1556l102 216h123l-154 -216h-71z" />
    <glyph glyph-name="uni1EA5" unicode="&#x1ea5;" horiz-adv-x="931" 
d="M707 369v82h-113q-410 0 -410 -205q0 -66 62.5 -115t173.5 -49q130 0 208.5 78t78.5 209zM737 0l-30 133h-11q-29 -44 -67 -72q-86 -71 -219 -71q-149 0 -233.5 72t-84.5 184q0 134 120.5 215.5t381.5 81.5h113v51q0 101 -64 163t-172 62q-191 0 -246 -164h-92
q18 107 108.5 181.5t229.5 74.5q147 0 237.5 -88.5t90.5 -228.5v-594h-62zM266 1065l174 235h82l174 -235h-102l-113 164l-112 -164h-103zM645 1188l103 215h122l-153 -215h-72z" />
    <glyph glyph-name="uni1EA6" unicode="&#x1ea6;" horiz-adv-x="1085" 
d="M0 0l502 1290h82l501 -1290h-112l-133 348h-594l-133 -348h-113zM276 440h533l-266 686zM328 1434l174 235h82l174 -235h-103l-112 163l-113 -163h-102zM768 1556l-154 216h123l103 -216h-72z" />
    <glyph glyph-name="uni1EA7" unicode="&#x1ea7;" horiz-adv-x="931" 
d="M707 369v82h-113q-410 0 -410 -205q0 -66 62.5 -115t173.5 -49q130 0 208.5 78t78.5 209zM737 0l-30 133h-11q-29 -44 -67 -72q-86 -71 -219 -71q-149 0 -233.5 72t-84.5 184q0 134 120.5 215.5t381.5 81.5h113v51q0 101 -64 163t-172 62q-191 0 -246 -164h-92
q18 107 108.5 181.5t229.5 74.5q147 0 237.5 -88.5t90.5 -228.5v-594h-62zM266 1065l174 235h82l174 -235h-102l-113 164l-112 -164h-103zM707 1188l-154 215h123l102 -215h-71z" />
    <glyph glyph-name="uni1EA8" unicode="&#x1ea8;" horiz-adv-x="1085" 
d="M0 0l502 1290h82l501 -1290h-112l-133 348h-594l-133 -348h-113zM276 440h533l-266 686zM799 1546h-82q11 11 31 39q30 54 30 94q0 82 -92 82q-13 0 -37 -6l-14 -4v72l16 4q42 6 56 6q67 0 110 -39t43 -94q0 -51 -31 -111zM328 1434l174 235h82l174 -235h-103l-112 163
l-113 -163h-102z" />
    <glyph glyph-name="uni1EA9" unicode="&#x1ea9;" horiz-adv-x="931" 
d="M707 369v82h-113q-410 0 -410 -205q0 -66 62.5 -115t173.5 -49q130 0 208.5 78t78.5 209zM737 0l-30 133h-11q-29 -44 -67 -72q-86 -71 -219 -71q-149 0 -233.5 72t-84.5 184q0 134 120.5 215.5t381.5 81.5h113v51q0 101 -64 163t-172 62q-191 0 -246 -164h-92
q18 107 108.5 181.5t229.5 74.5q147 0 237.5 -88.5t90.5 -228.5v-594h-62zM737 1178h-82q11 11 31 39q31 55 31 94q0 82 -92 82q-9 0 -37 -7l-15 -4v72l17 4q42 6 55 6q68 0 111 -39t43 -94q0 -50 -31 -110zM266 1065l174 235h82l174 -235h-102l-113 164l-112 -164h-103z
" />
    <glyph glyph-name="uni1EAA" unicode="&#x1eaa;" horiz-adv-x="1085" 
d="M0 0l502 1290h82l501 -1290h-112l-133 348h-594l-133 -348h-113zM276 440h533l-266 686zM328 1434l174 215h82l174 -215h-103l-112 143l-113 -143h-102zM379 1710h-72q0 88 38 136t95 48q31 0 62 -17.5t52 -38.5t46 -38.5t45 -17.5q25 0 43.5 24t18.5 68h71
q0 -88 -38 -136t-95 -48q-31 0 -62 17.5t-52 38.5t-46 38.5t-45 17.5q-25 0 -43 -23.5t-18 -68.5z" />
    <glyph glyph-name="uni1EAB" unicode="&#x1eab;" horiz-adv-x="931" 
d="M707 369v82h-113q-410 0 -410 -205q0 -66 62.5 -115t173.5 -49q130 0 208.5 78t78.5 209zM737 0l-30 133h-11q-29 -44 -67 -72q-86 -71 -219 -71q-149 0 -233.5 72t-84.5 184q0 134 120.5 215.5t381.5 81.5h113v51q0 101 -64 163t-172 62q-191 0 -246 -164h-92
q18 107 108.5 181.5t229.5 74.5q147 0 237.5 -88.5t90.5 -228.5v-594h-62zM266 1065l174 215h82l174 -215h-102l-113 143l-112 -143h-103zM317 1341h-71q0 88 38 136.5t95 48.5q31 0 62 -17.5t52 -39t46 -39t45 -17.5q25 0 43 23.5t18 68.5h72q0 -88 -38 -136t-95 -48
q-31 0 -62 17.5t-52 39t-46 39t-45 17.5q-25 0 -43.5 -24t-18.5 -69z" />
    <glyph glyph-name="uni1EAC" unicode="&#x1eac;" horiz-adv-x="1085" 
d="M307 1434l195 235h82l194 -235h-102l-133 163l-133 -163h-103zM0 0l502 1290h82l501 -1290h-112l-133 348h-594l-133 -348h-113zM276 440h533l-266 686zM471 -225q0 31 20.5 51t51.5 20t51 -20t20 -51t-20 -51.5t-51 -20.5t-51.5 20.5t-20.5 51.5z" />
    <glyph glyph-name="uni1EAD" unicode="&#x1ead;" horiz-adv-x="931" 
d="M246 1065l194 235h82l195 -235h-103l-133 164l-133 -164h-102zM707 369v82h-113q-410 0 -410 -205q0 -66 62.5 -115t173.5 -49q130 0 208.5 78t78.5 209zM737 0l-30 133h-11q-29 -44 -67 -72q-86 -71 -219 -71q-149 0 -233.5 72t-84.5 184q0 134 120.5 215.5t381.5 81.5
h113v51q0 101 -64 163t-172 62q-191 0 -246 -164h-92q18 107 108.5 181.5t229.5 74.5q147 0 237.5 -88.5t90.5 -228.5v-594h-62zM389 -225q0 31 20.5 51t51.5 20t51 -20t20 -51t-20 -51.5t-51 -20.5t-51.5 20.5t-20.5 51.5z" />
    <glyph glyph-name="uni1EAE" unicode="&#x1eae;" horiz-adv-x="1085" 
d="M0 0l502 1290h82l501 -1290h-112l-133 348h-594l-133 -348h-113zM276 440h533l-266 686zM317 1638h82q8 -57 46.5 -95t97.5 -38t97 38t46 95h82q-8 -93 -70.5 -154t-154.5 -61t-155 61t-71 154zM492 1597l122 215h123l-174 -215h-71z" />
    <glyph glyph-name="uni1EAF" unicode="&#x1eaf;" horiz-adv-x="931" 
d="M707 369v82h-113q-410 0 -410 -205q0 -66 62.5 -115t173.5 -49q130 0 208.5 78t78.5 209zM737 0l-30 133h-11q-29 -44 -67 -72q-86 -71 -219 -71q-149 0 -233.5 72t-84.5 184q0 134 120.5 215.5t381.5 81.5h113v51q0 101 -64 163t-172 62q-191 0 -246 -164h-92
q18 107 108.5 181.5t229.5 74.5q147 0 237.5 -88.5t90.5 -228.5v-594h-62zM256 1270h82q8 -57 46 -95t97 -38t97.5 38t46.5 95h82q-8 -93 -71 -154t-155 -61t-154.5 61t-70.5 154zM430 1229l123 215h123l-174 -215h-72z" />
    <glyph glyph-name="uni1EB0" unicode="&#x1eb0;" horiz-adv-x="1085" 
d="M0 0l502 1290h82l501 -1290h-112l-133 348h-594l-133 -348h-113zM276 440h533l-266 686zM317 1638h82q8 -57 46.5 -95t97.5 -38t97 38t46 95h82q-8 -93 -70.5 -154t-154.5 -61t-155 61t-71 154zM522 1597l-174 215h123l123 -215h-72z" />
    <glyph glyph-name="uni1EB1" unicode="&#x1eb1;" horiz-adv-x="931" 
d="M707 369v82h-113q-410 0 -410 -205q0 -66 62.5 -115t173.5 -49q130 0 208.5 78t78.5 209zM737 0l-30 133h-11q-29 -44 -67 -72q-86 -71 -219 -71q-149 0 -233.5 72t-84.5 184q0 134 120.5 215.5t381.5 81.5h113v51q0 101 -64 163t-172 62q-191 0 -246 -164h-92
q18 107 108.5 181.5t229.5 74.5q147 0 237.5 -88.5t90.5 -228.5v-594h-62zM256 1270h82q8 -57 46 -95t97 -38t97.5 38t46.5 95h82q-8 -93 -71 -154t-155 -61t-154.5 61t-70.5 154zM461 1229l-174 215h123l122 -215h-71z" />
    <glyph glyph-name="uni1EB2" unicode="&#x1eb2;" horiz-adv-x="1085" 
d="M0 0l502 1290h82l501 -1290h-112l-133 348h-594l-133 -348h-113zM276 440h533l-266 686zM317 1638h82q8 -57 46.5 -95t97.5 -38t97 38t46 95h82q-8 -93 -70.5 -154t-154.5 -61t-155 61t-71 154zM584 1597h-82q8 7 30 39q31 55 31 95q0 81 -92 81q-13 0 -37 -6l-14 -4v72
l16 4q42 6 56 6q67 0 110 -39t43 -94q0 -51 -31 -111z" />
    <glyph glyph-name="uni1EB3" unicode="&#x1eb3;" horiz-adv-x="931" 
d="M707 369v82h-113q-410 0 -410 -205q0 -66 62.5 -115t173.5 -49q130 0 208.5 78t78.5 209zM737 0l-30 133h-11q-29 -44 -67 -72q-86 -71 -219 -71q-149 0 -233.5 72t-84.5 184q0 134 120.5 215.5t381.5 81.5h113v51q0 101 -64 163t-172 62q-191 0 -246 -164h-92
q18 107 108.5 181.5t229.5 74.5q147 0 237.5 -88.5t90.5 -228.5v-594h-62zM256 1270h82q8 -57 46 -95t97 -38t97.5 38t46.5 95h82q-8 -93 -71 -154t-155 -61t-154.5 61t-70.5 154zM522 1229h-82q11 11 31 39q31 55 31 94q0 82 -92 82q-13 0 -37 -6l-15 -4v71l17 4q49 7 55 7
q67 0 110.5 -39.5t43.5 -94.5q0 -50 -31 -110z" />
    <glyph glyph-name="uni1EB4" unicode="&#x1eb4;" horiz-adv-x="1085" 
d="M0 0l502 1290h82l501 -1290h-112l-133 348h-594l-133 -348h-113zM276 440h533l-266 686zM317 1638h82q8 -57 46.5 -95t97.5 -38t97 38t46 95h82q-8 -93 -70.5 -154t-154.5 -61t-155 61t-71 154zM369 1700h-72q0 88 38 136t95 48q31 0 62 -17.5t52 -38.5t46 -38.5
t45 -17.5q25 0 43 23.5t18 68.5h72q0 -88 -38 -136.5t-95 -48.5q-31 0 -62 17.5t-52 39t-46 39t-45 17.5q-25 0 -43 -23.5t-18 -68.5z" />
    <glyph glyph-name="uni1EB5" unicode="&#x1eb5;" horiz-adv-x="931" 
d="M707 369v82h-113q-410 0 -410 -205q0 -66 62.5 -115t173.5 -49q130 0 208.5 78t78.5 209zM737 0l-30 133h-11q-29 -44 -67 -72q-86 -71 -219 -71q-149 0 -233.5 72t-84.5 184q0 134 120.5 215.5t381.5 81.5h113v51q0 101 -64 163t-172 62q-191 0 -246 -164h-92
q18 107 108.5 181.5t229.5 74.5q147 0 237.5 -88.5t90.5 -228.5v-594h-62zM256 1270h82q8 -57 46 -95t97 -38t97.5 38t46.5 95h82q-8 -93 -71 -154t-155 -61t-154.5 61t-70.5 154zM307 1331h-71q0 88 38 136.5t95 48.5q31 0 62 -17.5t51.5 -39t45.5 -39t45 -17.5
q25 0 43.5 24t18.5 68h72q0 -88 -38.5 -136t-95.5 -48q-39 0 -77 28t-70 56t-57 28t-43.5 -24t-18.5 -68z" />
    <glyph glyph-name="uni1EB6" unicode="&#x1eb6;" horiz-adv-x="1085" 
d="M317 1638h82q8 -57 46.5 -95t97.5 -38t97 38t46 95h82q-8 -93 -70.5 -154t-154.5 -61t-155 61t-71 154zM0 0l502 1290h82l501 -1290h-112l-133 348h-594l-133 -348h-113zM276 440h533l-266 686zM471 -225q0 31 20.5 51t51.5 20t51 -20t20 -51t-20 -51.5t-51 -20.5
t-51.5 20.5t-20.5 51.5z" />
    <glyph glyph-name="uni1EB7" unicode="&#x1eb7;" horiz-adv-x="931" 
d="M256 1270h82q8 -57 46 -95t97 -38t97.5 38t46.5 95h82q-8 -93 -71 -154t-155 -61t-154.5 61t-70.5 154zM707 369v82h-113q-410 0 -410 -205q0 -66 62.5 -115t173.5 -49q130 0 208.5 78t78.5 209zM737 0l-30 133h-11q-29 -44 -67 -72q-86 -71 -219 -71q-149 0 -233.5 72
t-84.5 184q0 134 120.5 215.5t381.5 81.5h113v51q0 101 -64 163t-172 62q-191 0 -246 -164h-92q18 107 108.5 181.5t229.5 74.5q147 0 237.5 -88.5t90.5 -228.5v-594h-62zM389 -225q0 31 20.5 51t51.5 20t51 -20t20 -51t-20 -51.5t-51 -20.5t-51.5 20.5t-20.5 51.5z" />
    <glyph glyph-name="uni1EB8" unicode="&#x1eb8;" horiz-adv-x="1075" 
d="M174 0v1290h778v-92h-676v-481h625v-92h-625v-533h697v-92h-799zM502 -225q0 31 20 51t51 20t51.5 -20t20.5 -51t-20.5 -51.5t-51.5 -20.5t-51 20.5t-20 51.5z" />
    <glyph glyph-name="uni1EB9" unicode="&#x1eb9;" horiz-adv-x="993" 
d="M768 225h113q-41 -97 -137 -166t-232 -69q-185 0 -307.5 131t-122.5 330q0 198 121 329t299 131q169 0 289 -123.5t120 -306.5q0 -9 -6 -51l-4 -20h-727q17 -149 108.5 -238.5t229.5 -89.5q151 0 256 143zM174 502h645q-17 140 -105.5 228.5t-211.5 88.5
q-122 0 -212.5 -88.5t-115.5 -228.5zM430 -225q0 31 20.5 51t51.5 20t51 -20t20 -51t-20 -51.5t-51 -20.5t-51.5 20.5t-20.5 51.5z" />
    <glyph glyph-name="uni1EBA" unicode="&#x1eba;" horiz-adv-x="1075" 
d="M174 0v1290h778v-92h-676v-481h625v-92h-625v-533h697v-92h-799zM604 1413h-82q11 11 31 39q31 55 31 94t-28.5 65.5t-74.5 26.5q-13 0 -37 -6l-14 -4v72l16 4q42 6 56 6q76 0 120 -40t44 -103q0 -51 -31 -111z" />
    <glyph glyph-name="uni1EBB" unicode="&#x1ebb;" horiz-adv-x="993" 
d="M768 225h113q-41 -97 -137 -166t-232 -69q-185 0 -307.5 131t-122.5 330q0 198 121 329t299 131q169 0 289 -123.5t120 -306.5q0 -9 -6 -51l-4 -20h-727q17 -149 108.5 -238.5t229.5 -89.5q151 0 256 143zM174 502h645q-17 140 -105.5 228.5t-211.5 88.5
q-122 0 -212.5 -88.5t-115.5 -228.5zM553 1044h-82q11 11 31 39q30 54 30 95q0 39 -28 65.5t-74 26.5q-13 0 -37 -6l-14 -4v71l16 4q42 6 56 6q76 0 119.5 -40t43.5 -103q0 -53 -30 -111z" />
    <glyph glyph-name="uni1EBC" unicode="&#x1ebc;" horiz-adv-x="1075" 
d="M174 0v1290h778v-92h-676v-481h625v-92h-625v-533h697v-92h-799zM375 1434h-72q0 96 44.5 150t109.5 54q35 0 70.5 -21t59.5 -45.5t52.5 -45.5t52.5 -21q33 0 57.5 31t24.5 82h72q0 -96 -44.5 -150.5t-109.5 -54.5q-35 0 -70.5 21t-59.5 45.5t-52.5 45.5t-52.5 21
q-33 0 -57.5 -30.5t-24.5 -81.5z" />
    <glyph glyph-name="uni1EBD" unicode="&#x1ebd;" horiz-adv-x="993" 
d="M768 225h113q-41 -97 -137 -166t-232 -69q-185 0 -307.5 131t-122.5 330q0 198 121 329t299 131q169 0 289 -123.5t120 -306.5q0 -9 -6 -51l-4 -20h-727q17 -149 108.5 -238.5t229.5 -89.5q151 0 256 143zM174 502h645q-17 140 -105.5 228.5t-211.5 88.5
q-122 0 -212.5 -88.5t-115.5 -228.5zM307 1065h-71q0 96 44 150.5t109 54.5q35 0 70.5 -21t59.5 -45.5t53 -45.5t53 -21q33 0 57.5 30.5t24.5 81.5h71q0 -96 -44 -150.5t-109 -54.5q-35 0 -70.5 21t-59.5 46t-53 46t-53 21q-33 0 -57.5 -31t-24.5 -82z" />
    <glyph glyph-name="uni1EBE" unicode="&#x1ebe;" horiz-adv-x="1075" 
d="M174 0v1290h778v-92h-676v-481h625v-92h-625v-533h697v-92h-799zM358 1434l174 235h82l174 -235h-102l-113 163l-112 -163h-103zM737 1556l103 216h123l-154 -216h-72z" />
    <glyph glyph-name="uni1EBF" unicode="&#x1ebf;" horiz-adv-x="993" 
d="M768 225h113q-41 -97 -137 -166t-232 -69q-185 0 -307.5 131t-122.5 330q0 198 121 329t299 131q169 0 289 -123.5t120 -306.5q0 -9 -6 -51l-4 -20h-727q17 -149 108.5 -238.5t229.5 -89.5q151 0 256 143zM174 502h645q-17 140 -105.5 228.5t-211.5 88.5
q-122 0 -212.5 -88.5t-115.5 -228.5zM287 1065l174 235h82l174 -235h-103l-112 164l-113 -164h-102zM666 1188l102 215h123l-154 -215h-71z" />
    <glyph glyph-name="uni1EC0" unicode="&#x1ec0;" horiz-adv-x="1075" 
d="M174 0v1290h778v-92h-676v-481h625v-92h-625v-533h697v-92h-799zM358 1434l174 235h82l174 -235h-102l-113 163l-112 -163h-103zM799 1556l-154 216h123l102 -216h-71z" />
    <glyph glyph-name="uni1EC1" unicode="&#x1ec1;" horiz-adv-x="993" 
d="M768 225h113q-41 -97 -137 -166t-232 -69q-185 0 -307.5 131t-122.5 330q0 198 121 329t299 131q169 0 289 -123.5t120 -306.5q0 -9 -6 -51l-4 -20h-727q17 -149 108.5 -238.5t229.5 -89.5q151 0 256 143zM174 502h645q-17 140 -105.5 228.5t-211.5 88.5
q-122 0 -212.5 -88.5t-115.5 -228.5zM287 1065l174 235h82l174 -235h-103l-112 164l-113 -164h-102zM727 1188l-154 215h123l103 -215h-72z" />
    <glyph glyph-name="uni1EC2" unicode="&#x1ec2;" horiz-adv-x="1075" 
d="M174 0v1290h778v-92h-676v-481h625v-92h-625v-533h697v-92h-799zM829 1546h-81q7 8 30 39q31 55 31 94q0 82 -92 82q-13 0 -37 -6l-14 -4v72l16 4q42 6 55 6q68 0 111 -39t43 -94q0 -51 -31 -111zM358 1434l174 235h82l174 -235h-102l-113 163l-112 -163h-103z" />
    <glyph glyph-name="uni1EC3" unicode="&#x1ec3;" horiz-adv-x="993" 
d="M768 225h113q-41 -97 -137 -166t-232 -69q-185 0 -307.5 131t-122.5 330q0 198 121 329t299 131q169 0 289 -123.5t120 -306.5q0 -9 -6 -51l-4 -20h-727q17 -149 108.5 -238.5t229.5 -89.5q151 0 256 143zM174 502h645q-17 140 -105.5 228.5t-211.5 88.5
q-122 0 -212.5 -88.5t-115.5 -228.5zM758 1178h-82q11 11 31 39q30 54 30 94q0 82 -92 82q-9 0 -37 -7l-14 -4v72l16 4q42 6 56 6q67 0 110 -39t43 -94q0 -50 -31 -110zM287 1065l174 235h82l174 -235h-103l-112 164l-113 -164h-102z" />
    <glyph glyph-name="uni1EC4" unicode="&#x1ec4;" horiz-adv-x="1075" 
d="M174 0v1290h778v-92h-676v-481h625v-92h-625v-533h697v-92h-799zM358 1434l174 215h82l174 -215h-102l-113 143l-112 -143h-103zM410 1710h-72q0 88 38 136t95 48q31 0 62 -17.5t52 -38.5t46 -38.5t45 -17.5q25 0 43 23.5t18 68.5h72q0 -88 -38 -136t-95 -48
q-31 0 -62 17.5t-52 38.5t-46 38.5t-45 17.5q-25 0 -43 -23.5t-18 -68.5z" />
    <glyph glyph-name="uni1EC5" unicode="&#x1ec5;" horiz-adv-x="993" 
d="M768 225h113q-41 -97 -137 -166t-232 -69q-185 0 -307.5 131t-122.5 330q0 198 121 329t299 131q169 0 289 -123.5t120 -306.5q0 -9 -6 -51l-4 -20h-727q17 -149 108.5 -238.5t229.5 -89.5q151 0 256 143zM174 502h645q-17 140 -105.5 228.5t-211.5 88.5
q-122 0 -212.5 -88.5t-115.5 -228.5zM287 1065l174 215h82l174 -215h-103l-112 143l-113 -143h-102zM338 1341h-72q0 88 38 136.5t95 48.5q31 0 62 -17.5t52 -39t46 -39t45 -17.5q25 0 43.5 24t18.5 68h71q0 -88 -38 -136t-95 -48q-31 0 -62 17.5t-52 39t-46 39t-45 17.5
q-25 0 -43 -24t-18 -69z" />
    <glyph glyph-name="uni1EC6" unicode="&#x1ec6;" horiz-adv-x="1075" 
d="M338 1434l194 235h82l195 -235h-102l-134 163l-133 -163h-102zM174 0v1290h778v-92h-676v-481h625v-92h-625v-533h697v-92h-799zM502 -225q0 31 20 51t51 20t51.5 -20t20.5 -51t-20.5 -51.5t-51.5 -20.5t-51 20.5t-20 51.5z" />
    <glyph glyph-name="uni1EC7" unicode="&#x1ec7;" horiz-adv-x="993" 
d="M266 1065l195 235h82l194 -235h-102l-133 164l-133 -164h-103zM768 225h113q-41 -97 -137 -166t-232 -69q-185 0 -307.5 131t-122.5 330q0 198 121 329t299 131q169 0 289 -123.5t120 -306.5q0 -9 -6 -51l-4 -20h-727q17 -149 108.5 -238.5t229.5 -89.5q151 0 256 143z
M174 502h645q-17 140 -105.5 228.5t-211.5 88.5q-122 0 -212.5 -88.5t-115.5 -228.5zM430 -225q0 31 20.5 51t51.5 20t51 -20t20 -51t-20 -51.5t-51 -20.5t-51.5 20.5t-20.5 51.5z" />
    <glyph glyph-name="uni1EC8" unicode="&#x1ec8;" horiz-adv-x="450" 
d="M174 0v1290h102v-1290h-102zM266 1413h-82q11 11 31 39q31 55 31 94t-28.5 65.5t-74.5 26.5q-13 0 -37 -6l-14 -4v72l17 4q42 6 55 6q76 0 120 -40t44 -103q0 -51 -31 -111z" />
    <glyph glyph-name="uni1EC9" unicode="&#x1ec9;" horiz-adv-x="378" 
d="M143 0v901h93v-901h-93zM246 1044h-82q11 11 31 39q30 54 30 95q0 39 -28 65.5t-74 26.5q-13 0 -37 -6l-14 -4v71l16 4q42 6 55 6q76 0 120 -40t44 -103q0 -51 -31 -111z" />
    <glyph glyph-name="uni1ECA" unicode="&#x1eca;" horiz-adv-x="450" 
d="M174 0v1290h102v-1290h-102zM154 -225q0 31 20 51t51 20t51.5 -20t20.5 -51t-20.5 -51.5t-51.5 -20.5t-51 20.5t-20 51.5z" />
    <glyph glyph-name="uni1ECB" unicode="&#x1ecb;" horiz-adv-x="399" 
d="M143 0v901h93v-901h-93zM123 1188q0 31 20.5 51.5t51.5 20.5t51 -20.5t20 -51.5t-20 -51.5t-51 -20.5t-51.5 20.5t-20.5 51.5zM133 -225q0 31 20.5 51t51.5 20t51 -20t20 -51t-20 -51.5t-51 -20.5t-51.5 20.5t-20.5 51.5z" />
    <glyph glyph-name="uni1ECC" unicode="&#x1ecc;" horiz-adv-x="1351" 
d="M676 -10q-114 0 -220 48.5t-186.5 133t-129 208.5t-48.5 265t48.5 265t129 208.5t186.5 133t220 48.5t220 -48.5t186.5 -133t129 -208.5t48.5 -265t-48.5 -265t-129 -208.5t-186.5 -133t-220 -48.5zM676 82q96 0 183.5 41.5t153.5 113.5t105 178.5t39 229.5t-39 229.5
t-105 178.5t-153.5 113.5t-183.5 41.5t-183.5 -41.5t-153.5 -113.5t-105 -178.5t-39 -229.5t39 -229.5t105 -178.5t153.5 -113.5t183.5 -41.5zM604 -225q0 31 20.5 51t51.5 20t51.5 -20t20.5 -51t-20.5 -51.5t-51.5 -20.5t-51.5 20.5t-20.5 51.5z" />
    <glyph glyph-name="uni1ECD" unicode="&#x1ecd;" horiz-adv-x="1003" 
d="M82 451q0 198 121 329t299 131t299 -131t121 -329t-121 -329.5t-299 -131.5t-299 131.5t-121 329.5zM829 451q0 157 -97 262.5t-230 105.5t-230.5 -105.5t-97.5 -262.5t97.5 -263t230.5 -106t230 106t97 263zM430 -225q0 31 20.5 51t51.5 20t51 -20t20 -51t-20 -51.5
t-51 -20.5t-51.5 20.5t-20.5 51.5z" />
    <glyph glyph-name="uni1ECE" unicode="&#x1ece;" horiz-adv-x="1351" 
d="M676 -10q-114 0 -220 48.5t-186.5 133t-129 208.5t-48.5 265t48.5 265t129 208.5t186.5 133t220 48.5t220 -48.5t186.5 -133t129 -208.5t48.5 -265t-48.5 -265t-129 -208.5t-186.5 -133t-220 -48.5zM676 82q96 0 183.5 41.5t153.5 113.5t105 178.5t39 229.5t-39 229.5
t-105 178.5t-153.5 113.5t-183.5 41.5t-183.5 -41.5t-153.5 -113.5t-105 -178.5t-39 -229.5t39 -229.5t105 -178.5t153.5 -113.5t183.5 -41.5zM737 1413h-82q11 11 31 39q31 55 31 94t-28.5 65.5t-74.5 26.5q-12 0 -36 -6l-15 -4v72l17 4q42 6 55 6q76 0 120 -40t44 -103
q0 -51 -31 -111z" />
    <glyph glyph-name="uni1ECF" unicode="&#x1ecf;" horiz-adv-x="1003" 
d="M82 451q0 198 121 329t299 131t299 -131t121 -329t-121 -329.5t-299 -131.5t-299 131.5t-121 329.5zM829 451q0 157 -97 262.5t-230 105.5t-230.5 -105.5t-97.5 -262.5t97.5 -263t230.5 -106t230 106t97 263zM553 1044h-82q11 11 31 39q30 54 30 95q0 39 -28 65.5
t-74 26.5q-13 0 -37 -6l-14 -4v71l16 4q42 6 56 6q76 0 119.5 -40t43.5 -103q0 -53 -30 -111z" />
    <glyph glyph-name="uni1ED0" unicode="&#x1ed0;" horiz-adv-x="1351" 
d="M676 -10q-114 0 -220 48.5t-186.5 133t-129 208.5t-48.5 265t48.5 265t129 208.5t186.5 133t220 48.5t220 -48.5t186.5 -133t129 -208.5t48.5 -265t-48.5 -265t-129 -208.5t-186.5 -133t-220 -48.5zM676 82q96 0 183.5 41.5t153.5 113.5t105 178.5t39 229.5t-39 229.5
t-105 178.5t-153.5 113.5t-183.5 41.5t-183.5 -41.5t-153.5 -113.5t-105 -178.5t-39 -229.5t39 -229.5t105 -178.5t153.5 -113.5t183.5 -41.5zM461 1434l174 235h82l174 -235h-103l-112 163l-113 -163h-102zM840 1556l102 216h123l-154 -216h-71z" />
    <glyph glyph-name="uni1ED1" unicode="&#x1ed1;" horiz-adv-x="1003" 
d="M82 451q0 198 121 329t299 131t299 -131t121 -329t-121 -329.5t-299 -131.5t-299 131.5t-121 329.5zM829 451q0 157 -97 262.5t-230 105.5t-230.5 -105.5t-97.5 -262.5t97.5 -263t230.5 -106t230 106t97 263zM287 1065l174 235h82l174 -235h-103l-112 164l-113 -164h-102
zM666 1188l102 215h123l-154 -215h-71z" />
    <glyph glyph-name="uni1ED2" unicode="&#x1ed2;" horiz-adv-x="1351" 
d="M676 -10q-114 0 -220 48.5t-186.5 133t-129 208.5t-48.5 265t48.5 265t129 208.5t186.5 133t220 48.5t220 -48.5t186.5 -133t129 -208.5t48.5 -265t-48.5 -265t-129 -208.5t-186.5 -133t-220 -48.5zM676 82q96 0 183.5 41.5t153.5 113.5t105 178.5t39 229.5t-39 229.5
t-105 178.5t-153.5 113.5t-183.5 41.5t-183.5 -41.5t-153.5 -113.5t-105 -178.5t-39 -229.5t39 -229.5t105 -178.5t153.5 -113.5t183.5 -41.5zM461 1434l174 235h82l174 -235h-103l-112 163l-113 -163h-102zM901 1556l-153 216h122l103 -216h-72z" />
    <glyph glyph-name="uni1ED3" unicode="&#x1ed3;" horiz-adv-x="1003" 
d="M82 451q0 198 121 329t299 131t299 -131t121 -329t-121 -329.5t-299 -131.5t-299 131.5t-121 329.5zM829 451q0 157 -97 262.5t-230 105.5t-230.5 -105.5t-97.5 -262.5t97.5 -263t230.5 -106t230 106t97 263zM287 1065l174 235h82l174 -235h-103l-112 164l-113 -164h-102
zM727 1188l-154 215h123l103 -215h-72z" />
    <glyph glyph-name="uni1ED4" unicode="&#x1ed4;" horiz-adv-x="1351" 
d="M676 -10q-114 0 -220 48.5t-186.5 133t-129 208.5t-48.5 265t48.5 265t129 208.5t186.5 133t220 48.5t220 -48.5t186.5 -133t129 -208.5t48.5 -265t-48.5 -265t-129 -208.5t-186.5 -133t-220 -48.5zM676 82q96 0 183.5 41.5t153.5 113.5t105 178.5t39 229.5t-39 229.5
t-105 178.5t-153.5 113.5t-183.5 41.5t-183.5 -41.5t-153.5 -113.5t-105 -178.5t-39 -229.5t39 -229.5t105 -178.5t153.5 -113.5t183.5 -41.5zM932 1546h-82q11 11 31 39q30 54 30 94q0 82 -92 82q-13 0 -37 -6l-14 -4v72l16 4q42 6 56 6q67 0 110 -39t43 -94
q0 -53 -30 -111zM461 1434l174 235h82l174 -235h-103l-112 163l-113 -163h-102z" />
    <glyph glyph-name="uni1ED5" unicode="&#x1ed5;" horiz-adv-x="1003" 
d="M82 451q0 198 121 329t299 131t299 -131t121 -329t-121 -329.5t-299 -131.5t-299 131.5t-121 329.5zM829 451q0 157 -97 262.5t-230 105.5t-230.5 -105.5t-97.5 -262.5t97.5 -263t230.5 -106t230 106t97 263zM758 1178h-82q11 11 31 39q30 54 30 94q0 82 -92 82
q-9 0 -37 -7l-14 -4v72l16 4q42 6 56 6q67 0 110 -39t43 -94q0 -50 -31 -110zM287 1065l174 235h82l174 -235h-103l-112 164l-113 -164h-102z" />
    <glyph glyph-name="uni1ED6" unicode="&#x1ed6;" horiz-adv-x="1351" 
d="M676 -10q-114 0 -220 48.5t-186.5 133t-129 208.5t-48.5 265t48.5 265t129 208.5t186.5 133t220 48.5t220 -48.5t186.5 -133t129 -208.5t48.5 -265t-48.5 -265t-129 -208.5t-186.5 -133t-220 -48.5zM676 82q96 0 183.5 41.5t153.5 113.5t105 178.5t39 229.5t-39 229.5
t-105 178.5t-153.5 113.5t-183.5 41.5t-183.5 -41.5t-153.5 -113.5t-105 -178.5t-39 -229.5t39 -229.5t105 -178.5t153.5 -113.5t183.5 -41.5zM461 1434l174 215h82l174 -215h-103l-112 143l-113 -143h-102zM512 1710h-72q0 88 38 136t95 48q31 0 62 -17.5t52 -38.5
t46 -38.5t45 -17.5q25 0 43.5 24t18.5 68h71q0 -88 -38 -136t-95 -48q-31 0 -62 17.5t-52 38.5t-46 38.5t-45 17.5q-25 0 -43 -23.5t-18 -68.5z" />
    <glyph glyph-name="uni1ED7" unicode="&#x1ed7;" horiz-adv-x="1003" 
d="M82 451q0 198 121 329t299 131t299 -131t121 -329t-121 -329.5t-299 -131.5t-299 131.5t-121 329.5zM829 451q0 157 -97 262.5t-230 105.5t-230.5 -105.5t-97.5 -262.5t97.5 -263t230.5 -106t230 106t97 263zM287 1065l174 215h82l174 -215h-103l-112 143l-113 -143h-102
zM338 1341h-72q0 88 38 136.5t95 48.5q31 0 62 -17.5t52 -39t46 -39t45 -17.5q25 0 43.5 24t18.5 68h71q0 -88 -38 -136t-95 -48q-31 0 -62 17.5t-52 39t-46 39t-45 17.5q-25 0 -43 -24t-18 -69z" />
    <glyph glyph-name="uni1ED8" unicode="&#x1ed8;" horiz-adv-x="1351" 
d="M440 1434l195 235h82l194 -235h-102l-133 163l-133 -163h-103zM676 -10q-114 0 -220 48.5t-186.5 133t-129 208.5t-48.5 265t48.5 265t129 208.5t186.5 133t220 48.5t220 -48.5t186.5 -133t129 -208.5t48.5 -265t-48.5 -265t-129 -208.5t-186.5 -133t-220 -48.5zM676 82
q96 0 183.5 41.5t153.5 113.5t105 178.5t39 229.5t-39 229.5t-105 178.5t-153.5 113.5t-183.5 41.5t-183.5 -41.5t-153.5 -113.5t-105 -178.5t-39 -229.5t39 -229.5t105 -178.5t153.5 -113.5t183.5 -41.5zM604 -225q0 31 20.5 51t51.5 20t51.5 -20t20.5 -51t-20.5 -51.5
t-51.5 -20.5t-51.5 20.5t-20.5 51.5z" />
    <glyph glyph-name="uni1ED9" unicode="&#x1ed9;" horiz-adv-x="1003" 
d="M266 1065l195 235h82l194 -235h-102l-133 164l-133 -164h-103zM82 451q0 198 121 329t299 131t299 -131t121 -329t-121 -329.5t-299 -131.5t-299 131.5t-121 329.5zM829 451q0 157 -97 262.5t-230 105.5t-230.5 -105.5t-97.5 -262.5t97.5 -263t230.5 -106t230 106t97 263
zM430 -225q0 31 20.5 51t51.5 20t51 -20t20 -51t-20 -51.5t-51 -20.5t-51.5 20.5t-20.5 51.5z" />
    <glyph glyph-name="uni1EDA" unicode="&#x1eda;" horiz-adv-x="1372" 
d="M1044 1157h41q103 0 103 82q0 39 -17 88l-14 35h72q7 -9 20 -39q21 -53 21 -94q0 -62 -43 -103t-111 -41h-10q42 -48 76 -112q78 -148 78 -328q0 -141 -48.5 -265t-129 -208.5t-186.5 -133t-220 -48.5t-220 48.5t-186.5 133t-129 208.5t-48.5 265t48.5 265t129 208.5
t186.5 133t220 48.5q140 0 268 -71q61 -38 100 -72zM676 82q96 0 183.5 41.5t153.5 113.5t105 178.5t39 229.5t-39 229.5t-105 178.5t-153.5 113.5t-183.5 41.5t-183.5 -41.5t-153.5 -113.5t-105 -178.5t-39 -229.5t39 -229.5t105 -178.5t153.5 -113.5t183.5 -41.5z
M655 1434l123 245h123l-174 -245h-72z" />
    <glyph glyph-name="uni1EDB" unicode="&#x1edb;" horiz-adv-x="1024" 
d="M788 788h41q103 0 103 82q0 39 -17 88l-14 35h72q7 -9 20 -39q21 -53 21 -94q0 -62 -43 -102.5t-111 -40.5h-10q29 -55 35 -72q37 -97 37 -194q0 -198 -121 -329.5t-299 -131.5t-299 131.5t-121 329.5t121 329t299 131q117 0 213 -61q41 -26 73 -62zM502 82
q133 0 230 106t97 263t-97 262.5t-230 105.5t-230.5 -105.5t-97.5 -262.5t97.5 -263t230.5 -106zM481 1065l123 246h123l-174 -246h-72z" />
    <glyph glyph-name="uni1EDC" unicode="&#x1edc;" horiz-adv-x="1372" 
d="M1044 1157h41q103 0 103 82q0 39 -17 88l-14 35h72q7 -9 20 -39q21 -53 21 -94q0 -62 -43 -103t-111 -41h-10q42 -48 76 -112q78 -148 78 -328q0 -141 -48.5 -265t-129 -208.5t-186.5 -133t-220 -48.5t-220 48.5t-186.5 133t-129 208.5t-48.5 265t48.5 265t129 208.5
t186.5 133t220 48.5q140 0 268 -71q61 -38 100 -72zM676 82q96 0 183.5 41.5t153.5 113.5t105 178.5t39 229.5t-39 229.5t-105 178.5t-153.5 113.5t-183.5 41.5t-183.5 -41.5t-153.5 -113.5t-105 -178.5t-39 -229.5t39 -229.5t105 -178.5t153.5 -113.5t183.5 -41.5z
M645 1434l-174 245h123l123 -245h-72z" />
    <glyph glyph-name="uni1EDD" unicode="&#x1edd;" horiz-adv-x="1024" 
d="M788 788h41q103 0 103 82q0 39 -17 88l-14 35h72q7 -9 20 -39q21 -53 21 -94q0 -62 -43 -102.5t-111 -40.5h-10q29 -55 35 -72q37 -97 37 -194q0 -198 -121 -329.5t-299 -131.5t-299 131.5t-121 329.5t121 329t299 131q117 0 213 -61q41 -26 73 -62zM502 82
q133 0 230 106t97 263t-97 262.5t-230 105.5t-230.5 -105.5t-97.5 -262.5t97.5 -263t230.5 -106zM471 1065l-174 246h123l123 -246h-72z" />
    <glyph glyph-name="uni1EDE" unicode="&#x1ede;" horiz-adv-x="1372" 
d="M1044 1157h41q103 0 103 82q0 39 -17 88l-14 35h72q7 -9 20 -39q21 -53 21 -94q0 -62 -43 -103t-111 -41h-10q42 -48 76 -112q78 -148 78 -328q0 -141 -48.5 -265t-129 -208.5t-186.5 -133t-220 -48.5t-220 48.5t-186.5 133t-129 208.5t-48.5 265t48.5 265t129 208.5
t186.5 133t220 48.5q140 0 268 -71q61 -38 100 -72zM676 82q96 0 183.5 41.5t153.5 113.5t105 178.5t39 229.5t-39 229.5t-105 178.5t-153.5 113.5t-183.5 41.5t-183.5 -41.5t-153.5 -113.5t-105 -178.5t-39 -229.5t39 -229.5t105 -178.5t153.5 -113.5t183.5 -41.5z
M737 1413h-82q11 11 31 39q31 55 31 94t-28.5 65.5t-74.5 26.5q-12 0 -36 -6l-15 -4v72l17 4q42 6 55 6q76 0 120 -40t44 -103q0 -51 -31 -111z" />
    <glyph glyph-name="uni1EDF" unicode="&#x1edf;" horiz-adv-x="1024" 
d="M788 788h41q103 0 103 82q0 39 -17 88l-14 35h72q7 -9 20 -39q21 -53 21 -94q0 -62 -43 -102.5t-111 -40.5h-10q29 -55 35 -72q37 -97 37 -194q0 -198 -121 -329.5t-299 -131.5t-299 131.5t-121 329.5t121 329t299 131q117 0 213 -61q41 -26 73 -62zM502 82
q133 0 230 106t97 263t-97 262.5t-230 105.5t-230.5 -105.5t-97.5 -262.5t97.5 -263t230.5 -106zM553 1044h-82q11 11 31 39q30 54 30 95q0 39 -28 65.5t-74 26.5q-13 0 -37 -6l-14 -4v71l16 4q42 6 56 6q76 0 119.5 -40t43.5 -103q0 -53 -30 -111z" />
    <glyph glyph-name="uni1EE0" unicode="&#x1ee0;" horiz-adv-x="1372" 
d="M1044 1157h41q103 0 103 82q0 39 -17 88l-14 35h72q7 -9 20 -39q21 -53 21 -94q0 -62 -43 -103t-111 -41h-10q42 -48 76 -112q78 -148 78 -328q0 -141 -48.5 -265t-129 -208.5t-186.5 -133t-220 -48.5t-220 48.5t-186.5 133t-129 208.5t-48.5 265t48.5 265t129 208.5
t186.5 133t220 48.5q140 0 268 -71q61 -38 100 -72zM676 82q96 0 183.5 41.5t153.5 113.5t105 178.5t39 229.5t-39 229.5t-105 178.5t-153.5 113.5t-183.5 41.5t-183.5 -41.5t-153.5 -113.5t-105 -178.5t-39 -229.5t39 -229.5t105 -178.5t153.5 -113.5t183.5 -41.5z
M481 1434h-71q0 96 44 150t109 54q35 0 70.5 -21t59.5 -45.5t53 -45.5t53 -21q33 0 57.5 31t24.5 82h71q0 -96 -44 -150.5t-109 -54.5q-35 0 -70.5 21t-59.5 45.5t-53 45.5t-53 21q-33 0 -57.5 -30.5t-24.5 -81.5z" />
    <glyph glyph-name="uni1EE1" unicode="&#x1ee1;" horiz-adv-x="1024" 
d="M788 788h41q103 0 103 82q0 39 -17 88l-14 35h72q7 -9 20 -39q21 -53 21 -94q0 -62 -43 -102.5t-111 -40.5h-10q29 -55 35 -72q37 -97 37 -194q0 -198 -121 -329.5t-299 -131.5t-299 131.5t-121 329.5t121 329t299 131q117 0 213 -61q41 -26 73 -62zM502 82
q133 0 230 106t97 263t-97 262.5t-230 105.5t-230.5 -105.5t-97.5 -262.5t97.5 -263t230.5 -106zM317 1065h-71q0 96 44 150.5t109 54.5q35 0 70.5 -21t59.5 -45.5t53 -45.5t53 -21q33 0 57.5 30.5t24.5 81.5h71q0 -96 -44 -150.5t-109 -54.5q-35 0 -70.5 21t-59.5 46
t-53 46t-53 21q-33 0 -57.5 -31t-24.5 -82z" />
    <glyph glyph-name="uni1EE2" unicode="&#x1ee2;" horiz-adv-x="1372" 
d="M1044 1157h41q103 0 103 82q0 39 -17 88l-14 35h72q7 -9 20 -39q21 -53 21 -94q0 -62 -43 -103t-111 -41h-10q42 -48 76 -112q78 -148 78 -328q0 -141 -48.5 -265t-129 -208.5t-186.5 -133t-220 -48.5t-220 48.5t-186.5 133t-129 208.5t-48.5 265t48.5 265t129 208.5
t186.5 133t220 48.5q140 0 268 -71q61 -38 100 -72zM676 82q96 0 183.5 41.5t153.5 113.5t105 178.5t39 229.5t-39 229.5t-105 178.5t-153.5 113.5t-183.5 41.5t-183.5 -41.5t-153.5 -113.5t-105 -178.5t-39 -229.5t39 -229.5t105 -178.5t153.5 -113.5t183.5 -41.5z
M604 -225q0 31 20.5 51t51.5 20t51.5 -20t20.5 -51t-20.5 -51.5t-51.5 -20.5t-51.5 20.5t-20.5 51.5z" />
    <glyph glyph-name="uni1EE3" unicode="&#x1ee3;" horiz-adv-x="1024" 
d="M788 788h41q103 0 103 82q0 39 -17 88l-14 35h72q7 -9 20 -39q21 -53 21 -94q0 -62 -43 -102.5t-111 -40.5h-10q29 -55 35 -72q37 -97 37 -194q0 -198 -121 -329.5t-299 -131.5t-299 131.5t-121 329.5t121 329t299 131q117 0 213 -61q41 -26 73 -62zM502 82
q133 0 230 106t97 263t-97 262.5t-230 105.5t-230.5 -105.5t-97.5 -262.5t97.5 -263t230.5 -106zM430 -225q0 31 20.5 51t51.5 20t51 -20t20 -51t-20 -51.5t-51 -20.5t-51.5 20.5t-20.5 51.5z" />
    <glyph glyph-name="uni1EE4" unicode="&#x1ee4;" horiz-adv-x="1228" 
d="M154 481v809h102v-809q0 -189 97 -294t261 -105t261.5 105t97.5 294v809h102v-809q0 -227 -125 -359t-336 -132q-210 0 -335 132t-125 359zM543 -225q0 31 20 51t51 20t51.5 -20t20.5 -51t-20.5 -51.5t-51.5 -20.5t-51 20.5t-20 51.5z" />
    <glyph glyph-name="uni1EE5" unicode="&#x1ee5;" horiz-adv-x="1034" 
d="M143 369v532h93v-532q0 -122 80 -204.5t196 -82.5q123 0 205 82t82 205v532h92v-901h-62l-30 133h-11q-29 -44 -67 -72q-86 -71 -219 -71q-155 0 -257 106.5t-102 272.5zM451 -225q0 31 20 51t51 20t51.5 -20t20.5 -51t-20.5 -51.5t-51.5 -20.5t-51 20.5t-20 51.5z" />
    <glyph glyph-name="uni1EE6" unicode="&#x1ee6;" horiz-adv-x="1228" 
d="M154 481v809h102v-809q0 -189 97 -294t261 -105t261.5 105t97.5 294v809h102v-809q0 -227 -125 -359t-336 -132q-210 0 -335 132t-125 359zM655 1413h-82q11 11 31 39q31 55 31 94t-28.5 65.5t-74.5 26.5q-12 0 -36 -6l-15 -4v72l17 4q42 6 55 6q76 0 120 -40t44 -103
q0 -51 -31 -111z" />
    <glyph glyph-name="uni1EE7" unicode="&#x1ee7;" horiz-adv-x="1034" 
d="M143 369v532h93v-532q0 -122 80 -204.5t196 -82.5q123 0 205 82t82 205v532h92v-901h-62l-30 133h-11q-29 -44 -67 -72q-86 -71 -219 -71q-155 0 -257 106.5t-102 272.5zM573 1044h-81q8 8 30 39q31 55 31 95q0 39 -28 65.5t-74 26.5q-13 0 -37 -6l-15 -4v71l17 4
q42 6 55 6q76 0 120 -40t44 -103q0 -51 -31 -111z" />
    <glyph glyph-name="uni1EE8" unicode="&#x1ee8;" horiz-adv-x="1300" 
d="M154 481v809h102v-809q0 -189 97 -294t261 -105t261.5 105t97.5 294v809h102v-133h31q102 0 102 82q0 42 -16 88l-14 35h71q9 -12 21 -39q20 -50 20 -94q0 -62 -42.5 -103t-110.5 -41q-8 0 -43 5l-19 6v-615q0 -227 -125 -359t-336 -132q-210 0 -335 132t-125 359z
M573 1434l123 245h123l-174 -245h-72z" />
    <glyph glyph-name="uni1EE9" unicode="&#x1ee9;" horiz-adv-x="1085" 
d="M143 369v532h93v-532q0 -122 80 -204.5t196 -82.5q123 0 205 82t82 205v532h92v-113h31q102 0 102 82q0 42 -16 88l-15 35h72q7 -9 20 -39q21 -53 21 -94q0 -62 -43 -102.5t-111 -40.5q-15 0 -43 4l-18 6v-727h-62l-30 133h-11q-29 -44 -67 -72q-86 -71 -219 -71
q-155 0 -257 106.5t-102 272.5zM481 1065l123 246h123l-174 -246h-72z" />
    <glyph glyph-name="uni1EEA" unicode="&#x1eea;" horiz-adv-x="1300" 
d="M154 481v809h102v-809q0 -189 97 -294t261 -105t261.5 105t97.5 294v809h102v-133h31q102 0 102 82q0 42 -16 88l-14 35h71q9 -12 21 -39q20 -50 20 -94q0 -62 -42.5 -103t-110.5 -41q-8 0 -43 5l-19 6v-615q0 -227 -125 -359t-336 -132q-210 0 -335 132t-125 359z
M604 1434l-174 245h123l123 -245h-72z" />
    <glyph glyph-name="uni1EEB" unicode="&#x1eeb;" horiz-adv-x="1085" 
d="M143 369v532h93v-532q0 -122 80 -204.5t196 -82.5q123 0 205 82t82 205v532h92v-113h31q102 0 102 82q0 42 -16 88l-15 35h72q7 -9 20 -39q21 -53 21 -94q0 -62 -43 -102.5t-111 -40.5q-15 0 -43 4l-18 6v-727h-62l-30 133h-11q-29 -44 -67 -72q-86 -71 -219 -71
q-155 0 -257 106.5t-102 272.5zM502 1065l-174 246h123l122 -246h-71z" />
    <glyph glyph-name="uni1EEC" unicode="&#x1eec;" horiz-adv-x="1300" 
d="M154 481v809h102v-809q0 -189 97 -294t261 -105t261.5 105t97.5 294v809h102v-133h31q102 0 102 82q0 42 -16 88l-14 35h71q9 -12 21 -39q20 -50 20 -94q0 -62 -42.5 -103t-110.5 -41q-8 0 -43 5l-19 6v-615q0 -227 -125 -359t-336 -132q-210 0 -335 132t-125 359z
M655 1413h-82q11 11 31 39q31 55 31 94t-28.5 65.5t-74.5 26.5q-12 0 -36 -6l-15 -4v72l17 4q42 6 55 6q76 0 120 -40t44 -103q0 -51 -31 -111z" />
    <glyph glyph-name="uni1EED" unicode="&#x1eed;" horiz-adv-x="1085" 
d="M143 369v532h93v-532q0 -122 80 -204.5t196 -82.5q123 0 205 82t82 205v532h92v-113h31q102 0 102 82q0 42 -16 88l-15 35h72q7 -9 20 -39q21 -53 21 -94q0 -62 -43 -102.5t-111 -40.5q-15 0 -43 4l-18 6v-727h-62l-30 133h-11q-29 -44 -67 -72q-86 -71 -219 -71
q-155 0 -257 106.5t-102 272.5zM573 1044h-81q8 8 30 39q31 55 31 95q0 39 -28 65.5t-74 26.5q-13 0 -37 -6l-15 -4v71l17 4q42 6 55 6q76 0 120 -40t44 -103q0 -51 -31 -111z" />
    <glyph glyph-name="uni1EEE" unicode="&#x1eee;" horiz-adv-x="1300" 
d="M154 481v809h102v-809q0 -189 97 -294t261 -105t261.5 105t97.5 294v809h102v-133h31q102 0 102 82q0 42 -16 88l-14 35h71q9 -12 21 -39q20 -50 20 -94q0 -62 -42.5 -103t-110.5 -41q-8 0 -43 5l-19 6v-615q0 -227 -125 -359t-336 -132q-210 0 -335 132t-125 359z
M420 1434h-72q0 96 44.5 150t109.5 54q35 0 70.5 -21t59.5 -45.5t52.5 -45.5t52.5 -21q33 0 57.5 31t24.5 82h72q0 -96 -44.5 -150.5t-109.5 -54.5q-35 0 -70.5 21t-59.5 45.5t-52.5 45.5t-52.5 21q-33 0 -57.5 -30.5t-24.5 -81.5z" />
    <glyph glyph-name="uni1EEF" unicode="&#x1eef;" horiz-adv-x="1085" 
d="M143 369v532h93v-532q0 -122 80 -204.5t196 -82.5q123 0 205 82t82 205v532h92v-113h31q102 0 102 82q0 42 -16 88l-15 35h72q7 -9 20 -39q21 -53 21 -94q0 -62 -43 -102.5t-111 -40.5q-15 0 -43 4l-18 6v-727h-62l-30 133h-11q-29 -44 -67 -72q-86 -71 -219 -71
q-155 0 -257 106.5t-102 272.5zM317 1065h-71q0 96 44 150.5t109 54.5q35 0 70.5 -21t59.5 -45.5t53 -45.5t53 -21q33 0 57.5 30.5t24.5 81.5h71q0 -96 -44 -150.5t-109 -54.5q-35 0 -70.5 21t-59.5 46t-53 46t-53 21q-33 0 -57.5 -31t-24.5 -82z" />
    <glyph glyph-name="uni1EF0" unicode="&#x1ef0;" horiz-adv-x="1300" 
d="M154 481v809h102v-809q0 -189 97 -294t261 -105t261.5 105t97.5 294v809h102v-133h31q102 0 102 82q0 42 -16 88l-14 35h71q9 -12 21 -39q20 -50 20 -94q0 -62 -42.5 -103t-110.5 -41q-8 0 -43 5l-19 6v-615q0 -227 -125 -359t-336 -132q-210 0 -335 132t-125 359z
M543 -225q0 31 20 51t51 20t51.5 -20t20.5 -51t-20.5 -51.5t-51.5 -20.5t-51 20.5t-20 51.5z" />
    <glyph glyph-name="uni1EF1" unicode="&#x1ef1;" horiz-adv-x="1085" 
d="M143 369v532h93v-532q0 -122 80 -204.5t196 -82.5q123 0 205 82t82 205v532h92v-113h31q102 0 102 82q0 42 -16 88l-15 35h72q7 -9 20 -39q21 -53 21 -94q0 -62 -43 -102.5t-111 -40.5q-15 0 -43 4l-18 6v-727h-62l-30 133h-11q-29 -44 -67 -72q-86 -71 -219 -71
q-155 0 -257 106.5t-102 272.5zM451 -225q0 31 20 51t51 20t51.5 -20t20.5 -51t-20.5 -51.5t-51.5 -20.5t-51 20.5t-20 51.5z" />
    <glyph glyph-name="uni1EF2" unicode="&#x1ef2;" horiz-adv-x="1024" 
d="M461 0v512l-430 778h112l369 -676l369 676h112l-430 -778v-512h-102zM481 1434l-174 245h123l123 -245h-72z" />
    <glyph glyph-name="uni1EF3" unicode="&#x1ef3;" horiz-adv-x="880" 
d="M133 -328v82h41q60 0 95.5 32t68.5 112l51 122l-358 881h102l307 -768l308 768h102l-410 -1003q-48 -125 -104 -180.5t-141 -55.5q-15 0 -43 4zM420 1065l-174 246h123l123 -246h-72z" />
    <glyph glyph-name="uni1EF4" unicode="&#x1ef4;" horiz-adv-x="1024" 
d="M461 0v512l-430 778h112l369 -676l369 676h112l-430 -778v-512h-102zM440 -225q0 31 20.5 51t51.5 20t51.5 -20t20.5 -51t-20.5 -51.5t-51.5 -20.5t-51.5 20.5t-20.5 51.5z" />
    <glyph glyph-name="uni1EF5" unicode="&#x1ef5;" horiz-adv-x="880" 
d="M133 -328v82h41q60 0 95.5 32t68.5 112l51 122l-358 881h102l307 -768l308 768h102l-410 -1003q-48 -125 -104 -180.5t-141 -55.5q-15 0 -43 4zM532 -225q0 31 20.5 51t51.5 20t51.5 -20t20.5 -51t-20.5 -51.5t-51.5 -20.5t-51.5 20.5t-20.5 51.5z" />
    <glyph glyph-name="uni1EF6" unicode="&#x1ef6;" horiz-adv-x="1024" 
d="M461 0v512l-430 778h112l369 -676l369 676h112l-430 -778v-512h-102zM573 1413h-81q8 8 30 39q31 55 31 94t-28 65.5t-74 26.5q-13 0 -37 -6l-15 -4v72l17 4q42 6 55 6q76 0 120 -40t44 -103q0 -51 -31 -111z" />
    <glyph glyph-name="uni1EF7" unicode="&#x1ef7;" horiz-adv-x="880" 
d="M133 -328v82h41q60 0 95.5 32t68.5 112l51 122l-358 881h102l307 -768l308 768h102l-410 -1003q-48 -125 -104 -180.5t-141 -55.5q-15 0 -43 4zM502 1044h-82q11 11 31 39q30 54 30 95q0 39 -28 65.5t-74 26.5q-13 0 -37 -6l-14 -4v71l16 4q42 6 55 6q76 0 120 -40
t44 -103q0 -51 -31 -111z" />
    <glyph glyph-name="uni1EF8" unicode="&#x1ef8;" horiz-adv-x="1024" 
d="M461 0v512l-430 778h112l369 -676l369 676h112l-430 -778v-512h-102zM317 1434h-71q0 96 44 150t109 54q35 0 70.5 -21t59.5 -45.5t53 -45.5t53 -21q33 0 57.5 31t24.5 82h71q0 -96 -44 -150.5t-109 -54.5q-35 0 -70.5 21t-59.5 45.5t-53 45.5t-53 21q-33 0 -57.5 -30.5
t-24.5 -81.5z" />
    <glyph glyph-name="uni1EF9" unicode="&#x1ef9;" horiz-adv-x="880" 
d="M133 -328v82h41q60 0 95.5 32t68.5 112l51 122l-358 881h102l307 -768l308 768h102l-410 -1003q-48 -125 -104 -180.5t-141 -55.5q-15 0 -43 4zM246 1065h-72q0 96 44.5 150.5t109.5 54.5q35 0 70.5 -21t59.5 -45.5t52.5 -45.5t52.5 -21q33 0 57.5 30.5t24.5 81.5h72
q0 -96 -44.5 -150.5t-109.5 -54.5q-35 0 -70.5 21t-59.5 46t-52.5 46t-52.5 21q-33 0 -57.5 -31t-24.5 -82z" />
    <glyph glyph-name="endash" unicode="&#x2013;" horiz-adv-x="942" 
d="M72 481v92h798v-92h-798z" />
    <glyph glyph-name="emdash" unicode="&#x2014;" horiz-adv-x="1433" 
d="M72 481v92h1290v-92h-1290z" />
    <glyph glyph-name="quoteleft" unicode="&#x2018;" horiz-adv-x="286" 
d="M205 1290l20 -20q-22 -22 -37 -43q-38 -57 -45 -111q31 0 51.5 -20.5t20.5 -51.5t-20.5 -51t-51.5 -20t-51 22t-20 60q0 91 65 172q24 34 68 63z" />
    <glyph glyph-name="quoteright" unicode="&#x2019;" horiz-adv-x="286" 
d="M82 983l-21 21q22 22 37 43q38 57 45 110q-31 0 -51 20.5t-20 51.5t20 51t51 20q32 0 52 -22t20 -59q0 -88 -68 -172q-26 -36 -65 -64z" />
    <glyph glyph-name="quotesinglbase" unicode="&#x201a;" horiz-adv-x="286" 
d="M82 -184l-21 20q22 22 37 43q38 57 45 111q-31 0 -51 20t-20 51t20 51.5t51 20.5t51.5 -22.5t20.5 -59.5q0 -88 -68 -172q-24 -34 -65 -63z" />
    <glyph glyph-name="quotedblleft" unicode="&#x201c;" horiz-adv-x="532" 
d="M451 1290l20 -20q-22 -22 -37 -43q-38 -57 -45 -111q31 0 51.5 -20.5t20.5 -51.5t-20.5 -51t-51.5 -20t-51.5 22.5t-20.5 59.5q0 90 66 172q24 34 68 63zM205 1290l20 -20q-22 -22 -37 -43q-38 -57 -45 -111q31 0 51.5 -20.5t20.5 -51.5t-20.5 -51t-51.5 -20t-51 22
t-20 60q0 91 65 172q24 34 68 63z" />
    <glyph glyph-name="quotedblright" unicode="&#x201d;" horiz-adv-x="532" 
d="M82 983l-21 21q22 22 37 43q38 57 45 110q-31 0 -51 20.5t-20 51.5t20 51t51 20q32 0 52 -22t20 -59q0 -88 -68 -172q-26 -36 -65 -64zM328 983l-21 21q22 22 37 43q38 57 45 110q-31 0 -51.5 20.5t-20.5 51.5t20.5 51t51.5 20q32 0 52 -22t20 -59q0 -88 -68 -172
q-26 -36 -65 -64z" />
    <glyph glyph-name="quotedblbase" unicode="&#x201e;" horiz-adv-x="532" 
d="M82 -184l-21 20q22 22 37 43q38 57 45 111q-31 0 -51 20t-20 51t20 51.5t51 20.5t51.5 -22.5t20.5 -59.5q0 -88 -68 -172q-24 -34 -65 -63zM328 -184l-21 20q22 22 37 43q38 57 45 111q-31 0 -51.5 20t-20.5 51t20.5 51.5t51.5 20.5t51.5 -22.5t20.5 -59.5
q0 -88 -68 -172q-24 -34 -65 -63z" />
    <glyph glyph-name="dagger" unicode="&#x2020;" horiz-adv-x="675" 
d="M297 369v573h-225v82h225v266h82v-266h225v-82h-225v-573h-82z" />
    <glyph glyph-name="daggerdbl" unicode="&#x2021;" horiz-adv-x="675" 
d="M297 369v266h-225v82h225v225h-225v82h225v266h82v-266h225v-82h-225v-225h225v-82h-225v-266h-82z" />
    <glyph glyph-name="bullet" unicode="&#x2022;" horiz-adv-x="696" 
d="M348 696q62 0 103 -41t41 -102t-41 -102t-103 -41t-102.5 41t-40.5 102t40.5 102t102.5 41z" />
    <glyph glyph-name="ellipsis" unicode="&#x2026;" horiz-adv-x="942" 
d="M72 61q0 31 20 51.5t51 20.5t51.5 -20.5t20.5 -51.5t-20.5 -51t-51.5 -20t-51 20t-20 51zM399 61q0 31 20.5 51.5t51.5 20.5t51.5 -20.5t20.5 -51.5t-20.5 -51t-51.5 -20t-51.5 20t-20.5 51zM727 61q0 31 20.5 51.5t51.5 20.5t51 -20.5t20 -51.5t-20 -51t-51 -20
t-51.5 20t-20.5 51z" />
    <glyph glyph-name="perthousand" unicode="&#x2030;" horiz-adv-x="1751" 
d="M164 0l788 1290h103l-789 -1290h-102zM860 82q70 0 117 48.5t47 125.5t-47 125.5t-117 48.5t-117 -48.5t-47 -125.5t47 -125.5t117 -48.5zM604 256q0 107 74.5 181.5t181.5 74.5t181.5 -74.5t74.5 -181.5t-74.5 -181.5t-181.5 -74.5t-181.5 74.5t-74.5 181.5zM317 860
q70 0 117 48.5t47 125.5t-47 125.5t-117 48.5t-116.5 -48.5t-46.5 -125.5t46.5 -125.5t116.5 -48.5zM61 1034q0 107 74.5 181.5t181.5 74.5t181.5 -74.5t74.5 -181.5t-74.5 -181.5t-181.5 -74.5t-181.5 74.5t-74.5 181.5zM1434 82q70 0 116.5 48.5t46.5 125.5t-46.5 125.5
t-116.5 48.5t-117 -48.5t-47 -125.5t47 -125.5t117 -48.5zM1178 256q0 107 74.5 181.5t181.5 74.5t181.5 -74.5t74.5 -181.5t-74.5 -181.5t-181.5 -74.5t-181.5 74.5t-74.5 181.5z" />
    <glyph glyph-name="guilsinglleft" unicode="&#x2039;" horiz-adv-x="471" 
d="M297 143l-225 318l225 317h102l-225 -317l225 -318h-102z" />
    <glyph glyph-name="guilsinglright" unicode="&#x203a;" horiz-adv-x="471" 
d="M72 143l225 318l-225 317h102l225 -317l-225 -318h-102z" />
    <glyph glyph-name="uni203D" unicode="&#x203d;" horiz-adv-x="870" 
d="M369 328l-11 866q-80 -27 -127 -98.5t-47 -173.5v-31h-102v31q0 166 101.5 272t256.5 106q152 0 250 -93.5t98 -233.5q0 -77 -23.5 -137.5t-58.5 -97.5t-76.5 -77.5t-76.5 -77.5t-58.5 -97.5t-23.5 -137.5v-20h-102zM471 1206l-14 -588q26 32 74 77.5t77.5 75.5
t53.5 83.5t24 118.5q0 93 -59.5 158t-155.5 75zM348 61q0 31 20.5 51.5t51.5 20.5t51.5 -20.5t20.5 -51.5t-20.5 -51t-51.5 -20t-51.5 20t-20.5 51z" />
    <glyph glyph-name="fraction" unicode="&#x2044;" horiz-adv-x="194" 
d="M-348 0l788 1290h103l-789 -1290h-102z" />
    <glyph glyph-name="zerosuperior" unicode="&#x2070;" horiz-adv-x="593" 
d="M297 870q-97 0 -166.5 84t-69.5 224t69.5 223.5t166.5 83.5t166 -83.5t69 -223.5q0 -141 -69 -224.5t-166 -83.5zM451 1178q0 108 -47.5 171.5t-106.5 63.5t-106.5 -63.5t-47.5 -171.5t47.5 -172t106.5 -64t106.5 64t47.5 172z" />
    <glyph glyph-name="foursuperior" unicode="&#x2074;" horiz-adv-x="491" 
d="M20 1004v61l256 410h93v-400h82v-71h-82v-123h-82v123h-267zM102 1075h185v287z" />
    <glyph glyph-name="fivesuperior" unicode="&#x2075;" horiz-adv-x="522" 
d="M61 1034h82q8 -41 39.5 -66.5t83.5 -25.5q54 0 88.5 34.5t34.5 88.5t-34.5 88.5t-88.5 34.5q-43 0 -78 -31q-13 -14 -24 -31h-82l41 349h317v-72h-256l-20 -174l29 14q38 17 83 17q86 0 140.5 -54.5t54.5 -140.5q0 -87 -56.5 -141t-148.5 -54q-89 0 -143 46t-62 118z" />
    <glyph glyph-name="sixsuperior" unicode="&#x2076;" horiz-adv-x="522" 
d="M133 1249l154 226h92l-154 -226q26 8 57.5 9t64.5 -13t61 -35.5t45.5 -60t17.5 -84.5q0 -87 -56.5 -141t-148.5 -54t-148.5 54t-56.5 141q0 59 35 127q13 26 37 57zM143 1065q0 -54 34.5 -88.5t88.5 -34.5t88.5 34.5t34.5 88.5t-34.5 88.5t-88.5 34.5t-88.5 -34.5
t-34.5 -88.5z" />
    <glyph glyph-name="sevensuperior" unicode="&#x2077;" horiz-adv-x="460" 
d="M102 881l246 522h-287v72h379v-52l-256 -542h-82z" />
    <glyph glyph-name="eightsuperior" unicode="&#x2078;" horiz-adv-x="552" 
d="M174 1321q0 -39 28 -65.5t74 -26.5t74.5 26.5t28.5 65.5t-28.5 65.5t-74.5 26.5t-74 -26.5t-28 -65.5zM154 1055q0 -48 34.5 -80.5t87.5 -32.5t88 32.5t35 80.5t-34.5 80t-88.5 32q-53 0 -87.5 -32t-34.5 -80zM72 1044q0 82 55 123q26 23 57 31q-17 6 -47 27
q-45 35 -45 96q0 71 50 117.5t134 46.5t134.5 -46.5t50.5 -117.5q0 -59 -47 -96q-30 -21 -45 -27q30 -9 55 -31q57 -42 57 -123q0 -71 -57.5 -122.5t-147.5 -51.5t-147 51.5t-57 122.5z" />
    <glyph glyph-name="ninesuperior" unicode="&#x2079;" horiz-adv-x="522" 
d="M143 881l154 225q-26 -8 -57.5 -9t-64.5 13t-61 35.5t-45.5 60t-17.5 84.5q0 87 56.5 141t148.5 54t148.5 -54t56.5 -141q0 -55 -37 -127q-9 -18 -35 -57l-153 -225h-93zM256 1167q54 0 88.5 34.5t34.5 88.5t-34.5 88.5t-88.5 34.5t-88.5 -34.5t-34.5 -88.5t34.5 -88.5
t88.5 -34.5z" />
    <glyph glyph-name="zeroinferior" unicode="&#x2080;" horiz-adv-x="593" 
d="M297 -195q-97 0 -166.5 84t-69.5 224t69.5 223.5t166.5 83.5t166 -83.5t69 -223.5q0 -141 -69 -224.5t-166 -83.5zM451 113q0 108 -47.5 171.5t-106.5 63.5t-106.5 -63.5t-47.5 -171.5t47.5 -172t106.5 -64t106.5 64t47.5 172z" />
    <glyph glyph-name="oneinferior" unicode="&#x2081;" horiz-adv-x="409" 
d="M195 -184v491l-103 -71l-41 71l164 103h61v-594h-81z" />
    <glyph glyph-name="twoinferior" unicode="&#x2082;" horiz-adv-x="522" 
d="M61 -184v61l236 246q26 30 35 43q37 51 37 80q0 47 -28 74.5t-75 27.5q-97 0 -112 -112h-82q8 87 58 135.5t136 48.5q85 0 135 -47.5t50 -126.5q0 -54 -41 -109q-12 -16 -41 -45l-195 -205h277v-71h-390z" />
    <glyph glyph-name="threeinferior" unicode="&#x2083;" horiz-adv-x="542" 
d="M61 -10h82q0 -48 35 -80.5t88 -32.5t88 32.5t35 80.5q0 40 -35.5 71t-87.5 31h-51v72h51q46 0 74.5 26.5t28.5 65.5t-28.5 65.5t-74.5 26.5q-48 0 -75 -29.5t-27 -82.5h-82q0 86 49 135t135 49q84 0 134.5 -46.5t50.5 -117.5q0 -58 -48 -96q-30 -21 -45 -27q31 -9 56 -31
q57 -42 57 -122q0 -71 -57.5 -123t-147.5 -52q-91 0 -148 53t-57 132z" />
    <glyph glyph-name="fourinferior" unicode="&#x2084;" horiz-adv-x="491" 
d="M20 -61v61l256 410h93v-400h82v-71h-82v-123h-82v123h-267zM102 10h185v287z" />
    <glyph glyph-name="fiveinferior" unicode="&#x2085;" horiz-adv-x="512" 
d="M51 -31h82q8 -41 39.5 -66.5t83.5 -25.5q54 0 88.5 34.5t34.5 88.5t-34.5 88.5t-88.5 34.5q-43 0 -78 -31q-14 -14 -24 -31h-82l41 349h317v-72h-256l-20 -174l28 14q38 17 84 17q86 0 140.5 -54.5t54.5 -140.5q0 -87 -56.5 -141t-148.5 -54q-89 0 -143 46t-62 118z" />
    <glyph glyph-name="sixinferior" unicode="&#x2086;" horiz-adv-x="522" 
d="M133 184l154 226h92l-154 -226q26 8 57.5 9t64.5 -13t61 -35.5t45.5 -60t17.5 -84.5q0 -87 -56.5 -141t-148.5 -54t-148.5 54t-56.5 141q0 59 35 127q13 26 37 57zM143 0q0 -54 34.5 -88.5t88.5 -34.5t88.5 34.5t34.5 88.5t-34.5 88.5t-88.5 34.5t-88.5 -34.5
t-34.5 -88.5z" />
    <glyph glyph-name="seveninferior" unicode="&#x2087;" horiz-adv-x="460" 
d="M102 -184l246 522h-287v72h379v-52l-256 -542h-82z" />
    <glyph glyph-name="eightinferior" unicode="&#x2088;" horiz-adv-x="552" 
d="M174 256q0 -39 28 -65.5t74 -26.5t74.5 26.5t28.5 65.5t-28.5 65.5t-74.5 26.5t-74 -26.5t-28 -65.5zM154 -10q0 -48 34.5 -80.5t87.5 -32.5t88 32.5t35 80.5t-34.5 80t-88.5 32q-53 0 -87.5 -32t-34.5 -80zM72 -20q0 81 55 122q26 23 57 31q-17 6 -47 27q-45 35 -45 96
q0 71 50 117.5t134 46.5t134.5 -46.5t50.5 -117.5q0 -59 -47 -96q-30 -21 -45 -27q30 -9 55 -31q57 -42 57 -122q0 -71 -57.5 -123t-147.5 -52t-147 52t-57 123z" />
    <glyph glyph-name="nineinferior" unicode="&#x2089;" horiz-adv-x="522" 
d="M143 -184l154 225q-26 -8 -57.5 -9t-64.5 13t-61 35.5t-45.5 60t-17.5 84.5q0 87 56.5 141t148.5 54t148.5 -54t56.5 -141q0 -55 -37 -127q-9 -18 -35 -57l-153 -225h-93zM256 102q54 0 88.5 34.5t34.5 88.5t-34.5 88.5t-88.5 34.5t-88.5 -34.5t-34.5 -88.5t34.5 -88.5
t88.5 -34.5z" />
    <glyph glyph-name="uni20A9" unicode="&#x20a9;" horiz-adv-x="1638" 
d="M440 0l-116 430h-304v92h279l-47 174h-232v92h207l-135 502h103l129 -502h319l135 502h82l135 -502h318l131 502h102l-135 -502h207v-92h-232l-47 -174h279v-92h-303l-117 -430h-82l-117 430h-362l-115 -430h-82zM662 522h313l-47 174h-219zM393 522h178l47 174h-270z
M1067 522h176l45 174h-268zM733 788h170l-84 318zM481 184l66 246h-131zM1157 184l64 246h-129z" />
    <glyph glyph-name="uni20AB" unicode="&#x20ab;" horiz-adv-x="972" 
d="M717 236l-31 112q-23 -37 -53 -61q-78 -62 -182 -62q-148 0 -248.5 100t-100.5 248t100.5 248.5t248.5 100.5q110 0 188 -62q38 -30 57 -61v256h-256v92h256v143h92v-143h134v-92h-134v-819h-71zM451 317q110 0 177.5 70t67.5 186t-67.5 186t-177.5 70t-178 -70t-68 -186
t68 -186t178 -70zM164 0v92h624v-92h-624z" />
    <glyph glyph-name="Euro" unicode="&#x20ac;" horiz-adv-x="1372" 
d="M51 451v81h150l-4 29q-2 18 -2 74q0 54 2 70l4 22h-150v82h164q47 221 194 356t359 135q187 0 321.5 -121t190.5 -319h-102q-49 159 -155 253.5t-255 94.5q-171 0 -292 -112.5t-159 -286.5h441v-82h-455l-4 -22q-2 -16 -2 -70q0 -56 2 -74l4 -29h455v-81h-441
q39 -155 160.5 -262t290.5 -107q149 0 256.5 94t163.5 254h102q-64 -199 -200 -319.5t-322 -120.5q-209 0 -358 131t-195 330h-164z" />
    <glyph glyph-name="uni20B4" unicode="&#x20b4;" horiz-adv-x="1075" 
d="M92 737v92h563q31 14 62 41q61 61 61 134q0 89 -66 146.5t-180 57.5q-106 0 -171.5 -57.5t-73.5 -146.5h-103q8 119 107 207.5t241 88.5q150 0 249.5 -88.5t99.5 -207.5q0 -71 -47 -134q-24 -27 -46 -41h195v-92h-891zM92 461v92h891v-92h-563q-31 -14 -62 -41
q-61 -61 -61 -133q0 -89 66 -147t180 -58q106 0 171.5 58t73.5 147h103q-8 -119 -107 -208t-241 -89q-150 0 -249 89t-99 208q0 72 45 133q25 29 47 41h-195z" />
    <glyph glyph-name="uni20B8" unicode="&#x20b8;" horiz-adv-x="1003" 
d="M451 0v932h-390v92h881v-92h-389v-932h-102zM61 1198v92h881v-92h-881z" />
    <glyph glyph-name="uni20B9" unicode="&#x20b9;" horiz-adv-x="1013" 
d="M92 522v92h318q112 0 195 75t91 171h-604v92h604q-8 96 -91 171t-195 75h-318v92h850v-92h-276q27 -17 59 -57q61 -77 74 -189h143v-92h-143q-18 -144 -125 -241t-264 -97h-158l670 -522h-154z" />
    <glyph glyph-name="uni20BA" unicode="&#x20ba;" horiz-adv-x="1003" 
d="M205 0v506l-154 -55v102l154 55v185l-154 -56v103l154 55v395h102v-356l328 121v-103l-328 -121v-184l328 121v-102l-328 -121v-453q198 0 316.5 45t167.5 131t49 224h102q0 -126 -33 -215.5t-107.5 -153t-196.5 -93.5t-298 -30h-102z" />
    <glyph glyph-name="uni20BD" unicode="&#x20bd;" horiz-adv-x="1105" 
d="M225 0v246h-174v92h174v194h-174v93h174v665h400q166 0 282.5 -112t116.5 -267t-116.5 -267t-282.5 -112h-297v-194h430v-92h-430v-246h-103zM328 625h297q122 0 209.5 85t87.5 201t-87.5 201.5t-209.5 85.5h-297v-573z" />
    <glyph glyph-name="uni20BF" unicode="&#x20bf;" horiz-adv-x="1116" 
d="M348 -205v205h-174v1290h174v205h103v-205h163v205h103v-221q115 -30 180.5 -114.5t65.5 -196.5q0 -130 -93 -215q-43 -39 -92 -62q72 -27 123 -70q123 -96 123 -247q0 -133 -83.5 -231.5t-223.5 -127.5v-215h-103v205h-163v-205h-103zM276 92h338q128 0 218 83.5
t90 193.5q0 103 -90.5 184.5t-217.5 81.5h-338v-543zM276 727h318q121 0 193.5 67t72.5 169t-72.5 168.5t-193.5 66.5h-318v-471z" />
    <glyph glyph-name="uni2113" unicode="&#x2113;" horiz-adv-x="675" 
d="M10 412v80q57 7 123 24l51 16v515q0 119 57.5 186t147.5 67q96 0 155.5 -69.5t59.5 -196.5q0 -103 -30 -195t-81 -159.5t-107.5 -116t-119.5 -82.5v-225q0 -89 40 -136.5t104 -47.5q44 0 84 14q26 13 30 16v-82q-4 -3 -30 -16q-40 -14 -93 -14q-97 0 -157 69.5t-60 196.5
v195l-51 -17q-51 -13 -123 -22zM266 1049v-476q256 173 256 461q0 88 -38 136.5t-95 48.5t-90 -41.5t-33 -128.5z" />
    <glyph glyph-name="afii61352" unicode="&#x2116;" horiz-adv-x="1843" 
d="M1239 41v92h492v-92h-492zM174 0v1290h92l707 -1095v1095h102v-1290h-92l-707 1096v-1096h-102zM1219 573q0 106 80 186.5t186 80.5t186 -80.5t80 -186.5t-80 -186t-186 -80t-186 80t-80 186zM1485 389q70 0 122 53.5t52 130.5t-52 131t-122 54t-122 -54t-52 -131
t52 -130.5t122 -53.5z" />
    </font>
</defs>
</svg>
